<svg opacity="0.5" width="120" height="27" viewBox="0 0 120 27" fill="none" xmlns="http://www.w3.org/2000/svg">
<g clip-path="url(#clip0_2242_3962)">
<path d="M37.6564 14.3066V14.0041C37.6564 13.2579 37.3942 12.673 36.89 12.2696C36.3858 11.8461 35.7405 11.6444 34.9337 11.6444C34.3085 11.6444 33.8245 11.7453 33.4615 11.9671C33.1186 12.1688 32.7959 12.4713 32.4732 12.8949C32.3724 13.0159 32.2716 13.0965 32.1707 13.157C32.0699 13.1974 31.9085 13.2175 31.727 13.2175H31.0211C30.8598 13.2175 30.6984 13.157 30.5573 13.036C30.4363 12.915 30.3758 12.7739 30.3959 12.5923C30.4363 12.1285 30.6783 11.6848 31.0816 11.2411C31.5052 10.7772 32.0497 10.4142 32.7354 10.1117C33.4211 9.82932 34.1472 9.66797 34.9337 9.66797C36.3858 9.66797 37.5556 10.0713 38.443 10.8579C39.3506 11.6646 39.7942 12.7739 39.7942 14.2058V21.2243C39.7942 21.3856 39.7337 21.547 39.6127 21.668C39.4917 21.789 39.3304 21.8495 39.169 21.8495H38.3018C38.1405 21.8495 37.9791 21.789 37.8581 21.668C37.7371 21.547 37.6766 21.4058 37.6766 21.2243V20.2764C37.4346 20.8209 36.89 21.2646 36.0833 21.5873C35.2766 21.91 34.4699 22.0713 33.6632 22.0713C32.8766 22.0713 32.1707 21.9302 31.5455 21.6478C30.9203 21.3654 30.4363 20.9621 30.0934 20.4781C29.7707 19.994 29.6094 19.4293 29.6094 18.8243C29.6094 17.6747 30.0531 16.7873 30.9203 16.1419C31.7875 15.4764 32.9573 15.0327 34.4094 14.8108L37.6564 14.3066ZM37.6564 16.1621L34.8934 16.6058C33.885 16.7671 33.0984 17.0091 32.5337 17.3722C31.969 17.715 31.6867 18.1386 31.6867 18.6629C31.6867 19.0461 31.8682 19.389 32.2312 19.6915C32.5942 19.994 33.1388 20.1554 33.8648 20.1554C34.9942 20.1554 35.9018 19.8327 36.5875 19.2075C37.2934 18.5823 37.6363 17.7554 37.6363 16.747V16.1621H37.6564Z" fill="white"/>
<path d="M45.3208 21.2646C45.3208 21.426 45.2603 21.5873 45.1393 21.7083C45.0182 21.8293 44.8569 21.8898 44.6956 21.8898H43.8283C43.667 21.8898 43.5056 21.8293 43.3846 21.7083C43.2636 21.5873 43.2031 21.4461 43.2031 21.2646V6.17892C43.2031 6.01758 43.2636 5.85623 43.3846 5.73522C43.5056 5.61421 43.667 5.55371 43.8283 5.55371H44.6956C44.8569 5.55371 45.0182 5.61421 45.1393 5.73522C45.2603 5.85623 45.3208 5.99741 45.3208 6.17892V21.2646Z" fill="white"/>
<path d="M53.7279 20.1355C55.2808 20.1355 56.3296 19.5305 56.8741 18.3406C56.975 18.1187 57.096 17.9574 57.1968 17.8565C57.2976 17.7557 57.459 17.7154 57.6405 17.7154H58.3464C58.5077 17.7154 58.6691 17.7759 58.7901 17.8969C58.9111 17.9977 58.9716 18.1389 58.9716 18.2801C58.9716 18.8044 58.7699 19.3691 58.3464 19.954C57.9229 20.5591 57.3178 21.0633 56.5313 21.4666C55.7447 21.8902 54.7968 22.0918 53.7279 22.0918C52.6187 22.0918 51.6708 21.87 50.864 21.4061C50.0573 20.9423 49.4321 20.317 48.9884 19.5305C48.5447 18.7238 48.3027 17.8162 48.2624 16.8078C48.2422 16.6263 48.2422 16.2633 48.2422 15.7591C48.2422 15.396 48.2422 15.1339 48.2624 14.9725C48.4035 13.3994 48.9481 12.1288 49.8758 11.1607C50.8035 10.1725 52.0943 9.68848 53.7279 9.68848C54.7968 9.68848 55.7245 9.89016 56.5111 10.3137C57.2976 10.717 57.9027 11.2011 58.3061 11.8061C58.7296 12.391 58.9514 12.9355 58.9918 13.4599C59.0119 13.6212 58.9514 13.7826 58.8103 13.9036C58.6892 14.0246 58.5279 14.0851 58.3666 14.0851H57.6607C57.4792 14.0851 57.3178 14.0448 57.217 13.9439C57.1161 13.8431 56.9951 13.6818 56.8943 13.4599C56.3497 12.27 55.301 11.6649 53.7481 11.6649C52.901 11.6649 52.1346 11.9473 51.5094 12.512C50.864 13.0767 50.501 13.9439 50.4203 15.0935C50.4002 15.2549 50.4002 15.5372 50.4002 15.9204C50.4002 16.2633 50.4002 16.5254 50.4203 16.707C50.5212 17.8565 50.9044 18.7238 51.5094 19.2885C52.1346 19.8532 52.8808 20.1355 53.7279 20.1355Z" fill="white"/>
<path d="M72.5666 21.2646C72.5666 21.426 72.5061 21.5873 72.3851 21.7083C72.2641 21.8293 72.1028 21.8898 71.9414 21.8898H71.0742C70.9128 21.8898 70.7515 21.8293 70.6305 21.7083C70.5095 21.5873 70.449 21.4461 70.449 21.2646V15.194C70.449 14.0445 70.1666 13.1772 69.5818 12.5722C68.9969 11.9672 68.2103 11.6848 67.1818 11.6848C66.1733 11.6848 65.3666 11.9873 64.7818 12.5722C64.1969 13.1772 63.9145 14.0445 63.9145 15.194V21.2646C63.9145 21.426 63.854 21.5873 63.733 21.7083C63.612 21.8293 63.4507 21.8898 63.2893 21.8898H62.4221C62.2607 21.8898 62.0994 21.8293 61.9784 21.7083C61.8574 21.5873 61.7969 21.4461 61.7969 21.2646V6.17892C61.7969 6.01758 61.8574 5.85623 61.9784 5.73522C62.0994 5.61421 62.2607 5.55371 62.4221 5.55371H63.2893C63.4507 5.55371 63.612 5.61421 63.733 5.73522C63.854 5.85623 63.9145 5.99741 63.9145 6.17892V11.2613C64.2574 10.8176 64.7212 10.4545 65.3061 10.152C65.9112 9.84951 66.6574 9.68816 67.5246 9.68816C68.5128 9.68816 69.3801 9.88985 70.1465 10.3134C70.9128 10.7369 71.4977 11.3218 71.9212 12.1083C72.3649 12.8747 72.5666 13.7823 72.5666 14.8512V21.2646Z" fill="white"/>
<path d="M80.7566 9.68848C82.4306 9.68848 83.7415 10.2128 84.7095 11.2616C85.6776 12.3103 86.1616 13.7221 86.1616 15.517V16.1423C86.1616 16.3036 86.1011 16.4649 85.9801 16.586C85.8591 16.707 85.6978 16.7675 85.5364 16.7675H77.5095V16.9086C77.5499 17.917 77.8524 18.7238 78.4373 19.3086C79.0423 19.8733 79.8289 20.1557 80.7768 20.1557C81.5633 20.1557 82.1482 20.0549 82.5717 19.8532C83.0154 19.6515 83.3986 19.3691 83.7415 19.0061C83.8625 18.8851 83.9835 18.8044 84.0642 18.7439C84.165 18.7036 84.3062 18.6834 84.4877 18.6834H85.1936C85.3751 18.6834 85.5364 18.7439 85.6574 18.8649C85.7785 18.986 85.839 19.1271 85.8188 19.3086C85.7583 19.7322 85.5163 20.1557 85.1129 20.5994C84.7297 21.0229 84.165 21.4061 83.3986 21.7086C82.6726 21.991 81.7852 22.1523 80.7566 22.1523C79.7684 22.1523 78.881 21.9305 78.0944 21.4868C77.3079 21.0229 76.7028 20.3977 76.2188 19.6112C75.7751 18.8044 75.4927 17.917 75.3919 16.9288C75.3516 16.4649 75.3516 16.1221 75.3516 15.8801C75.3516 15.6381 75.3717 15.275 75.3919 14.8313C75.4927 13.8834 75.7549 13.0162 76.2188 12.2498C76.6827 11.4834 77.3079 10.8784 78.0541 10.4347C78.8406 9.91032 79.7482 9.68848 80.7566 9.68848ZM84.044 14.8313V14.7708C84.044 13.8431 83.7415 13.0969 83.1364 12.5322C82.5516 11.9675 81.7448 11.6851 80.7566 11.6851C79.849 11.6851 79.0827 11.9675 78.4373 12.5322C77.8121 13.0969 77.4894 13.8431 77.4894 14.7708V14.8313H84.044Z" fill="white"/>
<path d="M91.0786 11.2616C91.4618 10.7775 91.8651 10.4145 92.3492 10.1322C92.813 9.84982 93.4383 9.68848 94.2248 9.68848C96.0399 9.68848 97.3307 10.354 98.0567 11.6851C98.5004 11.0397 99.0248 10.5557 99.5895 10.2128C100.174 9.86999 100.921 9.68848 101.848 9.68848C103.381 9.68848 104.511 10.1322 105.237 11.0397C105.983 11.9473 106.366 13.2179 106.366 14.8717V21.2448C106.366 21.4061 106.305 21.5675 106.184 21.6885C106.063 21.8095 105.902 21.87 105.741 21.87H104.874C104.712 21.87 104.551 21.8095 104.43 21.6885C104.309 21.5675 104.248 21.4263 104.248 21.2448V15.1137C104.248 12.8145 103.321 11.6649 101.485 11.6649C100.638 11.6649 99.9727 11.9473 99.4685 12.4918C98.9643 13.0364 98.7223 13.8633 98.7223 14.9523V21.2448C98.7223 21.4061 98.6618 21.5675 98.5408 21.6885C98.4198 21.8095 98.2584 21.87 98.0971 21.87H97.2298C97.0685 21.87 96.9072 21.8095 96.7862 21.6885C96.6651 21.5675 96.6046 21.4263 96.6046 21.2448V15.1137C96.6046 12.8145 95.6769 11.6649 93.8416 11.6649C92.9946 11.6649 92.329 11.9473 91.8248 12.4918C91.3206 13.0364 91.0786 13.8633 91.0786 14.9523V21.2448C91.0786 21.4061 91.0181 21.5675 90.8971 21.6885C90.7761 21.8095 90.6147 21.87 90.4534 21.87H89.5862C89.4248 21.87 89.2635 21.8095 89.1425 21.6885C89.0214 21.5675 88.9609 21.4263 88.9609 21.2448V10.5355C88.9609 10.3742 89.0214 10.2128 89.1425 10.0918C89.2635 9.97083 89.4248 9.91033 89.5862 9.91033H90.4534C90.6147 9.91033 90.7761 9.97083 90.8971 10.0918C91.0181 10.2128 91.0786 10.354 91.0786 10.5355V11.2616Z" fill="white"/>
<path d="M112.898 25.7021C112.757 26.0651 112.535 26.2466 112.213 26.2466H111.265C111.104 26.2466 110.983 26.1861 110.861 26.0853C110.761 25.9844 110.7 25.8433 110.7 25.7021C110.7 25.6416 110.7 25.5811 110.72 25.5408L112.959 20.7407L108.34 10.6365C108.32 10.5962 108.32 10.5357 108.32 10.4752C108.32 10.3139 108.381 10.1929 108.482 10.092C108.583 9.99117 108.724 9.93066 108.885 9.93066H109.833C110.135 9.93066 110.377 10.1122 110.519 10.4752L114.109 18.3004L117.759 10.4752C117.9 10.1122 118.122 9.93066 118.445 9.93066H119.393C119.554 9.93066 119.675 9.99117 119.796 10.092C119.897 10.1929 119.957 10.334 119.957 10.4752C119.957 10.5357 119.957 10.5962 119.937 10.6365L112.898 25.7021Z" fill="white"/>
<path d="M20.752 14.2671L12.9066 0.956225C12.8662 0.895721 12.8057 0.835216 12.7452 0.79488C12.6847 0.754544 12.6041 0.734375 12.5234 0.734375C12.4427 0.734375 12.362 0.754544 12.3015 0.79488C12.241 0.835216 12.1805 0.895721 12.1402 0.956225L9.8007 4.9495C9.72002 5.07051 9.67969 5.23186 9.67969 5.37303C9.67969 5.51421 9.72002 5.67555 9.8007 5.79656L14.9234 14.489C15.0041 14.61 15.1049 14.731 15.2461 14.8117C15.3873 14.8924 15.5284 14.9327 15.6898 14.9327H20.3688C20.4494 14.9327 20.5301 14.9125 20.5906 14.8722C20.6511 14.8319 20.7116 14.7714 20.752 14.7108C20.7923 14.6503 20.8125 14.5697 20.8125 14.489C20.8125 14.4083 20.7923 14.3478 20.752 14.2671Z" fill="white"/>
<path d="M0.19786 21.2252L8.04324 7.91423C8.08357 7.85372 8.14408 7.79322 8.20458 7.75288C8.26509 7.71255 8.34576 7.69238 8.42643 7.69238C8.5071 7.69238 8.58777 7.71255 8.64828 7.75288C8.70878 7.79322 8.76929 7.85372 8.80962 7.91423L11.1491 11.9075C11.2298 12.0285 11.2701 12.1899 11.2701 12.331C11.2701 12.4722 11.2298 12.6336 11.1491 12.7546L6.02643 21.447C5.94576 21.568 5.84492 21.689 5.70374 21.7697C5.56257 21.8504 5.42139 21.8907 5.26005 21.8907H0.560886C0.480214 21.8907 0.39954 21.8705 0.339036 21.8302C0.278532 21.7899 0.218028 21.7294 0.177692 21.6689C0.137356 21.6083 0.117188 21.5277 0.117188 21.447C0.137356 21.3663 0.157524 21.3058 0.19786 21.2252Z" fill="white"/>
<path d="M8.79072 21.8701H24.4815C24.5621 21.8701 24.6428 21.8499 24.7033 21.8096C24.7638 21.7693 24.8243 21.7088 24.8647 21.6482C24.905 21.5877 24.9252 21.5071 24.9252 21.4264C24.9252 21.3457 24.905 21.2852 24.8647 21.2046L22.5252 17.2113C22.4445 17.0903 22.3437 16.9693 22.2025 16.8886C22.0613 16.8079 21.9201 16.7676 21.7588 16.7676H11.5336C11.3722 16.7676 11.2311 16.8079 11.0899 16.8886C10.9487 16.9693 10.8479 17.0701 10.7672 17.2113L8.42769 21.2046C8.38736 21.2651 8.36719 21.3457 8.36719 21.4264C8.36719 21.5071 8.38736 21.5676 8.42769 21.6482C8.46803 21.7088 8.52853 21.7693 8.58904 21.8096C8.64954 21.8499 8.73021 21.8701 8.79072 21.8701Z" fill="white"/>
</g>
<defs>
<clipPath id="clip0_2242_3962">
<rect width="120" height="25.8151" fill="white" transform="translate(0 0.592773)"/>
</clipPath>
</defs>
</svg>
