<svg opacity="0.5" width="82" height="23" viewBox="0 0 82 23" fill="none" xmlns="http://www.w3.org/2000/svg">
<path fill-rule="evenodd" clip-rule="evenodd" d="M21.7147 11.5C21.7147 17.5751 16.8575 22.5 10.8658 22.5C5.18125 22.5 0.517834 18.0671 0.0546875 12.4246H14.3944V10.5753H0.0546875C0.517834 4.93291 5.18125 0.5 10.8658 0.5C16.8575 0.5 21.7147 5.42486 21.7147 11.5ZM61.9355 20.507C65.6947 20.507 68.1602 18.4492 68.1602 15.35C68.1602 12.474 66.305 11.1103 63.4979 10.6392L61.008 10.2177C59.104 9.89544 57.8346 9.05244 57.8346 7.19291C57.8346 5.30861 59.2505 3.87058 61.9355 3.87058C64.5475 3.87058 65.89 5.20942 66.0365 7.11853H67.9162C67.7697 4.5896 65.8656 2.33337 61.9599 2.33337C58.1031 2.33337 55.9795 4.53999 55.9795 7.26731C55.9795 10.1682 57.9078 11.507 60.5442 11.9533L63.0585 12.35C65.1577 12.7219 66.3294 13.5897 66.3294 15.4244C66.3294 17.5815 64.5963 18.9699 61.9599 18.9699C59.2261 18.9699 57.5173 17.631 57.3708 15.35H55.5157C55.6622 18.3253 57.9078 20.507 61.9355 20.507ZM34.2224 20.16H27.3875V2.70528H33.9783C36.8832 2.70528 38.9092 4.44082 38.9092 7.21772C38.9092 9.226 37.7864 10.5648 35.9801 11.0111V11.0855C38.1281 11.507 39.4462 12.9946 39.4462 15.3252C39.4462 18.3253 37.2738 20.16 34.2224 20.16ZM33.7342 10.3665C35.8092 10.3665 37.0785 9.226 37.0785 7.44086V7.19291C37.0785 5.40778 35.8092 4.29207 33.7342 4.29207H29.2183V10.3665H33.7342ZM33.9539 18.5732C36.2242 18.5732 37.6155 17.3087 37.6155 15.3748V15.1269C37.6155 13.1186 36.1998 11.9037 33.9295 11.9037H29.2183V18.5732H33.9539ZM54.2305 20.16H52.2775L50.813 15.4244H43.978L42.5135 20.16H40.6582L46.2971 2.70528H48.5183L54.2305 20.16ZM47.4931 4.61439H47.3467L44.4662 13.8624H50.3492L47.4931 4.61439ZM70.91 20.16V2.70528H81.9436V4.31686H72.7409V10.3169H81.2113V11.9037H72.7409V18.5484H81.9436V20.16H70.91Z" fill="white"/>
</svg>
