<svg opacity="0.5"  width="120" height="35" viewBox="0 0 1283 200" fill="none" xmlns="http://www.w3.org/2000/svg">
<path fill-rule="evenodd" clip-rule="evenodd" d="M6.74418 193.262C-5.45272 181.065 1.98221 152.281 23.192 119.357C26.5368 132.801 33.4637 145.536 43.9729 156.045L44.01 156.008L44.0186 156.016C54.1906 166.188 87.4185 149.453 118.235 118.636C124.33 112.541 129.874 106.352 134.769 100.265C129.856 94.148 124.286 87.9263 118.16 81.7998C87.3576 50.9979 54.1468 34.2633 43.9576 44.4046L43.9537 44.4007C33.4476 54.9067 26.5217 67.6371 23.1758 81.0759C1.97052 48.1558 -5.46185 19.3767 6.7339 7.18092C25.2324 -11.3176 81.884 15.342 133.269 66.7268C138.327 71.7851 143.146 76.8945 147.706 82.0135C158.151 64.8617 161.706 50.5088 155.616 44.4192L155.607 44.4105L155.621 44.3964C145.114 33.8886 132.381 26.962 118.939 23.6168C151.856 2.41614 180.63 -5.01368 192.825 7.18092C207.341 21.6968 194.05 59.7058 162.826 100.228C194.043 140.745 207.329 178.747 192.815 193.262C180.62 205.456 151.846 198.027 118.93 176.826C132.368 173.48 145.097 166.554 155.602 156.049L155.555 156.002C161.617 149.911 158.076 135.595 147.667 118.484C143.122 123.584 138.319 128.675 133.279 133.716C81.8943 185.101 25.2427 211.76 6.74418 193.262Z" fill="white"/>
<path d="M405.543 106.086C403.605 104.245 401.285 102.81 398.583 101.733C395.88 100.681 392.914 99.9157 389.637 99.4373C395.114 98.1697 399.444 95.8736 402.553 92.4773C405.686 89.105 407.265 83.9628 407.265 77.0267C407.265 67.7946 404.036 60.9781 397.65 56.5773C391.264 52.2004 381.792 50 369.284 50H280V149.975H373.613C379.377 149.975 384.615 149.449 389.279 148.396C393.966 147.344 397.961 145.67 401.285 143.421C404.61 141.149 407.145 138.303 408.939 134.883C410.709 131.463 411.618 127.397 411.618 122.661C411.618 118.906 411.091 115.653 410.039 112.927C408.987 110.176 407.48 107.88 405.566 106.086H405.543ZM302.387 68.5121H369.284C374.187 68.5121 378.037 69.3731 380.836 71.0952C383.634 72.8411 385.021 75.783 385.021 79.8968C385.021 84.0106 383.658 87.0241 380.907 88.5549C378.157 90.1095 374.402 90.8748 369.714 90.8748H302.387V68.4882V68.5121ZM385.332 128.88C382.606 130.626 378.707 131.463 373.613 131.463H302.387V108.215H373.613C379.114 108.215 383.084 109.22 385.595 111.229C388.083 113.238 389.35 116.132 389.35 119.887C389.35 124.144 388.011 127.11 385.332 128.856V128.88Z" fill="white"/>
<path d="M567.871 103.838C571.171 98.4806 572.869 92.2142 572.869 84.9912V84.8477C572.869 79.7054 572.056 75.0654 570.478 70.832C568.899 66.5747 566.388 62.9154 562.896 59.854C559.428 56.7686 554.931 54.3291 549.454 52.6309C543.953 50.885 537.376 50 529.674 50H444.863V70.0906V99.8439V149.999H467.274V119.097H529.818L550.028 149.999H575.309L551.607 115.893C559.141 113.214 564.546 109.172 567.894 103.838H567.871ZM550.315 84.9912C550.315 90.1095 548.641 93.8407 545.316 96.2324C541.992 98.6481 536.754 99.8439 529.627 99.8439H444.863V70.0906H529.627C536.754 70.0906 541.968 71.3104 545.316 73.6782C548.617 76.0939 550.315 79.825 550.315 84.8237V84.9672V84.9912Z" fill="white"/>
<path d="M1022.97 107.373L968.198 50.0195H946.528V149.994H969.202V81.8058L1017.47 132.654H1028.45L1076.69 81.8058V149.994H1099.53V50.0195H1077.69L1022.97 107.373Z" fill="white"/>
<path d="M889.229 89.8898H800.519V50.0195H777.559V149.994H800.519V110.411H889.229V149.994H912.357V50.0195H889.229V89.8898Z" fill="white"/>
<path d="M685.328 50.0195H662.487L598.364 149.994H623.214L673.919 69.9427L724.624 149.994H749.45L685.328 50.0195Z" fill="white"/>
<path d="M1218.79 50.0195H1195.95L1131.83 149.994H1156.68L1207.39 69.9427L1258.09 149.994H1282.92L1218.79 50.0195Z" fill="white"/>
<rect x="632.93" y="108.984" width="81.3192" height="19.1339" fill="white"/>
<rect x="1166.29" y="108.984" width="81.3192" height="19.1339" fill="white"/>
</svg>
