<svg opacity="0.5" width="112" height="21" viewBox="0 0 112 21" fill="none" xmlns="http://www.w3.org/2000/svg">
<path d="M22.6201 6.08361C18.5528 6.08361 15.3748 9.17117 15.3748 13.3045C15.3748 17.4389 18.4725 20.499 22.6201 20.499C26.7677 20.499 29.9193 17.385 29.9193 13.2781C29.9182 9.1976 26.8216 6.08361 22.6201 6.08361ZM22.6465 17.5202C20.3304 17.5202 18.6331 15.7213 18.6331 13.3055C18.6331 10.8623 20.3029 9.06446 22.6191 9.06446C24.9627 9.06446 26.6589 10.8898 26.6589 13.3055C26.66 15.7213 24.9627 17.5202 22.6465 17.5202ZM30.8075 9.22504H32.828V20.2317H36.0598V6.35294H30.8075V9.22504ZM7.24128 9.06344C8.93853 9.06344 10.2851 10.1102 10.7963 11.6672H14.2172C13.5973 8.33881 10.8502 6.08361 7.26872 6.08361C3.20144 6.08361 0.0234375 9.17117 0.0234375 13.3045C0.0234375 17.4389 3.12116 20.499 7.26872 20.499C10.7699 20.499 13.5709 18.2438 14.1908 14.8879H10.7974C10.3126 16.4449 8.96597 17.5192 7.26872 17.5192C4.92511 17.5192 3.28275 15.7203 3.28275 13.3045C3.28173 10.8623 4.89767 9.06344 7.24128 9.06344ZM92.2151 11.963L89.8451 11.6144C88.7139 11.4538 87.906 11.0778 87.906 10.1916C87.906 9.22504 88.9568 8.74229 90.3837 8.74229C91.9458 8.74229 92.9428 9.41305 93.1583 10.5137H96.2824C95.9318 7.72191 93.7772 6.08463 90.465 6.08463C87.0441 6.08463 84.7818 7.82964 84.7818 10.2993C84.7818 12.6612 86.2636 14.0312 89.2526 14.4601L91.6226 14.8087C92.7812 14.9692 93.4276 15.4266 93.4276 16.2854C93.4276 17.386 92.2964 17.8423 90.7344 17.8423C88.8217 17.8423 87.7444 17.0639 87.5828 15.8829H84.4048C84.7015 18.5944 86.8287 20.5 90.7069 20.5C94.2355 20.5 96.5781 18.8891 96.5781 16.1238C96.5781 13.6541 94.8809 12.3654 92.2151 11.963ZM34.4429 0.634154C33.2579 0.634154 32.3686 1.49294 32.3686 2.67389C32.3686 3.85485 33.2579 4.71464 34.4429 4.71464C35.6279 4.71464 36.5172 3.85586 36.5172 2.67491C36.5172 1.49395 35.6289 0.634154 34.4429 0.634154ZM81.8721 11.1042C81.8721 8.09795 80.0407 6.08463 76.1625 6.08463C72.4997 6.08463 70.4528 7.93737 70.0483 10.783H73.2538C73.4154 9.68238 74.2772 8.76973 76.1086 8.76973C77.752 8.76973 78.56 9.49436 78.56 10.3806C78.56 11.5351 77.0782 11.8298 75.2468 12.0179C72.769 12.2862 69.6987 13.145 69.6987 16.3667C69.6987 18.8637 71.5576 20.4736 74.5201 20.4736C76.8363 20.4736 78.2906 19.5071 79.0183 17.9765C79.126 19.3455 80.1495 20.2317 81.5774 20.2317H83.4626V17.3596H81.8731V11.1042H81.8721ZM78.6941 14.5942C78.6941 16.447 77.0782 17.8159 75.1116 17.8159C73.8991 17.8159 72.8757 17.3057 72.8757 16.2325C72.8757 14.8635 74.5191 14.4875 76.0273 14.3269C77.4816 14.1928 78.2896 13.8706 78.6941 13.2527V14.5942ZM61.5377 6.08361C59.7328 6.08361 58.2246 6.83569 57.1473 8.09693V0.5H53.9154V20.2317H57.0934V18.4064C58.1707 19.7215 59.7063 20.5 61.5377 20.5C65.416 20.5 68.3521 17.4399 68.3521 13.3055C68.3521 9.17118 65.3621 6.08361 61.5377 6.08361ZM61.053 17.5202C58.7368 17.5202 57.0396 15.7213 57.0396 13.3055C57.0396 10.8898 58.7632 9.06446 61.0794 9.06446C63.423 9.06446 65.0654 10.8633 65.0654 13.3055C65.0664 15.7213 63.3691 17.5202 61.053 17.5202ZM46.1864 6.08361C44.0856 6.08361 42.7116 6.9424 41.9036 8.15079V6.35192H38.6982V20.2307H41.93V12.6876C41.93 10.5666 43.2767 9.06344 45.2696 9.06344C47.1285 9.06344 48.2861 10.3785 48.2861 12.2852V20.2317H51.5179V12.0443C51.5189 8.55427 49.714 6.08361 46.1864 6.08361ZM111.983 12.8492C111.983 8.87644 109.075 6.08463 105.169 6.08463C101.021 6.08463 97.9776 9.19862 97.9776 13.3055C97.9776 17.6279 101.237 20.5 105.223 20.5C108.59 20.5 111.229 18.5131 111.902 15.6949H108.535C108.05 16.9297 106.865 17.6279 105.276 17.6279C103.201 17.6279 101.639 16.3392 101.29 14.084H111.982V12.8492H111.983ZM101.48 11.775C101.992 9.84194 103.446 8.90287 105.116 8.90287C106.948 8.90287 108.348 9.94966 108.671 11.775H101.48Z" fill="white"/>
</svg>
