<svg opacity="0.5" width="120" height="23" viewBox="0 0 120 23" fill="none" xmlns="http://www.w3.org/2000/svg">
<g clip-path="url(#clip0_2242_3828)">
<path d="M99.1562 6.15245H102.789C103.5 7.55555 104.216 8.96924 104.969 10.4549C105.708 8.99252 106.421 7.58201 107.147 6.14505H113.513C113.49 4.96733 113.418 3.82348 113.53 2.69338C113.927 2.58333 115.894 2.56111 116.564 2.65846C116.653 3.21293 116.59 3.78221 116.601 4.3462C116.612 4.91548 116.603 5.48582 116.603 6.11965C117.747 6.12177 118.861 6.12283 120 6.12494V8.82745H116.638C116.624 8.98934 116.604 9.10891 116.604 9.22742C116.602 10.8009 116.594 12.3743 116.608 13.9478C116.611 14.3002 116.662 14.6589 116.741 15.0038C116.866 15.5625 117.39 15.9816 117.986 15.9964C118.569 16.0101 119.152 15.9773 119.756 15.9646C119.764 15.9837 119.8 16.0313 119.801 16.0789C119.804 16.8471 119.803 17.6164 119.803 18.4375C119.601 18.5169 119.396 18.6396 119.178 18.6724C118.458 18.7825 117.74 18.8841 117.002 18.7349C116.637 18.6618 116.266 18.6259 115.912 18.4957C114.8 18.0862 114.061 17.3392 113.745 16.1784C113.57 15.5371 113.488 14.8864 113.48 14.2303C113.464 12.6569 113.475 11.0834 113.475 9.50995C113.475 9.29938 113.475 9.08986 113.475 8.86025H109.287C108.686 9.93744 108.08 11.0252 107.452 12.15C108.556 14.2335 109.663 16.3244 110.797 18.465H107.252C106.462 16.9826 105.753 15.4313 104.958 13.8314C104.182 15.4239 103.444 16.9392 102.715 18.4333C102.115 18.5264 99.6017 18.5116 99.1753 18.4068C99.3954 17.9719 99.6049 17.5413 99.8292 17.1191C100.24 16.3477 100.664 15.5837 101.076 14.8123C101.479 14.0568 101.863 13.2918 102.278 12.5426C102.436 12.2569 102.423 12.0199 102.265 11.7437C101.505 10.4125 100.756 9.07611 100.008 7.73861C99.7308 7.24234 99.4695 6.73761 99.1562 6.1514V6.15245Z" fill="white"/>
<path d="M20.4345 19.2149C20.5636 19.5895 20.6482 19.9175 20.789 20.2202C20.953 20.5725 20.8535 20.9154 20.716 21.2C20.3721 21.9079 19.7446 22.4126 18.8907 22.3354C18.4145 22.292 18.0251 22.0349 17.6886 21.6973C16.0728 20.0773 14.4528 18.4626 12.8402 16.8404C12.6032 16.6013 12.3725 16.3463 12.1841 16.0691C11.5323 15.1104 11.872 14.3252 12.7333 13.7496C13.4624 13.2629 14.1936 13.3877 14.8814 13.847C15.1745 14.0427 15.4369 14.2924 15.6908 14.5411C16.3797 15.2162 17.0569 15.905 17.7394 16.5876C17.8643 16.7114 17.9955 16.8288 18.1468 16.9717C19.0949 16.0183 20.0271 15.0818 20.9593 14.1454C21.4768 13.6258 22.0048 13.1179 22.5095 12.5867C22.7159 12.3698 22.8756 12.1084 23.0481 11.8619C23.4206 11.3317 23.1317 10.6619 22.7825 10.318C21.1318 8.69485 19.4885 7.06531 17.8526 5.42835C17.3426 4.91727 17.2791 4.04959 17.678 3.3946C18.2082 2.52375 19.0875 2.34069 20.0779 2.96499C20.3467 3.1343 20.5964 3.34698 20.8228 3.57131C22.446 5.18392 24.0586 6.80606 25.6776 8.42291C26.2596 9.00383 26.6871 9.69374 26.831 10.4926C26.9876 11.3593 26.9357 12.2248 26.4162 13.01C26.1485 13.4152 25.8511 13.7835 25.5083 14.1252C23.9253 15.7019 22.3476 17.2838 20.7678 18.8636C20.6557 18.9758 20.5498 19.0954 20.4345 19.2181V19.2149Z" fill="white"/>
<path d="M6.52681 3.7395C6.40406 3.53105 6.33105 3.41042 6.26227 3.28768C5.93636 2.70675 5.95117 1.9142 6.47813 1.35868C6.80827 1.01055 7.16593 0.73543 7.6495 0.671941C8.22407 0.596813 8.71611 0.81479 9.10762 1.20207C10.8493 2.92367 12.5805 4.65692 14.3021 6.39968C14.7507 6.85362 15.0703 7.38905 14.9697 8.07578C14.957 8.16361 14.956 8.25461 14.9295 8.3382C14.7613 8.86198 13.9761 9.42492 13.4206 9.48206C12.5466 9.572 11.9159 9.1244 11.3403 8.57205C10.5922 7.85463 9.87054 7.10864 9.13725 6.3764C9.02403 6.26318 8.90657 6.15525 8.76478 6.01981C8.6505 6.11398 8.53728 6.19334 8.44099 6.28963C7.06117 7.66522 5.68452 9.04504 4.30576 10.4217C3.94387 10.7836 3.71743 11.2153 3.61691 11.7158C3.74706 12.2967 4.02852 12.7718 4.55548 13.0829C4.64542 13.1358 4.71209 13.2289 4.78827 13.3041C6.16809 14.6807 7.53204 16.0722 8.93409 17.4256C9.50019 17.9716 9.48009 18.6265 9.34041 19.2604C9.21132 19.8445 8.73092 20.1989 8.13201 20.3492C7.72039 20.4529 7.35216 20.2963 7.01778 20.1175C6.67812 19.9355 6.3575 19.691 6.08238 19.4191C4.49305 17.8488 2.91324 16.2679 1.34189 14.6786C0.760973 14.0903 0.308087 13.4046 0.116563 12.5909C-0.128927 11.5476 -0.0030076 10.555 0.650926 9.66617C1.04138 9.13604 1.48369 8.66305 1.97149 8.21334C2.80848 7.44089 3.57141 6.58909 4.37665 5.78067C4.94065 5.21456 5.52157 4.66644 6.09826 4.11303C6.22735 3.98923 6.36914 3.88024 6.52998 3.74268L6.52681 3.7395Z" fill="white"/>
<path d="M97.93 13.4462H89.8986C89.9685 13.9773 90.0309 14.4556 90.2193 14.9212C90.5642 15.7741 91.2245 16.1973 92.089 16.3074C92.616 16.374 93.1493 16.3539 93.6709 16.1561C94.3958 15.881 94.8688 15.4143 95.0137 14.6397C95.0232 14.59 95.0539 14.5435 95.0963 14.4461C96.0168 14.3615 96.9544 14.4249 97.9247 14.4059C97.9458 14.6503 98.0093 14.827 97.9734 15.0524C97.7003 16.7666 96.6517 17.7973 95.0867 18.3782C94.1397 18.7295 93.1482 18.8617 92.1472 18.7951C91.0742 18.7242 90.0489 18.4692 89.123 17.8629C88.0469 17.1581 87.4385 16.1455 87.0702 14.9593C86.7115 13.8017 86.6872 12.6039 86.7591 11.4124C86.8353 10.1543 87.1506 8.95433 87.9019 7.90783C88.4564 7.13433 89.1823 6.58515 90.0648 6.22432C91.0478 5.82223 92.0742 5.72805 93.1101 5.82328C94.3026 5.93333 95.3978 6.31744 96.2814 7.18406C96.9755 7.86445 97.4072 8.69721 97.6866 9.60827C98.0644 10.8399 97.9236 12.1097 97.9321 13.4462H97.93ZM89.868 11.1151C90.6245 11.204 94.3852 11.1817 94.7788 11.0918C94.8444 10.549 94.7164 10.0315 94.4963 9.54584C94.2392 8.97656 93.836 8.51944 93.2011 8.36918C92.8773 8.29299 92.5324 8.30675 92.1969 8.28453C91.1716 8.21892 90.397 8.97338 90.1759 9.78498C90.0605 10.2104 89.9759 10.6442 89.869 11.1151H89.868Z" fill="white"/>
<path d="M47.904 12.2571C47.8511 11.1788 47.9474 10.1196 48.3368 9.1038C49.0341 7.27956 50.3504 6.20554 52.2826 5.91561C52.7736 5.84154 53.2751 5.80874 53.7714 5.81403C54.8581 5.82461 55.894 6.06904 56.8104 6.67641C57.8833 7.38643 58.5405 8.40331 58.8558 9.63922C59.1309 10.7154 59.2473 11.8158 59.1626 12.9205C59.0812 13.9808 58.9394 15.0347 58.4442 16.0135C57.7849 17.3171 56.7712 18.1806 55.3692 18.5552C53.8476 18.9615 52.3355 18.9213 50.8774 18.2747C50.0107 17.8896 49.3155 17.3012 48.8235 16.4695C48.1992 15.4146 47.9156 14.2771 47.904 13.0623C47.9008 12.7946 47.904 12.5258 47.904 12.2581V12.2571ZM56.0051 12.31C55.9522 11.7259 55.9469 11.1513 55.839 10.5958C55.5734 9.22866 54.7449 8.42447 53.3132 8.52499C52.4995 8.58213 51.8625 8.93979 51.4826 9.70906C51.2086 10.2635 51.07 10.8519 51.0424 11.4529C51.0065 12.2518 50.9821 13.057 51.1366 13.8528C51.3154 14.7744 51.7006 15.5363 52.6402 15.9045C53.0413 16.0622 53.4508 16.004 53.8571 16.0018C54.3005 15.9997 54.6814 15.8294 55.0115 15.5204C55.4739 15.0876 55.7459 14.5543 55.8411 13.9427C55.9258 13.3999 55.9522 12.8475 56.0041 12.31H56.0051Z" fill="white"/>
<path d="M77.3662 18.4714H74.2859C74.1283 18.2968 74.196 18.0905 74.1949 17.9021C74.1897 15.2927 74.2034 12.6844 74.1865 10.075C74.1791 8.98831 74.1166 7.90265 74.0701 6.81699C74.0616 6.61171 74.014 6.40855 73.9844 6.20856C74.414 6.1038 76.1398 6.08476 76.7969 6.17576C76.8805 6.59373 76.9673 7.03497 77.0551 7.47516C77.4625 7.14714 77.8276 6.82229 78.2222 6.53976C78.8307 6.10486 79.547 5.9218 80.2687 5.8308C81.0115 5.73769 81.766 5.76837 82.4855 6.0382C83.7331 6.50696 84.4166 7.45717 84.7013 8.71319C84.7986 9.1428 84.8219 9.59568 84.824 10.038C84.8357 12.7363 84.8314 15.4345 84.8304 18.1328C84.8304 18.2206 84.8187 18.3095 84.8124 18.3931C84.4537 18.5116 82.585 18.5455 81.7226 18.4439C81.7152 18.2651 81.7014 18.0767 81.7004 17.8873C81.6993 15.4388 81.7004 12.9913 81.6972 10.5427C81.6972 10.33 81.6961 10.111 81.6485 9.90572C81.3924 8.80313 80.5555 8.43384 79.5534 8.52801C78.8868 8.5915 78.2857 8.84969 77.7979 9.34384C77.5302 9.61367 77.399 9.89937 77.4011 10.2909C77.4149 12.7923 77.4096 15.2938 77.4064 17.7963C77.4064 18.0048 77.38 18.2122 77.363 18.4693L77.3662 18.4714Z" fill="white"/>
<path d="M61.015 6.1667C61.1145 6.14765 61.1811 6.12437 61.2478 6.12437C62.0679 6.12225 62.889 6.12225 63.7599 6.12225C63.8509 6.58784 63.9376 7.03332 64.0297 7.50313C64.3863 7.19627 64.7048 6.89047 65.055 6.62805C65.7767 6.08628 66.6242 5.87888 67.5036 5.81433C68.367 5.75084 69.2209 5.82703 69.9849 6.28521C70.642 6.6799 71.1383 7.22484 71.4272 7.94967C71.7287 8.70518 71.8324 9.49456 71.8335 10.2988C71.8388 12.8002 71.8356 15.3027 71.8356 17.8042C71.8356 17.9999 71.8356 18.1946 71.8356 18.3798C71.4653 18.5131 69.6326 18.5491 68.7363 18.4422C68.7289 18.2634 68.7141 18.074 68.7141 17.8846C68.713 15.544 68.7194 13.2023 68.7067 10.8617C68.7046 10.4744 68.6644 10.0744 68.5596 9.70407C68.3448 8.94644 67.7734 8.56868 67.0158 8.52742C66.0402 8.47345 65.1968 8.78772 64.5757 9.58239C64.5429 9.62471 64.5027 9.66069 64.4688 9.70196C64.4349 9.74322 64.4032 9.78661 64.3365 9.87444V18.3851C63.9556 18.511 62.0509 18.5438 61.2277 18.4412C61.2203 18.2624 61.2065 18.0719 61.2065 17.8825C61.2055 15.2551 61.2203 12.6277 61.197 10.0014C61.1896 9.16971 61.0679 8.33907 61.0203 7.50631C60.9949 7.06612 61.0161 6.62381 61.0161 6.16564L61.015 6.1667Z" fill="white"/>
<path d="M43.4572 13.9061C44.4127 13.8341 45.3502 13.8807 46.2782 13.8733C46.3321 13.9802 46.3903 14.0426 46.3903 14.104C46.3872 15.0404 46.2623 15.9462 45.7332 16.7536C45.092 17.7313 44.1661 18.3016 43.0582 18.5778C41.6626 18.927 40.2721 18.9037 38.9114 18.3926C37.6934 17.9355 36.8448 17.0858 36.3327 15.9017C35.9761 15.0785 35.7697 14.2182 35.7655 13.3114C35.7634 12.868 35.6671 12.4226 35.6914 11.9824C35.7613 10.719 35.8819 9.46293 36.5115 8.31802C37.157 7.14348 38.1231 6.37632 39.4055 6.02925C40.6309 5.69805 41.8742 5.69911 43.0995 6.02925C44.8698 6.50436 46.1099 7.76144 46.3131 9.66398C46.3523 10.0322 46.3925 10.4005 46.4316 10.7549C46.0443 10.901 44.2603 10.938 43.4466 10.8311C43.4 10.6375 43.327 10.4354 43.3048 10.229C43.1577 8.85767 41.9535 8.36246 40.8055 8.56668C39.7674 8.75186 39.2775 9.47351 39.0331 10.4089C38.9442 10.7496 38.9167 11.1115 38.905 11.4649C38.886 12.0723 38.887 12.6808 38.905 13.2881C38.9241 13.9177 39.0775 14.5177 39.3949 15.0711C39.5695 15.3748 39.8044 15.6086 40.1187 15.7631C40.8139 16.1039 41.5366 16.1113 42.2488 15.8668C42.7842 15.6838 43.126 15.2722 43.2752 14.7198C43.3439 14.4648 43.3905 14.2045 43.4561 13.905L43.4572 13.9061Z" fill="white"/>
</g>
<defs>
<clipPath id="clip0_2242_3828">
<rect width="120" height="21.6867" fill="white" transform="translate(0 0.65625)"/>
</clipPath>
</defs>
</svg>
