<svg opacity="0.5" width="120" height="23" viewBox="0 0 120 23" fill="none" xmlns="http://www.w3.org/2000/svg">
<g clip-path="url(#clip0_2242_3795)">
<path d="M28.8125 13.0109C28.8125 16.6976 31.3931 19.739 36.0752 19.739C38.324 19.739 40.1858 19.1676 41.5314 18.3381V15.3704C41.5314 14.4672 41.5867 14.0985 42.6743 14.0063V13.0294H36.9415V14.0063C38.2503 14.0616 38.7111 14.2828 38.7111 15.3704V17.7851C38.1581 18.246 37.4945 18.4487 36.407 18.4487C33.2918 18.4487 31.8908 15.6653 31.8908 12.3658C31.8908 9.52706 32.9968 7.00172 35.9646 7.00172C38.0475 7.00172 39.2088 8.03398 39.9093 10.1538H41.1812L41.1074 7.11232C40.0936 6.37499 38.4899 5.76669 36.2226 5.76669C32.0936 5.74826 28.8125 8.55011 28.8125 13.0109Z" fill="white"/>
<path d="M49.3791 18.5779C47.7016 18.5779 46.8353 16.8636 46.8353 14.3751C46.8353 12.4765 47.4067 11.1309 48.8445 11.1309C50.5035 11.1309 51.3699 12.8452 51.3699 15.3337C51.3699 17.2323 50.8353 18.5779 49.3791 18.5779ZM48.9367 19.7392C51.8675 19.7392 54.1533 17.7853 54.1533 14.6701C54.1533 11.9788 52.2178 9.95117 49.2869 9.95117C46.356 9.95117 44.0703 11.9051 44.0703 15.0203C44.0703 17.73 45.9874 19.7392 48.9367 19.7392Z" fill="white"/>
<path d="M58.9122 6.92839L59.0044 5.39844H58.3592L55.1703 6.19107V6.70719L56.3132 7.44452V17.6565C56.3132 18.4676 55.8892 18.5413 55.0781 18.6519V19.5551H60.1657V18.6519C59.3546 18.5413 58.9122 18.4676 58.9122 17.6565V6.92839Z" fill="white"/>
<path d="M66.4722 11.0943C67.6335 11.0943 68.4446 11.7579 68.4446 13.0298V17.2694C67.9284 17.7302 67.3017 17.9883 66.5275 17.9883C64.7764 17.9883 63.9284 16.4952 63.9284 14.5229C63.9284 12.403 64.887 11.0943 66.4722 11.0943ZM72.334 19.1496V18.2095L71.8916 18.1911C71.228 18.1542 71.0436 17.9146 71.0436 17.3247V6.92839L71.1358 5.39844H70.4906L67.3017 6.19107V6.70719L68.4446 7.44452V10.5413C67.8916 10.1726 67.1542 9.95144 66.251 9.95144C63.486 9.95144 61.2188 11.9975 61.2188 15.2786C61.2188 17.9146 62.7303 19.7395 65.3109 19.7395C66.6934 19.7395 67.7625 19.0574 68.4446 18.0805L68.3524 19.7395H68.8685L72.334 19.1496Z" fill="white"/>
<path d="M84.0928 10.1173H77.5306V9.19567C77.5306 7.35236 78.0099 6.41226 79.2818 6.41226C80.1297 6.41226 80.4984 6.92839 80.4984 7.79475V8.49521H82.4523C82.9131 8.27402 83.1159 7.79475 83.1159 7.29706C83.1159 6.17263 82.0836 5.39844 79.7795 5.39844C76.7749 5.39844 74.9316 6.98369 74.9316 9.61963V9.84083L73.5859 10.4676V11.2602H74.9316V17.6565C74.9316 18.4676 74.5076 18.5413 73.6965 18.6519V19.5551H78.9131V18.6519C77.9177 18.5229 77.5306 18.4676 77.5306 17.6196V11.2602H81.3832V17.6565C81.3832 18.4676 80.9592 18.5413 80.1481 18.6519V19.5551H85.2357V18.6519C84.4246 18.5413 84.0007 18.4676 84.0007 17.6565V11.8132L84.0928 10.1173Z" fill="white"/>
<path d="M94.1788 17.6569C94.1788 18.4679 93.7549 18.5416 92.9438 18.6522V19.5555H98.0314V18.6522C97.2203 18.5416 96.7779 18.4679 96.7779 17.6569V12.8089C96.7779 10.8181 95.5613 9.93335 93.8286 9.93335C92.3724 9.93335 91.1005 10.7997 90.3263 11.6476L90.4185 9.89648H89.7733L86.5844 10.7997V11.3158L87.7272 12.1453V17.6384C87.7272 18.4495 87.3032 18.5232 86.4922 18.6338V19.537H91.5797V18.6338C90.7687 18.5232 90.3263 18.4495 90.3263 17.6384V12.4218C90.9346 12.0347 91.8562 11.7029 92.6857 11.7029C93.6811 11.7029 94.1788 12.09 94.1788 13.1223V17.6569Z" fill="white"/>
<path d="M101.251 14.1725C101.251 12.2001 102.228 11.0941 103.629 11.0941C104.771 11.0941 105.122 11.813 105.122 12.8822V13.6195H106.818C107.26 13.4536 107.555 13.0112 107.555 12.3845C107.555 10.9098 106.08 9.96973 103.997 9.96973C101.048 9.96973 98.8359 12.0158 98.8359 15.1679C98.8359 17.7485 100.532 19.7762 103.444 19.7762C105.841 19.7762 107.186 18.5227 107.758 16.8084L107.094 16.4766C106.504 17.214 105.638 17.7854 104.366 17.7854C102.283 17.7485 101.251 16.366 101.251 14.1725Z" fill="white"/>
<path d="M109.712 7.4444V17.6564C109.712 18.4674 109.288 18.5412 108.477 18.6518V19.555H113.546V18.6518C112.735 18.5412 112.311 18.4674 112.311 17.6564V12.4398C112.901 12.0527 113.841 11.7209 114.652 11.7209C115.647 11.7209 116.163 12.108 116.163 13.1403V17.6564C116.163 18.4674 115.739 18.5412 114.928 18.6518V19.555H119.997V18.6518C119.186 18.5412 118.762 18.4674 118.762 17.6564V12.8085C118.762 10.8177 117.527 9.93288 115.795 9.93288C114.357 9.93288 113.085 10.7992 112.311 11.6472V6.90984L112.403 5.37988H111.758L108.569 6.17251V6.68864L109.712 7.4444Z" fill="white"/>
<path d="M16.5322 5.69371C16.1267 6.1361 15.205 6.1361 14.7995 5.73057C14.394 5.32504 14.2649 4.56928 14.7995 4.07159C15.3341 3.59233 16.1267 3.75822 16.5322 4.10845C16.9377 4.47712 16.9377 5.25131 16.5322 5.69371Z" fill="white"/>
<path d="M12.3485 2.54176C11.9061 3.07632 11.7402 3.37125 11.4084 4.21918C10.9845 5.30674 10.5974 6.52333 10.4499 7.26065C10.3025 7.99798 10.5974 8.64314 11.3163 9.08554C12.072 9.54637 12.8647 9.91503 13.9522 10.3206C15.0398 10.7261 15.814 11.2975 16.072 11.8874C16.3301 12.4772 16.2564 13.6201 15.7034 14.7077C15.1504 15.7952 14.3578 16.809 12.9937 17.8044C11.6296 18.7998 10.6896 19.0395 9.34393 19.3528C7.99831 19.6662 8.4407 20.4219 8.90153 20.5878C9.36236 20.7353 10.3946 20.9012 11.7587 20.8275C13.1227 20.7722 14.4868 20.4219 16.1089 19.6109C17.731 18.7998 19.3163 17.3989 20.1642 15.5371C21.0121 13.6754 21.3439 11.0395 20.367 9.38047C19.7955 8.42194 19.5006 8.18231 19.3163 7.57402C19.1319 6.96572 19.2425 6.50489 19.5928 6.08093C19.7955 5.8413 20.2379 5.60167 20.6435 5.30674C20.9753 5.0671 21.3624 4.84591 21.6389 4.66157C21.9154 4.47724 22.0075 4.38508 21.8232 4.25605C21.6389 4.12702 21.2702 3.88738 20.6066 3.64775C19.943 3.40812 19.8324 3.37125 19.5743 3.35282C19.3347 3.33439 19.0213 3.55558 18.5237 3.92425C18.026 4.29291 17.8048 4.36665 17.7679 4.79061C17.731 5.21457 17.6204 5.74913 17.2702 6.22839C16.92 6.68922 16.4776 6.92886 15.8508 6.98416C15.2425 7.03946 14.4131 6.85513 13.9891 6.37586C13.5836 5.8966 13.4177 5.6201 13.4177 4.95651C13.4177 4.27448 13.6757 3.79521 14.026 3.46342C14.3762 3.11319 14.3578 3.00259 14.3578 2.83669C14.3578 2.68923 14.284 2.15466 14.2103 1.91503C14.1366 1.6754 13.8969 1.63853 13.4914 1.76757C13.1227 1.85973 12.7909 2.0072 12.3485 2.54176Z" fill="white"/>
<path d="M6.17317 15.4997C5.97041 15.555 5.82294 15.8868 5.43585 16.5873C5.04875 17.2693 4.66165 17.767 3.96119 18.5412C3.26073 19.2969 2.7999 19.6287 1.67548 20.3108L1.63861 20.3292C0.53262 20.9928 0.219255 21.1956 0.127089 21.3983C0.053356 21.6011 0.0902229 21.8776 0.919716 22.0066C1.74921 22.1356 2.43124 22.1541 3.62939 21.343C4.82755 20.532 5.76764 19.7393 7.00267 19.1495C8.23769 18.578 8.62478 18.6149 10.0257 18.2094C11.4082 17.8038 12.6801 17.0112 13.5464 16.0527C14.4128 15.0942 14.8552 14.1172 15.0395 13.5642C15.2239 13.0112 15.2423 12.2739 14.763 11.9052C14.3022 11.555 14.0626 11.4444 13.0672 11.0757C11.9981 10.6886 11.6478 10.578 10.8736 9.96975C10.1363 9.39832 10.1732 9.25085 9.71234 9.19555C9.25151 9.14025 8.90128 9.82228 8.73538 10.1541C8.62479 10.4121 8.60635 10.873 8.90128 11.2969C9.19621 11.7209 9.50958 12.2002 10.3575 12.6794C11.2054 13.1587 11.611 13.2324 12.1824 13.3246C12.7723 13.4168 12.9935 13.5642 12.8276 13.8223C12.6801 14.0988 12.3667 14.2278 11.8322 14.2278C11.2976 14.2278 10.5603 13.9882 9.80451 13.5458C9.26995 13.2324 8.90128 12.9006 8.62479 12.5504C8.34829 12.2186 8.20082 12.1633 7.94276 12.1633C7.70313 12.1633 7.48193 12.3108 7.187 12.7532C6.89207 13.1956 6.67087 13.6564 6.634 13.9144C6.59714 14.1725 6.5787 14.449 7.03953 14.7992C7.50036 15.1495 7.90589 15.3338 8.44045 15.426C8.97502 15.5181 9.38055 15.684 8.99345 16.0343C8.60635 16.3845 8.12709 16.3108 7.75843 16.2186C7.38976 16.1264 6.83677 15.8315 6.634 15.7025C6.5234 15.555 6.37594 15.4628 6.17317 15.4997Z" fill="white"/>
<path d="M17.9522 3.2049C18.2287 3.039 18.5421 2.79937 18.5421 2.65191C18.5421 2.50444 18.3762 2.30168 17.7126 1.89615C17.049 1.49062 16.1274 1.01135 15.5191 0.937621C14.9108 0.863888 15.1688 1.82241 15.2426 2.19108C15.3163 2.55974 15.3347 2.85467 15.5928 2.89154C15.8509 2.92841 16.0352 2.94684 16.2564 3.02057C16.4776 3.07587 16.7541 3.2049 17.0674 3.38923C17.3808 3.55513 17.6573 3.3708 17.9522 3.2049Z" fill="white"/>
</g>
<defs>
<clipPath id="clip0_2242_3795">
<rect width="120" height="21.3825" fill="white" transform="translate(0 0.808594)"/>
</clipPath>
</defs>
</svg>
