<svg opacity="0.5" width="60" height="21" viewBox="0 0 60 21" fill="none" xmlns="http://www.w3.org/2000/svg">
<g clip-path="url(#clip0_2242_3853)">
<path d="M39.5169 6.09375H36.6006C36.3074 6.09375 36.0703 6.33074 36.0703 6.62398V19.8796C36.0703 20.1729 36.3074 20.4098 36.6006 20.4098H39.5169C39.8101 20.4098 40.047 20.1729 40.047 19.8796V6.62398C40.047 6.33074 39.8101 6.09375 39.5169 6.09375Z" fill="white"/>
<path d="M47.2031 9.50808V19.8796C47.2031 20.1729 47.4402 20.4098 47.7334 20.4098H50.6495C50.9427 20.4098 51.1798 20.1729 51.1798 19.8796V10.9742C51.1798 10.4741 51.5835 10.0704 52.0837 10.0704H54.2488C54.7488 10.0704 55.1524 10.4741 55.1524 10.9742V19.8796C55.1524 20.1729 55.3895 20.4098 55.6827 20.4098H58.5989C58.8923 20.4098 59.1291 20.1729 59.1291 19.8796V9.50808C59.1291 7.62216 57.6008 6.09375 55.7148 6.09375H50.6175C48.7315 6.09375 47.2031 7.62216 47.2031 9.50808Z" fill="white"/>
<path d="M38.0544 0.5C36.8472 0.5 35.8672 1.48011 35.8672 2.68718C35.8672 3.89423 36.8472 4.87435 38.0544 4.87435C39.2614 4.87435 40.2416 3.89423 40.2416 2.68718C40.2416 1.48011 39.2635 0.5 38.0544 0.5Z" fill="white"/>
<path d="M45.0792 1.32129H42.1629C41.8697 1.32129 41.6328 1.55828 41.6328 1.85151V19.8791C41.6328 20.1723 41.8697 20.4094 42.1629 20.4094H45.0792C45.3724 20.4094 45.6095 20.1723 45.6095 19.8791V1.85151C45.6095 1.55828 45.3724 1.32129 45.0792 1.32129Z" fill="white"/>
<path d="M35.1855 19.584L31.1505 13.5326C31.036 13.3619 31.0321 13.139 31.1385 12.9622L34.8401 6.89881C35.057 6.54533 34.8018 6.09143 34.3882 6.09143H31.2529C31.0682 6.09143 30.8975 6.18782 30.801 6.34448L28.397 10.281C28.2946 10.4477 28.1138 10.5642 27.903 10.5642C27.5816 10.5642 27.3204 10.3031 27.3204 9.98174V2.45015C27.3204 2.15692 27.0836 1.91992 26.7902 1.91992H23.874C23.5808 1.91992 23.3438 2.15692 23.3438 2.45015V19.8793C23.3438 20.1724 23.5808 20.4095 23.874 20.4095H26.7902C27.0836 20.4095 27.3204 20.1724 27.3204 19.8793V16.2781C27.3204 15.9568 27.5816 15.6957 27.903 15.6957C28.1038 15.6957 28.2785 15.7961 28.3849 15.9508L31.2008 20.1746C31.2991 20.3212 31.4639 20.4114 31.6426 20.4114H34.7457C35.1694 20.4114 35.4224 19.9396 35.1874 19.5881" fill="white"/>
<path d="M9.70353 7.08359C9.80997 6.97512 9.95658 6.90885 10.1193 6.90885C10.282 6.90885 10.4266 6.97312 10.531 7.07957L13.1138 9.66241C13.3227 9.87128 13.6621 9.87128 13.871 9.66241L15.9256 7.60778C16.1345 7.39891 16.1345 7.05949 15.9256 6.85062L11.6216 2.54052C10.7941 1.71306 9.45046 1.71306 8.62298 2.54052L4.31291 6.85062C4.10403 7.05949 4.10403 7.39891 4.31291 7.60778L6.36753 9.66241C6.5764 9.87128 6.91582 9.87128 7.12471 9.66241L9.70353 7.08359Z" fill="#71717A"/>
<path d="M18.742 9.6648L17.8081 8.73087C17.5992 8.522 17.2597 8.522 17.0509 8.73087L10.5295 15.2522C10.4251 15.3567 10.2785 15.4229 10.1178 15.4229C9.9571 15.4229 9.8125 15.3587 9.70605 15.2542L3.18669 8.73087C2.97782 8.522 2.6384 8.522 2.42952 8.73087L1.4956 9.6648C0.668132 10.4923 0.668132 11.8359 1.4956 12.6634L8.61949 19.7873C9.44696 20.6148 10.7906 20.6148 11.6181 19.7873L18.742 12.6634C19.5694 11.8359 19.5694 10.4923 18.742 9.6648Z" fill="white"/>
</g>
<defs>
<clipPath id="clip0_2242_3853">
<rect width="58.2524" height="20" fill="white" transform="translate(0.875 0.5)"/>
</clipPath>
</defs>
</svg>
