<svg opacity="0.5" width="76" height="31" viewBox="0 0 76 31" fill="none" xmlns="http://www.w3.org/2000/svg">
<g clip-path="url(#clip0_2242_3999)">
<path d="M0.431929 26.7109C0.431929 27.6527 0.431929 28.5945 0.431929 29.5379C0.431929 30.3789 0.739586 30.6301 1.57368 30.4421C3.0248 30.1139 4.4742 29.7721 5.92361 29.4371C8.484 28.844 11.0444 28.256 13.6031 27.6544C14.3534 27.4783 14.5243 27.075 14.1859 26.3742C13.4988 24.9521 12.8117 23.5301 12.1195 22.1097C11.6375 21.1218 11.9486 20.4826 13.0305 20.221C15.5858 19.6074 18.1393 18.9904 20.6929 18.3717C21.6261 18.1461 22.0004 17.6777 22.0038 16.7326C22.0072 15.0302 22.009 13.3295 22.009 11.6272C22.009 10.6717 21.7047 10.4341 20.7612 10.6563C19.2247 11.0204 17.6881 11.3913 16.1515 11.7571C13.9654 12.2784 11.7776 12.7997 9.58986 13.3159C9.17965 13.4133 8.80704 13.5432 8.60023 13.9602C8.37974 14.4029 8.55237 14.7858 8.73868 15.1738C9.37963 16.5001 10.0274 17.8247 10.6564 19.1562C11.0205 19.9254 10.7111 20.5868 9.90094 20.8278C9.74027 20.8757 9.5779 20.9167 9.41552 20.9543C6.66199 21.5884 3.91017 22.2208 1.15663 22.8584C0.606268 22.9848 0.437057 23.2122 0.435347 23.7916C0.431929 24.7641 0.435347 25.7367 0.433638 26.7092L0.431929 26.7109ZM21.9526 4.25022C21.9526 3.29306 21.9577 2.33591 21.9508 1.37875C21.9457 0.672849 21.6381 0.418177 20.9407 0.522439C20.8211 0.54124 20.7031 0.570297 20.5852 0.599353C15.2986 1.86758 10.012 3.13411 4.72546 4.40234C3.94777 4.58864 3.76146 4.98005 4.11185 5.70475C4.81263 7.15416 5.51853 8.60015 6.22614 10.0444C6.68079 10.9725 6.43295 11.5109 5.42623 11.7485C4.11185 12.0579 2.79405 12.3621 1.47967 12.6749C0.833593 12.8287 0.435347 13.2424 0.43022 13.8218C0.418255 15.6301 0.419964 17.4367 0.43022 19.2451C0.433638 19.7373 0.784026 20.1578 1.26944 20.2467C1.53095 20.2945 1.8181 20.2826 2.0779 20.2279C3.31023 19.963 4.53915 19.6792 5.76465 19.3887C6.55944 19.1989 6.90982 18.7477 6.91495 17.9222C6.92692 16.3275 6.9235 14.7311 6.94059 13.1364C6.95255 11.9946 7.39866 11.4391 8.50793 11.1725C12.7006 10.1658 16.895 9.16248 21.0894 8.15918C21.7372 8.00364 21.9457 7.74897 21.9474 7.07383C21.9508 6.13206 21.9474 5.19028 21.9474 4.24851L21.9526 4.25022ZM58.427 15.4541H58.4236C58.4236 17.7923 58.4322 20.1322 58.4168 22.4704C58.4134 22.8891 58.5484 23.0327 58.9688 23.0173C59.7722 22.99 60.5789 22.99 61.3822 23.0173C61.7907 23.031 61.9001 22.8806 61.895 22.4892C61.8779 20.8945 61.907 19.2998 61.8796 17.7051C61.8711 17.2504 62.0181 17.1359 62.4471 17.1393C64.4657 17.1581 66.4859 17.1496 68.5062 17.1513C69.1062 17.1513 69.1301 17.1274 69.1318 16.5445C69.1318 16.013 69.125 15.4814 69.1284 14.9499C69.1335 14.1875 69.1369 14.1858 68.3524 14.1858C66.3629 14.1858 64.3734 14.1807 62.3856 14.1944C62.0112 14.1978 61.8694 14.0782 61.8813 13.697C61.9036 12.9843 61.9121 12.2681 61.8813 11.5571C61.8625 11.1315 62.0112 11.0118 62.4283 11.0135C64.6759 11.0306 66.9235 11.0118 69.1694 11.0306C69.6138 11.0341 69.8035 10.9281 69.7727 10.4478C69.7334 9.82736 69.7608 9.2035 69.7608 8.57964C69.7608 8.17741 69.5597 7.97572 69.1574 7.97458C65.7715 7.97458 62.3856 7.97458 58.9996 7.97458C58.4373 7.97458 58.4305 7.98313 58.4305 8.57451C58.4305 10.8683 58.4305 13.1603 58.4305 15.4541H58.427ZM33.2812 15.4746H33.2778C33.2778 17.8128 33.2812 20.151 33.2743 22.4892C33.2743 22.8293 33.329 23.0207 33.7427 23.019C37.0978 23.0053 40.453 23.0071 43.8082 23.0173C44.1517 23.0173 44.2594 22.8891 44.2526 22.561C44.2355 21.8174 44.2235 21.0722 44.2526 20.3287C44.268 19.9066 44.1261 19.7784 43.7056 19.7818C41.5948 19.7989 39.4856 19.7886 37.3747 19.7886C36.9508 19.7886 36.7389 19.5784 36.7389 19.1579C36.7389 15.6352 36.7389 12.1126 36.7389 8.5899C36.7389 8.18083 36.5412 7.97572 36.1458 7.97458C35.3869 7.97458 34.628 7.97458 33.8691 7.97458C33.4772 7.97458 33.2812 8.16658 33.2812 8.55058C33.2812 10.858 33.2812 13.1672 33.2812 15.4746ZM75.567 15.5207C75.567 13.1825 75.5567 10.8426 75.5755 8.50444C75.5789 8.07713 75.4439 7.95407 75.0303 7.96774C74.1962 7.99509 73.3604 7.98142 72.5246 7.97287C72.2186 7.96945 72.0768 8.07713 72.0921 8.39846C72.1092 8.74714 72.099 9.09753 72.099 9.44621C72.099 13.7739 72.1058 18.1033 72.0887 22.4311C72.087 22.8977 72.2306 23.0395 72.6869 23.019C73.4595 22.9865 74.2372 22.9883 75.0098 23.019C75.4559 23.0378 75.5772 22.8789 75.5738 22.4447C75.555 20.1356 75.5653 17.8282 75.5653 15.519L75.567 15.5207ZM49.9716 15.4712C49.9716 13.1483 49.9647 10.8255 49.9784 8.50102C49.9801 8.11132 49.8656 7.95749 49.4605 7.96774C48.6264 7.99167 47.7906 7.98142 46.9565 7.96774C46.6403 7.96262 46.4882 8.04979 46.4899 8.40359C46.4985 13.1261 46.5002 17.8487 46.4934 22.5695C46.4934 22.9165 46.6301 23.0156 46.9548 23.0088C47.7735 22.9934 48.5957 22.9814 49.4144 23.0122C49.8605 23.0293 49.9853 22.8703 49.9835 22.4379C49.9665 20.1151 49.975 17.7923 49.9767 15.4677L49.9716 15.4712ZM54.1677 23.0088C54.5933 23.0071 55.0189 22.9985 55.4428 23.0088C55.7248 23.0156 55.8598 22.9216 55.8564 22.6174C55.8444 21.7816 55.8478 20.9475 55.8564 20.1117C55.8598 19.7955 55.7248 19.6809 55.4171 19.6844C54.5967 19.6946 53.778 19.6929 52.9576 19.6844C52.6704 19.6809 52.5388 19.7989 52.5405 20.0877C52.5439 20.9235 52.5474 21.7576 52.5371 22.5934C52.5337 22.9165 52.6807 23.0207 52.9815 23.0105C53.3763 22.9968 53.7711 23.0071 54.166 23.0071L54.1677 23.0088Z" fill="white"/>
<path d="M0.433106 26.7111C0.433106 25.7385 0.431397 24.766 0.433106 23.7935C0.434815 23.2123 0.604027 22.9867 1.15439 22.8602C3.90621 22.2227 6.65975 21.5903 9.41328 20.9562C9.57565 20.9186 9.73803 20.8775 9.89869 20.8297C10.7089 20.5887 11.0182 19.9255 10.6542 19.1581C10.0235 17.8266 9.37568 16.502 8.73643 15.1756C8.54842 14.7876 8.3775 14.4048 8.59799 13.9621C8.8048 13.5468 9.17741 13.4152 9.58762 13.3177C11.7754 12.8015 13.9615 12.2802 16.1493 11.7589C17.6858 11.3932 19.2207 11.0206 20.759 10.6582C21.7025 10.4343 22.0067 10.6719 22.0067 11.629C22.0067 13.3314 22.0067 15.0321 22.0016 16.7344C21.9999 17.6796 21.6256 18.1462 20.6906 18.3736C18.1371 18.9923 15.5835 19.6093 13.0283 20.2229C11.9446 20.4827 11.6353 21.1237 12.1172 22.1116C12.8095 23.5319 13.4966 24.954 14.1837 26.3761C14.5221 27.0768 14.3529 27.4785 13.6008 27.6563C11.0439 28.2579 8.48176 28.8459 5.92137 29.439C4.47196 29.7757 3.02255 30.1158 1.57144 30.444C0.737345 30.632 0.431397 30.3824 0.429688 29.5398C0.429688 28.598 0.429688 27.6563 0.429688 26.7128L0.433106 26.7111Z" fill="white"/>
<path d="M21.9487 4.25022C21.9487 5.19199 21.9504 6.13377 21.9487 7.07554C21.947 7.75067 21.7385 8.00535 21.0907 8.16088C16.8963 9.16419 12.7019 10.1658 8.50921 11.1742C7.39994 11.4409 6.95383 11.9963 6.94187 13.1381C6.92478 14.7328 6.9282 16.3275 6.91623 17.9239C6.90939 18.7477 6.56072 19.2007 5.76594 19.3904C4.54043 19.6826 3.31151 19.9647 2.07918 20.2296C1.81938 20.286 1.53052 20.2963 1.27072 20.2484C0.785306 20.1612 0.434918 19.7408 0.4315 19.2468C0.419535 17.4385 0.417826 15.6318 0.4315 13.8235C0.434918 13.2458 0.833164 12.8304 1.48095 12.6766C2.79533 12.3638 4.11313 12.0613 5.42751 11.7502C6.43253 11.5126 6.68207 10.9742 6.22742 10.0461C5.51981 8.60015 4.81391 7.15416 4.11313 5.70646C3.76274 4.98176 3.94905 4.59035 4.72674 4.40405C10.0082 3.13411 15.2948 1.86758 20.5813 0.599353C20.6993 0.570297 20.8172 0.54124 20.9369 0.522439C21.6325 0.418177 21.9402 0.672849 21.947 1.37875C21.9538 2.33591 21.9487 3.29306 21.9487 4.25022Z" fill="white"/>
<path d="M58.4278 15.4521C58.4278 13.1584 58.4278 10.8663 58.4278 8.57259C58.4278 7.9812 58.4346 7.97266 58.9969 7.97266C62.3829 7.97266 65.7688 7.97266 69.1547 7.97266C69.5558 7.97266 69.7569 8.17434 69.7581 8.57771C69.7581 9.19987 69.7307 9.82544 69.7701 10.4459C69.8008 10.9262 69.6111 11.0321 69.1667 11.0287C66.9191 11.0099 64.6715 11.0287 62.4256 11.0116C62.0085 11.0082 61.8598 11.1296 61.8786 11.5552C61.9094 12.2679 61.9009 12.9823 61.8786 13.6951C61.8667 14.0762 62.0085 14.1959 62.3829 14.1925C64.3724 14.1788 66.3619 14.1839 68.3497 14.1839C69.1325 14.1839 69.1308 14.1856 69.1257 14.9479C69.1223 15.4795 69.1291 16.0111 69.1291 16.5426C69.1291 17.1255 69.1035 17.1494 68.5035 17.1494C66.4832 17.1494 64.4647 17.1562 62.4444 17.1374C62.0154 17.134 61.8684 17.2485 61.8769 17.7032C61.906 19.2979 61.8769 20.8926 61.8923 22.4872C61.8974 22.8786 61.7863 23.0291 61.3796 23.0154C60.5762 22.9897 59.7695 22.9897 58.9662 23.0154C58.5457 23.0291 58.4124 22.8872 58.4141 22.4684C58.4295 20.1302 58.4209 17.7903 58.4209 15.4521H58.4243H58.4278Z" fill="white"/>
<path d="M33.2803 15.4746C33.2803 13.1672 33.2803 10.858 33.2803 8.55061C33.2803 8.16775 33.4763 7.97575 33.8683 7.97461C34.6272 7.97461 35.3861 7.97461 36.1449 7.97461C36.5403 7.97461 36.738 8.17971 36.738 8.58992C36.738 12.1126 36.738 15.6353 36.738 19.158C36.738 19.5773 36.95 19.7875 37.3739 19.7886C39.4847 19.7886 41.5939 19.7989 43.7048 19.7818C44.1252 19.7784 44.2671 19.9066 44.2517 20.3288C44.2244 21.0723 44.2363 21.8175 44.2517 22.561C44.2585 22.8909 44.1509 23.019 43.8073 23.0173C40.4521 23.0088 37.097 23.0071 33.7418 23.019C33.3282 23.019 33.2718 22.8276 33.2735 22.4892C33.282 20.151 33.2769 17.8128 33.2769 15.4746H33.2803Z" fill="white"/>
<path d="M75.5625 15.5201C75.5625 17.8292 75.5523 20.1366 75.5711 22.4458C75.5745 22.8799 75.4514 23.0371 75.007 23.0201C74.2345 22.9893 73.4568 22.9859 72.6842 23.0201C72.2279 23.0389 72.0826 22.897 72.086 22.4321C72.1031 18.1044 72.0963 13.775 72.0963 9.44724C72.0963 9.09856 72.1065 8.74818 72.0894 8.3995C72.074 8.07817 72.2159 7.97049 72.5218 7.97391C73.3576 7.98416 74.1935 7.99613 75.0275 7.96878C75.4395 7.95511 75.5762 8.07817 75.5728 8.50547C75.554 10.8437 75.5642 13.1836 75.5642 15.5218L75.5625 15.5201Z" fill="white"/>
<path d="M49.9695 15.4713C49.9695 17.7942 49.9592 20.117 49.978 22.4415C49.9814 22.8756 49.8566 23.0329 49.4088 23.0158C48.5901 22.985 47.7697 22.9987 46.9493 23.0124C46.6245 23.0175 46.4878 22.9184 46.4878 22.5731C46.4946 17.8506 46.4946 13.128 46.4844 8.40719C46.4844 8.05338 46.6365 7.96621 46.951 7.97134C47.7851 7.98331 48.6209 7.99356 49.455 7.97134C49.8601 7.95938 49.9763 8.11491 49.9729 8.50461C49.9592 10.8274 49.966 13.1502 49.966 15.4748L49.9695 15.4713Z" fill="white"/>
<path d="M54.1681 23.0083C53.7732 23.0083 53.3784 22.9981 52.9836 23.0117C52.6811 23.022 52.5341 22.9177 52.5392 22.5947C52.5494 21.7589 52.546 20.9248 52.5426 20.089C52.5426 19.8001 52.6725 19.6822 52.9597 19.6856C53.7801 19.6942 54.5988 19.6942 55.4192 19.6856C55.7252 19.6822 55.8619 19.7967 55.8585 20.1129C55.8482 20.9487 55.8465 21.7828 55.8585 22.6186C55.8619 22.9246 55.7269 23.0169 55.4448 23.01C55.0193 22.9981 54.5954 23.0066 54.1698 23.0066L54.1681 23.0083Z" fill="white"/>
</g>
<defs>
<clipPath id="clip0_2242_3999">
<rect width="75.1521" height="30" fill="white" transform="translate(0.421875 0.5)"/>
</clipPath>
</defs>
</svg>
