<svg opacity="0.5" width="120" height="28" viewBox="0 0 120 28" fill="none" xmlns="http://www.w3.org/2000/svg">
    <g opacity="0.7" clip-path="url(#clip0_2368_24533)">
        <path d="M14.2675 0.369141C16.1096 0.924555 17.3325 2.0736 17.6841 4.03029C20.0968 2.8201 21.7019 2.90162 23.1389 4.26978C24.5809 5.64303 24.7236 7.29653 23.6229 9.85449C26.0433 10.6774 27.2306 12.0354 27.2459 14.0023C27.2611 15.9054 26.0586 17.2812 23.6178 18.1551C24.7745 20.708 24.6344 22.2927 23.1261 23.7118C21.6433 25.108 20.0892 25.1921 17.6841 23.9742C17.3401 25.936 16.1223 27.0876 14.2675 27.6303H12.7389C11.0395 26.9755 9.77325 25.9233 9.51338 23.9054C7.57962 25.108 5.73758 25.2863 4.07134 23.722C2.28025 22.0405 2.4586 20.0914 3.65096 18.0558C1.74268 17.8367 0.736306 16.6519 0 15.1462V12.8532C0.756688 11.3296 1.80127 10.1398 3.63567 9.92583C2.42038 7.53857 2.49682 5.94366 3.80637 4.49398C4.39745 3.8392 5.13631 3.46213 5.97962 3.24812C7.26879 2.91946 8.37707 3.46213 9.47516 4.03029C10.107 1.81373 10.7439 1.15895 12.9936 0.369141L14.2675 0.369141ZM19.9618 11.6507C19.9185 11.5258 19.8752 11.401 19.8318 11.2761H16.2854V7.50035C15.2688 8.48124 14.4561 9.26596 13.5873 10.1042C12.7159 9.25831 11.9057 8.4736 11.0268 7.6201C10.6803 8.90417 11.1796 10.1271 10.6268 11.3373H7.11847C8.08408 12.3284 8.87134 13.1386 9.70955 14.0023C8.87134 14.8634 8.08153 15.6711 7.07261 16.7054H10.8611V20.4965C11.921 19.5054 12.7618 18.7182 13.6229 17.9131C14.5274 18.7946 15.3274 19.5742 16.1987 20.4252C16.4382 19.0902 16.0662 17.8902 16.4994 16.6214H20.0331C19.0803 15.643 18.293 14.8379 17.3987 13.9207C18.3159 13.108 19.1389 12.3793 19.9618 11.6507ZM9.29427 18.2596C8.38726 18.2596 7.54904 18.2239 6.71338 18.2672C5.31975 18.3437 4.34395 19.3857 4.33885 20.7437C4.33121 22.0838 5.2535 23.1284 6.54268 23.2405C7.90573 23.3602 9.09809 22.5093 9.27134 21.1462C9.38599 20.2392 9.29427 19.3067 9.29427 18.257V18.2596ZM9.29427 9.73475C9.29427 8.71818 9.38344 7.82901 9.27389 6.96532C9.09045 5.51309 7.90828 4.61882 6.52484 4.75895C5.32229 4.88124 4.36433 5.92583 4.33631 7.15131C4.30318 8.56277 5.26369 9.6201 6.74395 9.7271C7.5414 9.7857 8.34395 9.73729 9.29172 9.73729L9.29427 9.73475ZM17.8879 18.28C17.8879 19.2532 17.8395 20.1322 17.8981 21.0061C17.9873 22.3156 19.0395 23.2405 20.3541 23.2456C21.6357 23.2507 22.7338 22.2825 22.8637 21.029C23.0013 19.7297 22.0688 18.443 20.7618 18.2978C19.8548 18.1959 18.9248 18.2774 17.8879 18.2774V18.28ZM13.5592 19.9691C12.8968 20.6723 12.3006 21.2736 11.7401 21.9054C11.2408 22.4685 10.9962 23.136 11.1083 23.8978C11.2611 24.9449 12.0433 25.7933 13.0497 26.0125C14.0484 26.2316 15.149 25.7755 15.7045 24.9118C16.2497 24.066 16.1809 22.7437 15.4879 21.9462C14.9325 21.3093 14.3108 20.7309 13.5592 19.9666V19.9691ZM7.62038 14.1042C6.80764 13.2914 6.20637 12.5755 5.49299 11.9997C4.49682 11.1972 3.01147 11.3806 2.1707 12.2978C1.29427 13.2558 1.3121 14.7844 2.21656 15.7449C3.05732 16.6418 4.55796 16.7717 5.55159 15.9742C6.26497 15.401 6.9172 14.7462 7.62293 14.1042H7.62038ZM17.8879 9.83666C19.1261 9.72965 20.1987 9.76787 21.1975 9.52073C22.4204 9.21755 23.0777 7.93092 22.828 6.74621C22.5783 5.56405 21.4675 4.70545 20.2548 4.75385C19.0268 4.80481 17.9924 5.7322 17.9006 6.96787C17.8344 7.8392 17.8879 8.72073 17.8879 9.83666ZM13.7223 8.10162C14.1783 7.55131 14.5809 7.06468 14.9885 6.58315C15.1261 6.42264 15.2917 6.28506 15.4268 6.12455C16.1682 5.23283 16.2701 3.95385 15.6764 3.05959C14.9121 1.90799 13.3452 1.58952 12.2038 2.34876C11.0166 3.14112 10.7083 4.75131 11.6178 5.91819C12.1834 6.6443 12.8994 7.25576 13.7274 8.10162H13.7223ZM19.6204 13.9666C20.3287 14.68 20.9146 15.3577 21.5898 15.9309C22.6038 16.7921 24.1962 16.6468 25.042 15.6863C25.9312 14.6774 25.8803 13.2074 24.9223 12.2239C24.0408 11.322 22.5732 11.2456 21.5771 12.1042C20.907 12.68 20.2955 13.322 19.6229 13.9666H19.6204Z" fill="white"/>
        <path d="M119.998 16.4201C119.086 17.638 117.901 18.1959 116.363 17.987C114.898 17.7883 113.917 16.7564 113.828 15.2685C113.736 13.7246 114.513 12.5781 115.917 12.1857C117.812 11.6558 119.13 12.3666 119.996 14.3819V15.401H115.305C115.912 17.1259 116.857 17.2787 118.788 16.0813C119.16 16.1068 119.578 16.1373 119.998 16.1654V16.4201ZM115.356 14.3513C116.485 14.2775 117.451 14.5068 118.447 14.1908C117.484 12.815 116.294 12.8278 115.356 14.3513Z" fill="white"/>
        <path d="M76.2642 12.7312C75.7597 12.7669 75.3903 12.7949 75.0871 12.8153C73.2884 11.2713 71.296 11.0955 70.1852 12.3312C69.2884 13.3274 69.3903 15.144 70.3915 16.0153C71.6654 17.1236 73.6654 16.7669 75.0565 15.1745H76.3508C76.2718 16.3771 75.6145 17.0854 74.6693 17.5592C73.4361 18.1758 72.1164 18.1809 70.8247 17.8573C68.8578 17.3656 67.8591 15.8217 67.9737 13.6255C68.068 11.7885 69.1686 10.5299 71.1457 10.2446C72.0833 10.1096 73.0947 10.1478 74.0221 10.349C75.138 10.5936 75.961 11.3223 76.2667 12.7312H76.2642Z" fill="white"/>
        <path d="M63.8456 17.8339C63.2163 17.7371 62.7399 17.6632 62.1793 17.5766C60.4723 18.3129 59.015 18.1142 58.1029 16.9651C57.3131 15.9689 57.2571 14.2976 57.9832 13.2709C58.8188 12.0887 60.2481 11.8212 62.3857 12.5269C62.457 11.7371 62.5258 10.9728 62.5997 10.1396H63.8481V17.8339H63.8456ZM62.4851 14.1014C61.3564 13.1842 60.1157 13.0951 59.3819 13.7855C58.75 14.3817 58.6965 15.5689 59.2749 16.2263C60.0137 17.067 61.0481 17.0314 62.3832 16.0938C62.4137 15.9231 62.4749 15.7167 62.4825 15.5103C62.4978 15.0467 62.4876 14.5804 62.4876 14.1014H62.4851Z" fill="white"/>
        <path d="M48.0796 19.6656H46.8414C46.8057 18.9573 46.77 18.2949 46.7293 17.5051C46.3293 17.6529 46.0006 17.793 45.6592 17.8949C43.5369 18.5242 41.6566 17.1102 41.7 14.9242C41.7382 13.0312 43.3917 11.7268 45.2617 12.1446C45.7101 12.244 46.1331 12.458 46.3853 12.5497C47.007 12.4223 47.4885 12.3255 48.0796 12.2057V19.6631V19.6656ZM46.7242 14.0783C45.5624 13.1662 44.2783 13.0924 43.5496 13.8338C42.9458 14.4478 42.9331 15.6503 43.5242 16.2669C44.3318 17.1102 45.4503 17.0159 46.7216 15.9611V14.0809L46.7242 14.0783Z" fill="white"/>
        <path d="M94.3582 15.4367H89.8333C90.0881 17.0597 91.3926 17.317 93.0206 16.1297C93.1964 16.1195 93.4079 16.0864 93.6168 16.0991C93.813 16.1119 94.0091 16.1679 94.2181 16.2087C93.5658 17.7425 92.027 18.3845 90.3021 17.8928C88.7939 17.4647 87.9888 16.0609 88.3072 14.4125C88.6181 12.7998 89.9149 11.8979 91.683 12.0584C93.4588 12.2214 94.3123 13.2405 94.3607 15.4342L94.3582 15.4367ZM89.6525 14.359C90.8474 14.2698 91.8563 14.5246 92.8983 14.1832C91.8818 12.8227 90.7582 12.8329 89.6525 14.359Z" fill="white"/>
        <path d="M79.882 18.0173C77.9253 18.0046 76.7151 16.83 76.7508 14.9702C76.7839 13.2402 78.0832 12.0504 79.9329 12.0606C81.831 12.0708 83.0845 13.309 83.0616 15.1536C83.0387 16.9218 81.8132 18.0275 79.8845 18.0148L79.882 18.0173ZM79.8947 16.8377C80.9266 16.853 81.6247 16.1549 81.6476 15.0797C81.6705 13.9842 81.0361 13.3294 79.9457 13.3218C78.8272 13.3116 78.2183 13.9128 78.2183 15.0288C78.2183 16.1269 78.8629 16.8198 79.8973 16.8377H79.8947Z" fill="white"/>
        <path d="M33.7026 16.4198H38.8949C38.9179 16.9115 38.9332 17.2631 38.951 17.7115H32.0898V10.1344C32.5153 10.1115 32.9153 10.0886 33.4402 10.0605C33.7943 12.1752 33.4045 14.2516 33.7 16.4223L33.7026 16.4198Z" fill="white"/>
        <path d="M100.84 14.14C100.397 14.1681 100.068 14.1859 99.7347 14.2063C99.4239 13.9464 99.136 13.7044 98.8838 13.4929C97.8545 13.0853 96.8175 13.3808 96.3691 14.1757C95.9462 14.9248 96.1322 15.9668 96.7793 16.4942C97.5615 17.1286 98.6315 16.9095 99.7194 15.87H100.751C101.034 16.3184 100.387 17.2356 99.5767 17.6585C97.9232 18.5222 95.7398 17.926 95.0315 16.4177C94.2596 14.777 94.9475 12.9171 96.5678 12.2802C98.4073 11.5566 100.277 12.3082 100.84 14.1375V14.14Z" fill="white"/>
        <path d="M50.624 16.558C51.5922 17.0931 52.3591 16.8536 53.1361 16.0485V12.3669C53.582 12.3262 53.9336 12.2931 54.2138 12.2676C54.5909 12.6803 54.6572 15.8039 54.3845 17.7682C53.8954 17.73 53.3935 17.6918 52.8865 17.6536C52.275 17.7708 51.6253 17.9873 50.9731 18.0001C49.8062 18.0255 49.075 17.4472 48.9782 16.3109C48.8686 15.0217 48.9527 13.7173 48.9527 12.3389H50.1374C50.5374 13.7453 49.8699 15.2561 50.624 16.558Z" fill="white"/>
        <path d="M105.308 16.8606V17.8211C105.031 17.8823 104.796 17.9613 104.557 17.9842C102.488 18.1625 102.001 17.7116 101.976 15.6046C101.968 15.0568 101.976 14.509 101.976 13.9052C101.688 13.732 101.418 13.5689 101.117 13.388V12.6109C101.367 12.4708 101.617 12.3307 101.897 12.1753C101.953 11.732 102.011 11.2785 102.085 10.6823C102.48 10.6594 102.862 10.6339 103.313 10.6084C103.39 11.2224 103.448 11.7116 103.517 12.267C104.075 12.3383 104.605 12.4071 105.209 12.4861V13.5154C104.636 13.5842 104.106 13.6479 103.517 13.7192V16.7307C104.129 16.7766 104.656 16.8173 105.313 16.8657L105.308 16.8606Z" fill="white"/>
        <path d="M112.661 12.3309H114.083C113.183 14.2264 112.358 15.9717 111.481 17.8213C111.059 17.8417 110.615 17.8621 110.118 17.8876C109.255 16.0302 108.422 14.2468 107.527 12.3232H109.005C109.56 13.5131 110.113 14.6978 110.748 16.0583C111.594 14.8583 111.884 13.485 112.661 12.3334V12.3309Z" fill="white"/>
        <path d="M85.0641 17.7733H83.8438V10.1631H85.0641V17.7733Z" fill="white"/>
        <path d="M87.3844 17.7956C87.066 17.8262 86.8571 17.8669 86.6558 17.8567C86.4953 17.8465 86.3399 17.7676 86.1641 17.7141V10.2007C86.3908 10.1497 86.5488 10.0886 86.7093 10.086C86.9106 10.0835 87.1118 10.1294 87.387 10.1625V17.7956H87.3844Z" fill="white"/>
        <path d="M39.5912 12.3203H40.9033V17.7038C40.5084 17.7318 40.1568 17.7598 39.6167 17.798C39.4893 15.928 39.5249 14.1573 39.5912 12.3203Z" fill="white"/>
        <path d="M56.8355 17.8087C56.3795 17.7756 56.0559 17.7527 55.6406 17.7246V12.3438H56.8355V17.8087Z" fill="white"/>
        <path d="M107.267 17.7145H106.055V12.3311H107.267V17.7145Z" fill="white"/>
        <path d="M40.8904 10.0684C40.9235 10.5142 40.9464 10.8327 40.977 11.2811C40.5133 11.3117 40.1235 11.3346 39.6471 11.3652C39.6242 10.9371 39.6089 10.6187 39.5859 10.155C40.0445 10.1244 40.4267 10.0989 40.8904 10.0684Z" fill="white"/>
        <path d="M107.279 10.0791V11.2969C106.879 11.3148 106.53 11.3326 106.066 11.353C106.041 10.9301 106.02 10.5887 105.992 10.1402C106.443 10.1173 106.79 10.102 107.276 10.0791H107.279Z" fill="white"/>
        <path d="M55.6328 10.125H56.8099V11.2868H55.6328V10.125Z" fill="white"/>
    </g>
    <defs>
        <clipPath id="clip0_2368_24533">
            <rect width="120" height="28" fill="white" transform="translate(0 0.369141)"/>
        </clipPath>
    </defs>
</svg>
