<svg opacity="0.5" width="120" height="27" viewBox="0 0 120 27" fill="none" xmlns="http://www.w3.org/2000/svg">
<g clip-path="url(#clip0_2242_3781)">
<path d="M38.2969 5.36523H41.0439L46.2279 16.7443L51.412 5.36523H54.159V21.2894H51.5006V10.8103L46.8926 21.2894H45.5633L40.9553 10.8103V21.2894H38.2969V5.36523Z" fill="white"/>
<path d="M62.5925 21.234C61.3519 21.234 60.2589 21.0118 59.3137 20.5673C58.3832 20.108 57.6595 19.4561 57.1426 18.6115C56.6256 17.7522 56.3672 16.7373 56.3672 15.5667C56.3672 14.4259 56.6183 13.4332 57.1204 12.5886C57.6373 11.7293 58.3685 11.0699 59.3137 10.6106C60.2589 10.1365 61.3519 9.89941 62.5925 9.89941C63.833 9.89941 64.9186 10.1365 65.849 10.6106C66.7943 11.0699 67.5254 11.7293 68.0423 12.5886C68.5592 13.4332 68.8177 14.4259 68.8177 15.5667C68.8177 16.7373 68.5592 17.7522 68.0423 18.6115C67.5254 19.4561 66.7943 20.108 65.849 20.5673C64.9186 21.0118 63.833 21.234 62.5925 21.234ZM62.5925 19.0338C63.6116 19.0338 64.4239 18.7153 65.0293 18.0782C65.6349 17.4262 65.9377 16.589 65.9377 15.5667C65.9377 14.4851 65.6349 13.6406 65.0293 13.0331C64.4386 12.4108 63.6263 12.0997 62.5925 12.0997C61.5586 12.0997 60.7389 12.4108 60.1333 13.0331C59.5426 13.6406 59.2472 14.4851 59.2472 15.5667C59.2472 16.589 59.55 17.4262 60.1555 18.0782C60.761 18.7153 61.5733 19.0338 62.5925 19.0338Z" fill="white"/>
<path d="M71.0312 10.6221H73.7341V12.3334C74.1623 11.7556 74.7682 11.3258 75.5504 11.0444C76.3482 10.7628 77.2564 10.6221 78.2756 10.6221V12.7556C77.1971 12.7556 76.2593 12.9261 75.4623 13.2668C74.6793 13.5928 74.1327 14.1113 73.8227 14.8225V21.2899H71.0312V10.6221Z" fill="white"/>
<path d="M80.0469 10.2328H82.7498V11.5219C83.3261 10.9736 83.9535 10.5662 84.6328 10.2995C85.3121 10.0328 86.0876 9.89941 86.9595 9.89941C88.0372 9.89941 88.9972 10.1365 89.8395 10.6106C90.6958 11.0699 91.3602 11.7293 91.8328 12.5886C92.3202 13.4332 92.5639 14.613 92.5639 15.739C92.5639 16.8503 92.3202 17.641 91.8328 18.5004C91.3602 19.3598 90.6958 20.0339 89.8395 20.5228C88.9972 20.997 88.0372 21.234 86.9595 21.234C86.1469 21.234 85.3787 21.1229 84.655 20.9007C83.9461 20.6636 83.3409 20.3154 82.8387 19.8561V26.2001H80.0469V10.2328ZM86.2721 19.0338C87.2765 19.0338 88.1039 18.7079 88.7535 18.0559C89.4032 17.404 89.7284 16.5668 89.7284 15.5445C89.7284 14.5222 89.4032 13.6925 88.7535 13.0553C88.1039 12.4182 87.2765 12.0997 86.2721 12.0997C85.475 12.0997 84.7661 12.3145 84.1454 12.7442C83.5254 13.1739 83.0898 13.7517 82.8387 14.4777V16.6335C83.075 17.3596 83.5032 17.9447 84.1232 18.3893C84.7587 18.819 85.475 19.0338 86.2721 19.0338Z" fill="white"/>
<path d="M94.7812 5.36523H97.5731V11.9773C98.5768 10.8512 99.8768 10.2882 101.472 10.2882C102.904 10.2882 103.975 10.6808 104.684 11.4661C105.393 12.2366 105.748 13.2663 105.748 14.5553V21.2894H102.956V14.822C102.956 13.2663 102.232 12.4884 100.785 12.4884C100.15 12.4884 99.5516 12.644 98.9909 12.9552C98.4294 13.2515 97.9568 13.7034 97.5731 14.3109V21.2894H94.7812V5.36523Z" fill="white"/>
<path d="M113.764 21.234C112.524 21.234 111.431 21.0118 110.486 20.5673C109.555 20.108 108.832 19.4561 108.315 18.6115C107.798 17.7522 107.539 16.7373 107.539 15.5667C107.539 14.4259 107.79 13.4332 108.292 12.5886C108.809 11.7293 109.541 11.0699 110.486 10.6106C111.431 10.1365 112.524 9.89941 113.764 9.89941C115.005 9.89941 116.091 10.1365 117.021 10.6106C117.966 11.0699 118.698 11.7293 119.215 12.5886C119.731 13.4332 119.989 14.4259 119.989 15.5667C119.989 16.7373 119.731 17.7522 119.215 18.6115C118.698 19.4561 117.966 20.108 117.021 20.5673C116.091 21.0118 115.005 21.234 113.764 21.234ZM113.764 19.0338C114.784 19.0338 115.596 18.7153 116.201 18.0782C116.807 17.4262 117.109 16.589 117.109 15.5667C117.109 14.4851 116.807 13.6406 116.201 13.0331C115.611 12.4108 114.798 12.0997 113.764 12.0997C112.731 12.0997 111.911 12.4108 111.305 13.0331C110.715 13.6406 110.419 14.4851 110.419 15.5667C110.419 16.589 110.722 17.4262 111.327 18.0782C111.933 18.7153 112.745 19.0338 113.764 19.0338Z" fill="white"/>
<path opacity="0.9" d="M3.32812 18.2142V25.8561C3.32812 26.3266 3.72626 26.5218 3.85012 26.5662C3.97398 26.6195 4.38981 26.7349 4.7614 26.3887L10.1896 21.1722C10.9168 20.4734 12.1047 18.8532 12.1047 18.8532C12.4587 18.1343 12.4587 17.442 12.1136 16.7497C11.6004 15.7201 10.291 14.6728 8.31806 13.6787L4.94721 15.5604C3.94746 16.1284 3.32812 17.1314 3.32812 18.2142Z" fill="#52525B"/>
<path d="M0 1.21722V9.23196C0 10.2349 0.672426 11.1225 1.62794 11.4065C4.88379 12.3473 10.555 14.3709 11.9263 17.3443C12.1033 17.7348 12.2094 18.1165 12.2448 18.5159C13.1561 16.8562 13.5719 14.9479 13.3773 13.013C13.1119 10.2704 11.6609 7.77633 9.39593 6.18759L1.31828 0.533786C1.17672 0.427278 1.00861 0.374023 0.840511 0.374023C0.698955 0.374023 0.575081 0.400651 0.44237 0.471657C0.176948 0.622543 0 0.897692 0 1.21722Z" fill="#71717A"/>
<path opacity="0.9" d="M24.8166 18.2142V25.8561C24.8166 26.3266 24.4185 26.5218 24.2946 26.5662C24.1707 26.6195 23.755 26.7349 23.3833 26.3887L17.9551 21.1722C17.2279 20.4734 16.04 18.8532 16.04 18.8532C15.6861 18.1343 15.6861 17.442 16.0312 16.7497C16.5443 15.7201 17.8537 14.6728 19.8267 13.6787L23.1976 15.5604C24.2061 16.1284 24.8166 17.1314 24.8166 18.2142Z" fill="#52525B"/>
<path d="M28.1587 1.21624V9.23096C28.1587 10.2339 27.4862 11.1215 26.5307 11.4055C23.2749 12.3463 17.6037 14.37 16.2324 17.3433C16.0554 17.7338 15.9493 18.1155 15.9138 18.5149C15.0026 16.8552 14.5867 14.9469 14.7814 13.012C15.0468 10.2694 16.4978 7.77533 18.7627 6.18661L26.8404 0.532809C26.9819 0.426302 27.1501 0.373047 27.3181 0.373047C27.4597 0.373047 27.5836 0.399674 27.7163 0.47068C27.9817 0.621566 28.1587 0.896716 28.1587 1.21624Z" fill="#71717A"/>
</g>
<defs>
<clipPath id="clip0_2242_3781">
<rect width="120" height="26.6667" fill="white" transform="translate(0 0.166992)"/>
</clipPath>
</defs>
</svg>
