<svg opacity="0.5" width="120" height="23" viewBox="0 0 120 23" fill="none" xmlns="http://www.w3.org/2000/svg">
<g clip-path="url(#clip0_2242_3812)">
<mask id="mask0_2242_3812" style="mask-type:luminance" maskUnits="userSpaceOnUse" x="0" y="0" width="120" height="23">
<path d="M120 0.336914H0V22.6625H120V0.336914Z" fill="white"/>
</mask>
<g mask="url(#mask0_2242_3812)">
<path d="M37.8515 14.9842C38.7542 15.889 39.8445 16.3414 41.1222 16.3414C42.3999 16.3414 43.4835 15.889 44.3723 14.9842C45.275 14.0657 45.7263 12.9622 45.7263 11.6736C45.7263 10.385 45.275 9.28828 44.3723 8.38349C43.4835 7.46503 42.3999 7.00578 41.1222 7.00578C39.8445 7.00578 38.7542 7.46503 37.8515 8.38349C36.9628 9.28828 36.5184 10.385 36.5184 11.6736C36.5184 12.9622 36.9628 14.0657 37.8515 14.9842ZM46.5181 17.02C45.0322 18.4867 43.2333 19.2202 41.1222 19.2202C39.0111 19.2202 37.2056 18.4867 35.7058 17.02C34.2196 15.5395 33.4766 13.7574 33.4766 11.6736C33.4766 9.58988 34.2196 7.8146 35.7058 6.34774C37.2056 4.86721 39.0111 4.12695 41.1222 4.12695C43.2333 4.12695 45.0322 4.86721 46.5181 6.34774C48.018 7.8146 48.7683 9.58988 48.7683 11.6736C48.7683 13.7574 48.018 15.5395 46.5181 17.02Z" fill="white"/>
<path d="M50.7891 18.9739V3.96289H53.6435V18.9739H50.7891Z" fill="white"/>
<path d="M60.4844 22.9631H57.3801L59.4219 18.3981L55.0469 8.69238H58.1718L60.9634 15.3548L63.734 8.69238H66.88L60.4844 22.9631Z" fill="white"/>
<path d="M81.3906 18.9735V13.5449C81.3906 11.8862 80.7934 11.0568 79.5991 11.0568C78.696 11.0568 78.0294 11.4611 77.5991 12.27C77.6545 12.503 77.6821 12.7635 77.6821 13.0514V18.9735H74.8281V13.5449C74.8281 11.8862 74.2309 11.0568 73.0366 11.0568C72.6336 11.0568 72.2587 11.1596 71.9113 11.3652C71.5644 11.5571 71.3005 11.8176 71.1197 12.1466V18.9735H68.2656V8.69202H71.1197V9.49397C71.7308 8.80855 72.5783 8.46582 73.6614 8.46582C74.8421 8.46582 75.8213 8.91819 76.5989 9.823C77.3906 8.91819 78.5225 8.46582 79.9947 8.46582C81.3975 8.46582 82.4532 8.89077 83.1613 9.74068C83.8837 10.5906 84.2446 11.6942 84.2446 13.0514V18.9735H81.3906Z" fill="white"/>
<path d="M86.8594 22.9627V8.69202H89.7134V9.43229C90.394 8.78796 91.2831 8.46582 92.38 8.46582C93.8798 8.46582 95.1096 8.99359 96.0677 10.0491C97.0398 11.091 97.5263 12.3522 97.5263 13.8328C97.5263 15.3133 97.0398 16.5813 96.0677 17.637C95.1096 18.6788 93.8798 19.1997 92.38 19.1997C91.269 19.1997 90.38 18.8707 89.7134 18.2127V22.9627H86.8594ZM91.9633 16.6293C92.7413 16.6293 93.3729 16.3621 93.8594 15.8274C94.345 15.279 94.5887 14.6142 94.5887 13.8328C94.5887 13.0514 94.345 12.3933 93.8594 11.8587C93.3729 11.3103 92.7413 11.0362 91.9633 11.0362C91.0192 11.0362 90.2689 11.4064 89.7134 12.1466V15.4984C90.2689 16.2524 91.0192 16.6293 91.9633 16.6293Z" fill="white"/>
<path d="M109.133 8.69238V18.9739H106.278V18.1514C105.598 18.8505 104.743 19.2001 103.716 19.2001C102.396 19.2001 101.362 18.7888 100.612 17.9663C99.8762 17.1301 99.5078 16.0265 99.5078 14.6556V8.69238H102.362V14.1827C102.362 15.8141 103.015 16.6297 104.32 16.6297C105.112 16.6297 105.765 16.239 106.278 15.4576V8.69238H109.133Z" fill="white"/>
<path d="M115.385 19.1997C113.413 19.1997 111.982 18.5417 111.094 17.2257L113.052 15.5807C113.552 16.3757 114.33 16.7732 115.385 16.7732C115.705 16.7732 115.976 16.7116 116.198 16.5882C116.42 16.4649 116.531 16.2797 116.531 16.033C116.531 15.8137 116.433 15.6355 116.239 15.4984C116.058 15.3476 115.691 15.1968 115.136 15.046L114.364 14.861C113.406 14.6142 112.677 14.2029 112.177 13.6272C111.691 13.0514 111.461 12.3659 111.489 11.5708C111.517 10.6386 111.892 9.89147 112.615 9.32948C113.35 8.7537 114.281 8.46582 115.406 8.46582C117.004 8.46582 118.204 9.04159 119.01 10.1931L117.136 11.6942C116.649 11.091 116.058 10.7894 115.364 10.7894C115.086 10.7894 114.844 10.8511 114.635 10.9745C114.427 11.0979 114.323 11.2692 114.323 11.4886C114.323 11.8998 114.663 12.1946 115.343 12.3728L116.323 12.6607C118.337 13.1953 119.343 14.2577 119.343 15.8479C119.343 16.8212 118.968 17.6232 118.218 18.2538C117.469 18.8844 116.524 19.1997 115.385 19.1997Z" fill="white"/>
<path fill-rule="evenodd" clip-rule="evenodd" d="M13.5352 21.1694L13.5353 22.2708H22.222V19.1802H17.9323C20.5132 17.25 22.1714 14.2497 22.1714 10.8802C22.1714 5.05729 17.2195 0.336914 11.111 0.336914C5.00243 0.336914 0.0505001 5.05729 0.0505001 10.8802C0.0505001 14.2497 1.70872 17.25 4.28972 19.1802H0V22.2708H8.68676V22.221L8.68673 18.1168C5.5216 17.1335 3.23225 14.2764 3.23225 10.9051C3.23225 6.72032 6.75966 3.32791 11.111 3.32791C15.4622 3.32791 18.9897 6.72032 18.9897 10.9051C18.9897 14.2764 16.7003 17.1335 13.5352 18.1168V21.1694Z" fill="white"/>
</g>
</g>
<defs>
<clipPath id="clip0_2242_3812">
<rect width="120" height="22.3256" fill="white" transform="translate(0 0.336914)"/>
</clipPath>
</defs>
</svg>
