<svg opacity="0.5" width="120" height="29" viewBox="0 0 120 29" fill="none" xmlns="http://www.w3.org/2000/svg">
<g clip-path="url(#clip0_2242_3841)">
<path d="M27.46 14.5005C27.46 22.0829 21.3124 28.2305 13.73 28.2305C6.14754 28.2305 0 22.0829 0 14.5005C0 6.91805 6.14754 0.770508 13.73 0.770508C21.314 0.770508 27.46 6.91805 27.46 14.5005Z" fill="#71717A"/>
<path d="M6.77743 14.9618L6.83666 14.8687L10.4084 9.28117C10.4606 9.19936 10.5833 9.20782 10.6228 9.29668C11.2195 10.634 11.7344 12.2971 11.4932 13.3325C11.3902 13.7585 11.1081 14.3354 10.7906 14.8687C10.7498 14.9463 10.7046 15.0224 10.6566 15.0958C10.6341 15.1296 10.596 15.1494 10.5551 15.1494H6.88181C6.78306 15.1494 6.72523 15.0422 6.77743 14.9618Z" fill="white"/>
<path d="M22.6931 16.0003V16.8847C22.6931 16.9355 22.6621 16.9806 22.617 17.0004C22.3405 17.1189 21.394 17.5533 21.0004 18.1007C19.996 19.4986 19.2287 21.4975 17.5133 21.4975H10.3572C7.82092 21.4975 5.76562 19.4352 5.76562 16.8904V16.8086C5.76562 16.7408 5.82063 16.6858 5.88834 16.6858H9.87762C9.95659 16.6858 10.0144 16.7592 10.0074 16.8368C9.97916 17.0963 10.0271 17.3615 10.1499 17.6027C10.3868 18.0838 10.8777 18.3842 11.4081 18.3842H13.383V16.8424H11.4307C11.3305 16.8424 11.2713 16.7267 11.3291 16.6449C11.3503 16.6125 11.3743 16.5786 11.3997 16.5405C11.5845 16.2782 11.8483 15.8705 12.1106 15.4064C12.2898 15.0932 12.4633 14.7589 12.6029 14.4232C12.6312 14.3625 12.6537 14.3004 12.6763 14.2398C12.7144 14.1326 12.7539 14.0324 12.7821 13.9323C12.8103 13.8476 12.8329 13.7588 12.8554 13.6755C12.9217 13.3906 12.9499 13.0887 12.9499 12.7756C12.9499 12.6528 12.9443 12.5245 12.933 12.4018C12.9274 12.2677 12.9105 12.1337 12.8935 11.9997C12.8822 11.8812 12.8611 11.7641 12.8385 11.6414C12.8103 11.4623 12.7708 11.2845 12.7257 11.1054L12.7101 11.0377C12.6763 10.9149 12.6481 10.7979 12.6086 10.6752C12.4971 10.29 12.3688 9.91481 12.2334 9.56357C12.184 9.42391 12.1275 9.28991 12.0711 9.1559C11.9879 8.95418 11.9033 8.77081 11.8257 8.59729C11.7862 8.51828 11.7523 8.44634 11.7185 8.37299C11.6804 8.28976 11.6409 8.20653 11.6014 8.12756C11.5732 8.0669 11.5407 8.01047 11.5182 7.95404L11.2769 7.50828C11.2431 7.44762 11.2995 7.37567 11.3658 7.39402L12.8752 7.80309H12.8794C12.8822 7.80309 12.8837 7.80452 12.8851 7.80452L13.084 7.85952L13.3026 7.92161L13.383 7.94415V7.04701C13.383 6.61394 13.73 6.2627 14.1589 6.2627C14.3733 6.2627 14.5679 6.35016 14.7076 6.49262C14.8472 6.63511 14.9347 6.82977 14.9347 7.04701V8.37865L15.0955 8.42377C15.1082 8.42802 15.1209 8.43365 15.1322 8.44211C15.1717 8.47174 15.2281 8.51545 15.3001 8.56908C15.3565 8.6142 15.4171 8.66923 15.4905 8.72566C15.6358 8.84272 15.8093 8.99367 15.9997 9.16719C16.0505 9.21091 16.0999 9.25605 16.145 9.30119C16.3905 9.52972 16.6656 9.79773 16.9279 10.094C17.0013 10.1772 17.0732 10.2618 17.1466 10.3507C17.2199 10.441 17.2975 10.5298 17.3652 10.6187C17.4541 10.7372 17.55 10.8599 17.6332 10.9883C17.6727 11.049 17.7179 11.111 17.756 11.1717C17.8632 11.3339 17.9577 11.5018 18.048 11.6696C18.0861 11.7472 18.1255 11.8318 18.1594 11.9151C18.2595 12.1394 18.3385 12.3679 18.3893 12.5964C18.4048 12.6458 18.4161 12.6994 18.4218 12.7474V12.7586C18.4387 12.8263 18.4444 12.8983 18.45 12.9716C18.4726 13.2058 18.4613 13.44 18.4105 13.6755C18.3893 13.7757 18.3611 13.8702 18.3273 13.9704C18.2934 14.0663 18.2595 14.1664 18.2158 14.261C18.1312 14.457 18.031 14.6531 17.9125 14.8365C17.8744 14.9042 17.8293 14.9761 17.7842 15.0439C17.7348 15.1158 17.684 15.1835 17.6389 15.2498C17.5768 15.3344 17.5105 15.4233 17.4428 15.5023C17.3821 15.5855 17.3201 15.6688 17.2524 15.7421C17.1579 15.8536 17.0676 15.9594 16.973 16.0609C16.9166 16.1272 16.856 16.1949 16.7939 16.2556C16.7333 16.3233 16.6712 16.3839 16.6148 16.4404C16.5203 16.5349 16.4413 16.6082 16.3749 16.6689L16.2198 16.8114C16.1972 16.8311 16.1676 16.8424 16.1366 16.8424H14.9347V18.3842H16.4469C16.7854 18.3842 17.1071 18.2643 17.3666 18.0443C17.4555 17.9667 17.8434 17.6309 18.3019 17.1245C18.3174 17.1076 18.3372 17.0949 18.3597 17.0893L22.5366 15.8818C22.6142 15.8592 22.6931 15.9184 22.6931 16.0003Z" fill="white"/>
<path d="M40.8358 21.0904C39.5946 21.0904 38.4536 20.8123 37.4132 20.256C36.3851 19.6997 35.5638 18.9257 34.9495 17.9341C34.3478 16.9303 34.0469 15.8056 34.0469 14.5601C34.0469 13.3145 34.3478 12.1958 34.9495 11.2042C35.5638 10.2125 36.3851 9.43856 37.4132 8.88228C38.4536 8.32599 39.5946 8.04785 40.8358 8.04785C42.077 8.04785 43.2116 8.32599 44.2397 8.88228C45.2805 9.43856 46.0952 10.2125 46.6845 11.2042C47.2864 12.1958 47.5871 13.3145 47.5871 14.5601C47.5871 15.8056 47.2864 16.9303 46.6845 17.9341C46.0828 18.9257 45.2678 19.6997 44.2397 20.256C43.2116 20.8123 42.077 21.0904 40.8358 21.0904ZM40.8358 18.2606C41.8889 18.2606 42.7289 17.922 43.3558 17.2447C43.9953 16.5675 44.315 15.6726 44.315 14.5601C44.315 13.4354 43.9953 12.5405 43.3558 11.8754C42.7289 11.1981 41.8889 10.8595 40.8358 10.8595C39.7701 10.8595 38.9177 11.1921 38.2782 11.8572C37.6513 12.5223 37.338 13.4233 37.338 14.5601C37.338 15.6847 37.6513 16.5857 38.2782 17.2629C38.9177 17.928 39.7701 18.2606 40.8358 18.2606Z" fill="white"/>
<path d="M52.5986 12.2735C52.912 11.8019 53.3445 11.4209 53.8961 11.1307C54.4478 10.8404 55.0934 10.6953 55.8332 10.6953C56.6981 10.6953 57.4819 10.9069 58.184 11.3302C58.8859 11.7535 59.4375 12.3581 59.8387 13.1442C60.2526 13.9303 60.4593 14.8433 60.4593 15.8833C60.4593 16.9233 60.2526 17.8424 59.8387 18.6406C59.4375 19.4266 58.8859 20.0373 58.184 20.4727C57.4819 20.896 56.6981 21.1076 55.8332 21.1076C55.106 21.1076 54.4604 20.9625 53.8961 20.6722C53.3445 20.382 52.912 20.0071 52.5986 19.5476V23.9737H49.3828V10.8404H52.5986V12.2735ZM57.1872 15.8833C57.1872 15.1094 56.9615 14.5047 56.51 14.0693C56.0712 13.6219 55.5259 13.3982 54.874 13.3982C54.2347 13.3982 53.6894 13.6219 53.2379 14.0693C52.7991 14.5168 52.5797 15.1275 52.5797 15.9014C52.5797 16.6754 52.7991 17.2861 53.2379 17.7336C53.6894 18.181 54.2347 18.4047 54.874 18.4047C55.5135 18.4047 56.0589 18.181 56.51 17.7336C56.9615 17.274 57.1872 16.6573 57.1872 15.8833Z" fill="white"/>
<path d="M72.039 15.7382C72.039 16.0284 72.0203 16.3308 71.9827 16.6452H64.7047C64.755 17.274 64.9617 17.7578 65.3253 18.0964C65.7015 18.4229 66.159 18.5861 66.6983 18.5861C67.5007 18.5861 68.0584 18.2596 68.372 17.6066H71.7946C71.6191 18.2717 71.2995 18.8703 70.8354 19.4025C70.3842 19.9345 69.8136 20.3518 69.1241 20.6541C68.4346 20.9564 67.6635 21.1076 66.8112 21.1076C65.7831 21.1076 64.8678 20.896 64.0654 20.4727C63.2631 20.0494 62.6361 19.4448 62.1847 18.6587C61.7335 17.8727 61.5078 16.9536 61.5078 15.9014C61.5078 14.8493 61.7272 13.9303 62.166 13.1442C62.6172 12.3581 63.2441 11.7535 64.0465 11.3302C64.8489 10.9069 65.7704 10.6953 66.8112 10.6953C67.8266 10.6953 68.7292 10.9009 69.519 11.3121C70.309 11.7232 70.9233 12.3098 71.3621 13.0716C71.8135 13.8335 72.039 14.7224 72.039 15.7382ZM68.7482 14.9219C68.7482 14.3898 68.5601 13.9665 68.1839 13.6521C67.8077 13.3377 67.3376 13.1805 66.7735 13.1805C66.2342 13.1805 65.7767 13.3317 65.4005 13.634C65.037 13.9363 64.8112 14.3656 64.7236 14.9219H68.7482Z" fill="white"/>
<path d="M80.1284 10.7324C81.357 10.7324 82.3348 11.1194 83.062 11.8934C83.8017 12.6552 84.1716 13.7074 84.1716 15.0497V20.9633H80.9745V15.4669C80.9745 14.7897 80.7927 14.2636 80.4291 13.8888C80.0655 13.5138 79.5768 13.3264 78.9625 13.3264C78.3479 13.3264 77.8591 13.5138 77.4956 13.8888C77.132 14.2636 76.9502 14.7897 76.9502 15.4669V20.9633H73.7344V10.8412H76.9502V12.1836C77.2762 11.7361 77.715 11.3854 78.2666 11.1315C78.818 10.8654 79.4386 10.7324 80.1284 10.7324Z" fill="white"/>
<path d="M91.1841 21.0904C90.2189 21.0904 89.3536 20.9392 88.5889 20.6369C87.8241 20.3346 87.2098 19.8871 86.746 19.2945C86.2946 18.702 86.0562 17.9885 86.0312 17.154H89.4539C89.5041 17.6257 89.6733 17.9885 89.9619 18.2424C90.2502 18.4843 90.6261 18.6052 91.0902 18.6052C91.5666 18.6052 91.9425 18.5024 92.2185 18.2969C92.4942 18.0792 92.6323 17.7829 92.6323 17.408C92.6323 17.0936 92.5195 16.8336 92.2938 16.628C92.0807 16.4224 91.811 16.2531 91.4851 16.1201C91.1715 15.987 90.7203 15.8359 90.131 15.6666C89.2784 15.4126 88.5826 15.1587 88.0435 14.9047C87.5045 14.6508 87.0407 14.2759 86.6518 13.78C86.2633 13.2842 86.0689 12.6372 86.0689 11.8391C86.0689 10.6539 86.514 9.72881 87.4042 9.06368C88.2942 8.38646 89.4539 8.04785 90.8832 8.04785C92.3377 8.04785 93.5097 8.38646 94.3999 9.06368C95.2902 9.72881 95.7666 10.66 95.8292 11.8572H92.3501C92.3251 11.446 92.1683 11.1256 91.8799 10.8958C91.5916 10.6539 91.2217 10.533 90.7703 10.533C90.3817 10.533 90.0684 10.6358 89.8301 10.8414C89.592 11.0349 89.4728 11.3191 89.4728 11.694C89.4728 12.1051 89.6733 12.4256 90.0747 12.6554C90.4759 12.8851 91.1026 13.133 91.9552 13.3991C92.8078 13.6773 93.4973 13.9433 94.0237 14.1973C94.5631 14.4512 95.0269 14.8201 95.4154 15.3038C95.8043 15.7875 95.9984 16.4103 95.9984 17.1722C95.9984 17.8978 95.8043 18.5569 95.4154 19.1494C95.0395 19.742 94.4878 20.2136 93.7607 20.5643C93.0335 20.915 92.1746 21.0904 91.1841 21.0904Z" fill="white"/>
<path d="M107.867 15.7382C107.867 16.0284 107.848 16.3308 107.811 16.6452H100.533C100.583 17.274 100.79 17.7578 101.153 18.0964C101.53 18.4229 101.987 18.5861 102.526 18.5861C103.329 18.5861 103.887 18.2596 104.2 17.6066H107.623C107.447 18.2717 107.128 18.8703 106.664 19.4025C106.212 19.9345 105.642 20.3518 104.952 20.6541C104.263 20.9564 103.492 21.1076 102.639 21.1076C101.611 21.1076 100.696 20.896 99.8936 20.4727C99.0912 20.0494 98.4643 19.4448 98.0128 18.6587C97.5617 17.8727 97.3359 16.9536 97.3359 15.9014C97.3359 14.8493 97.5553 13.9303 97.9942 13.1442C98.4453 12.3581 99.0722 11.7535 99.8746 11.3302C100.677 10.9069 101.599 10.6953 102.639 10.6953C103.655 10.6953 104.557 10.9009 105.347 11.3121C106.137 11.7232 106.751 12.3098 107.19 13.0716C107.642 13.8335 107.867 14.7224 107.867 15.7382ZM104.576 14.9219C104.576 14.3898 104.388 13.9665 104.012 13.6521C103.636 13.3377 103.166 13.1805 102.602 13.1805C102.063 13.1805 101.605 13.3317 101.229 13.634C100.865 13.9363 100.639 14.3656 100.552 14.9219H104.576Z" fill="white"/>
<path d="M108.922 15.8833C108.922 14.8433 109.123 13.9303 109.524 13.1442C109.937 12.3581 110.495 11.7535 111.197 11.3302C111.9 10.9069 112.683 10.6953 113.548 10.6953C114.288 10.6953 114.934 10.8404 115.485 11.1307C116.049 11.4209 116.482 11.8019 116.783 12.2735V10.8404H119.999V20.9625H116.783V19.5294C116.47 20.0011 116.031 20.382 115.466 20.6722C114.915 20.9625 114.269 21.1076 113.529 21.1076C112.677 21.1076 111.9 20.896 111.197 20.4727C110.495 20.0373 109.937 19.4266 109.524 18.6406C109.123 17.8424 108.922 16.9233 108.922 15.8833ZM116.783 15.9014C116.783 15.1275 116.557 14.5168 116.106 14.0693C115.667 13.6219 115.128 13.3982 114.489 13.3982C113.849 13.3982 113.304 13.6219 112.852 14.0693C112.414 14.5047 112.194 15.1094 112.194 15.8833C112.194 16.6573 112.414 17.274 112.852 17.7336C113.304 18.181 113.849 18.4047 114.489 18.4047C115.128 18.4047 115.667 18.181 116.106 17.7336C116.557 17.2861 116.783 16.6754 116.783 15.9014Z" fill="white"/>
</g>
<defs>
<clipPath id="clip0_2242_3841">
<rect width="120" height="27.46" fill="white" transform="translate(0 0.770508)"/>
</clipPath>
</defs>
</svg>
