<svg opacity="0.5" width="106" height="15" viewBox="0 0 106 15" fill="none" xmlns="http://www.w3.org/2000/svg">
<g clip-path="url(#clip0_2242_4102)">
<path d="M5.74681 14.5C4.20808 14.5 2.9342 14.13 1.9294 13.3859C0.924592 12.6459 0.445312 11.5822 0.445312 10.2579C0.445312 9.99306 0.499967 9.62309 0.550418 9.19847C0.710177 8.24411 0.975042 7.13 1.29456 5.80567C2.19426 2.24892 4.47714 0.445312 8.18946 0.445312C9.19847 0.445312 10.0982 0.605072 10.8928 0.975042C11.6874 1.29456 12.3264 1.76964 12.8015 2.45913C13.2807 3.09396 13.491 3.89276 13.491 4.79246C13.491 5.05732 13.4363 5.42729 13.3859 5.80147C13.1756 6.96603 12.9612 8.08015 12.6964 9.19426C12.2171 10.9979 11.4225 12.3222 10.3084 13.1714C9.19426 14.0207 7.65552 14.5 5.80147 14.5H5.74681ZM6.01168 11.6874C6.75582 11.6874 7.39066 11.4771 7.86573 11.0525C8.39546 10.6279 8.76543 9.99306 8.97985 9.08916C9.29937 7.86994 9.50958 6.81048 9.66934 5.90657C9.72399 5.64171 9.72399 5.37684 9.72399 5.05732C9.72399 3.89276 9.08916 3.30838 7.86994 3.30838C7.12579 3.30838 6.49096 3.51859 5.96123 3.94321C5.4315 4.36784 5.06153 5.00267 4.84711 5.90657C4.6369 6.75582 4.36783 7.81528 4.15762 9.08916C4.10297 9.35402 4.10297 9.62309 4.10297 9.88796C4.10297 11.1072 4.74201 11.6874 6.01168 11.6874Z" fill="white"/>
<path d="M15.4575 14.3406C15.2977 14.3406 15.1926 14.2859 15.1379 14.1808C15.0833 14.0757 15.0328 13.9706 15.0833 13.8109L17.7866 1.1352C17.8413 0.975439 17.8917 0.870334 17.9968 0.765229C18.1019 0.660123 18.2617 0.605469 18.3668 0.605469H23.6178C25.0515 0.605469 26.216 0.924988 27.1157 1.50517C28.0154 2.08535 28.4485 2.99346 28.4485 4.10757C28.4485 4.42709 28.3938 4.74241 28.3434 5.11658C28.0238 6.60066 27.3343 7.71478 26.38 8.40427C25.371 9.09376 24.0467 9.46373 22.3482 9.46373H19.6953L18.7956 13.7058C18.7956 13.8655 18.6905 13.9706 18.5854 14.0757C18.4803 14.1808 18.3205 14.2355 18.2154 14.2355H15.5626L15.4575 14.3406ZM22.4028 6.91598C22.9325 6.91598 23.4118 6.75622 23.8364 6.49135C24.2611 6.17183 24.5259 5.74721 24.6857 5.21748C24.7403 5.00727 24.7403 4.79286 24.7403 4.6331C24.7403 4.26313 24.6352 3.99826 24.4208 3.78385C24.2064 3.56943 23.8364 3.46433 23.2563 3.46433H20.9229L20.1788 6.96222H22.4575L22.4028 6.91598Z" fill="white"/>
<path d="M32.8435 14.3406C32.6837 14.3406 32.5786 14.2859 32.5239 14.1808C32.4693 14.0757 32.4188 13.9706 32.4693 13.8109L34.6429 3.7334H31.145C30.9852 3.7334 30.8801 3.67874 30.8254 3.57364C30.7708 3.46853 30.7203 3.36343 30.7708 3.20367L31.2501 1.1352C31.3047 0.975439 31.3552 0.870334 31.4603 0.765229C31.5654 0.660123 31.7251 0.605469 31.8303 0.605469H42.3828C42.5426 0.605469 42.6477 0.660123 42.7023 0.765229C42.757 0.819883 42.757 0.924988 42.757 0.975439C42.757 1.02589 42.757 1.03009 42.757 1.08054L42.2777 3.14901C42.2777 3.30877 42.1726 3.41388 42.0675 3.51898C41.9624 3.62409 41.8573 3.67874 41.6975 3.67874H38.1996L36.026 13.7562C35.9714 13.916 35.9209 14.0211 35.8158 14.1262C35.7107 14.2313 35.551 14.2859 35.4459 14.2859H32.8477V14.3406H32.8435Z" fill="white"/>
<path d="M43.2387 14.3406C43.079 14.3406 42.9739 14.2859 42.9192 14.1808C42.8645 14.0757 42.8141 13.9706 42.8645 13.8109L45.6225 1.1352C45.6225 0.975439 45.7276 0.870334 45.8327 0.765229C45.9378 0.660123 46.0976 0.605469 46.2027 0.605469H48.8555C49.0153 0.605469 49.1204 0.660123 49.1751 0.765229C49.2297 0.819883 49.2297 0.924988 49.2297 0.975439C49.2297 1.02589 49.2297 1.03009 49.2297 1.08054L46.5264 13.7562C46.5264 13.916 46.4213 14.0211 46.3162 14.1262C46.2111 14.2313 46.0513 14.2859 45.9462 14.2859H43.2934L43.2387 14.3406Z" fill="white"/>
<path d="M50.77 14.3406C50.6102 14.3406 50.5051 14.2859 50.4504 14.1808C50.3958 14.0757 50.3453 13.9706 50.3958 13.8108L53.0991 1.13517C53.0991 0.975406 53.2042 0.870301 53.3093 0.765196C53.4144 0.660091 53.5742 0.605436 53.6793 0.605436H55.8024C56.1219 0.605436 56.3321 0.765196 56.3868 1.03006L58.5099 7.18081L63.2817 1.03006C63.3363 0.924955 63.4414 0.81985 63.5465 0.710541C63.6517 0.601232 63.8114 0.550781 64.0258 0.550781H66.1489C66.3087 0.550781 66.4138 0.605436 66.4685 0.710541C66.5231 0.765196 66.5231 0.870301 66.5231 0.920751C66.5231 0.971202 66.5231 0.975406 66.5231 1.02586L63.8198 13.7015C63.8198 13.8613 63.7147 13.9664 63.6096 14.0715C63.5045 14.1766 63.3447 14.2313 63.2396 14.2313H60.8517C60.6919 14.2313 60.5868 14.1766 60.5321 14.0715C60.4775 13.9664 60.427 13.8613 60.4775 13.7015L62.0162 6.54177L58.9934 10.5189C58.8883 10.6787 58.7285 10.7838 58.6234 10.8385C58.5183 10.8931 58.3586 10.9436 58.1988 10.9436H57.1898C56.9249 10.9436 56.7105 10.7838 56.6054 10.5189L55.2264 6.38622L53.6372 13.7562C53.5826 13.9159 53.5321 14.0211 53.427 14.1262C53.3219 14.2313 53.1622 14.2859 53.0571 14.2859H50.7237L50.77 14.3406Z" fill="white"/>
<path d="M68.1137 14.3406C67.954 14.3406 67.8489 14.2859 67.7942 14.1808C67.7395 14.0757 67.6891 13.9706 67.7395 13.8109L70.4975 1.1352C70.5522 0.975439 70.6026 0.870334 70.7077 0.765229C70.8128 0.660123 70.9726 0.605469 71.0777 0.605469H73.7305C73.8903 0.605469 73.9954 0.660123 74.0501 0.765229C74.1047 0.819883 74.1047 0.924988 74.1047 0.975439C74.1047 1.02589 74.1047 1.03009 74.1047 1.08054L71.4014 13.7562C71.4014 13.916 71.2963 14.0211 71.1912 14.1262C71.0861 14.2313 70.9263 14.2859 70.8212 14.2859H68.1684L68.1137 14.3406Z" fill="white"/>
<path d="M80.4102 14.4997C79.2456 14.4997 78.2871 14.3399 77.442 14.0204C76.6474 13.7009 76.0084 13.2762 75.588 12.8012C75.1633 12.2714 74.9531 11.6871 74.9531 11.0522C74.9531 10.9471 74.9531 10.7874 75.0078 10.5729C75.0624 10.4678 75.1129 10.3627 75.1675 10.2534C75.2726 10.1988 75.3777 10.1483 75.4871 10.1483H77.9802C78.1399 10.1483 78.245 10.1483 78.3501 10.203C78.4552 10.2576 78.5099 10.3627 78.615 10.4678C78.7201 10.7874 78.9345 11.1027 79.2498 11.3171C79.5651 11.5315 80.0444 11.6366 80.6288 11.6366C81.3729 11.6366 81.9531 11.5315 82.4324 11.2666C82.9117 11.0564 83.1765 10.7369 83.2817 10.3123C83.2817 10.2576 83.2817 10.2072 83.2817 10.1021C83.2817 9.78255 83.0714 9.51769 82.6973 9.35793C82.2726 9.14772 81.5327 8.9333 80.469 8.66844C79.1952 8.40357 78.2408 7.97895 77.606 7.44922C76.9711 6.86483 76.597 6.17534 76.597 5.27565C76.597 4.95613 76.6516 4.64081 76.7021 4.32129C76.9669 3.10207 77.6018 2.14772 78.6654 1.45823C79.7291 0.768738 81.0534 0.449219 82.6973 0.449219C83.7063 0.449219 84.5513 0.608978 85.3501 0.978948C86.1489 1.34892 86.7291 1.77354 87.1537 2.30327C87.5783 2.833 87.7886 3.36273 87.7886 3.89246C87.7886 4.05222 87.7886 4.15733 87.7886 4.21198C87.7886 4.31709 87.6835 4.42219 87.6288 4.5315C87.5741 4.58616 87.469 4.63661 87.3093 4.63661H84.6522C84.3874 4.63661 84.1729 4.5315 84.0678 4.31709C84.0678 3.99757 83.9081 3.78736 83.5886 3.57294C83.269 3.35853 82.8991 3.25342 82.424 3.25342C81.8396 3.25342 81.3645 3.35853 80.9904 3.57294C80.6162 3.78736 80.406 4.10267 80.3009 4.47264C80.3009 4.5273 80.3009 4.6324 80.3009 4.73751C80.3009 5.05703 80.4606 5.32189 80.8306 5.5321C81.2006 5.74231 81.8901 5.90207 82.794 6.11649C84.2781 6.38135 85.3375 6.80598 85.9765 7.33571C86.666 7.86544 86.9856 8.55492 86.9856 9.45883C86.9856 9.77835 86.9309 10.0937 86.8805 10.4132C86.6156 11.7375 85.8714 12.7465 84.7573 13.436C83.6432 14.1255 82.1591 14.445 80.3555 14.445L80.4102 14.4997Z" fill="white"/>
<path d="M89.6997 14.3406C89.5399 14.3406 89.4348 14.2859 89.3801 14.1808C89.3255 14.0757 89.275 13.9706 89.3255 13.8108L92.0288 1.13517C92.0288 0.975406 92.1339 0.870301 92.239 0.765196C92.3441 0.660091 92.5039 0.605436 92.609 0.605436H94.7321C95.0516 0.605436 95.2618 0.765196 95.3165 1.03006L97.4396 7.18081L102.211 1.03006C102.266 0.924955 102.371 0.81985 102.476 0.710541C102.581 0.601232 102.741 0.550781 102.956 0.550781H105.079C105.238 0.550781 105.344 0.605436 105.398 0.710541C105.453 0.765196 105.453 0.870301 105.453 0.920751C105.453 0.971202 105.453 0.975406 105.453 1.02586L102.75 13.7015C102.695 13.8613 102.644 13.9664 102.539 14.0715C102.434 14.1766 102.274 14.2313 102.169 14.2313H99.7813C99.6216 14.2313 99.5165 14.1766 99.4618 14.0715C99.4072 13.9664 99.3567 13.8613 99.4072 13.7015L100.946 6.54177L97.9231 10.5189C97.818 10.6787 97.6582 10.7838 97.5531 10.8385C97.448 10.8931 97.2882 10.9436 97.1285 10.9436H96.1195C95.8546 10.9436 95.6402 10.7838 95.5351 10.5189L94.1561 6.38201L92.5627 13.7562C92.5081 13.9159 92.4576 14.0211 92.3525 14.1262C92.2474 14.2313 92.0876 14.2859 91.9825 14.2859H89.6492L89.6997 14.3406Z" fill="white"/>
</g>
<defs>
<clipPath id="clip0_2242_4102">
<rect width="105.105" height="14" fill="white" transform="translate(0.445312 0.5)"/>
</clipPath>
</defs>
</svg>
