<svg opacity="0.5" width="120" height="27" viewBox="0 0 120 27" fill="none" xmlns="http://www.w3.org/2000/svg">
<g clip-path="url(#clip0_2242_3974)">
<path d="M21.2923 8.80185C20.7727 8.48639 20.1047 8.48639 19.5294 8.80185L15.5026 11.2513L12.7563 12.8472L8.72945 15.2967C8.20986 15.6122 7.54182 15.6122 6.96656 15.2967L3.75625 13.3854C3.23666 13.0699 2.88409 12.4761 2.88409 11.8452V8.07814C2.88409 7.44722 3.19955 6.8534 3.75625 6.53794L6.91089 4.68227C7.43048 4.36681 8.09852 4.36681 8.67378 4.68227L11.8284 6.53794C12.348 6.8534 12.7006 7.44722 12.7006 8.07814V10.5276L15.447 8.87609V6.4266C15.447 5.79567 15.1315 5.20186 14.5748 4.88639L8.72945 1.37918C8.20986 1.06371 7.54182 1.06371 6.96656 1.37918L1.02842 4.88639C0.453158 5.20186 0.15625 5.79567 0.15625 6.4266V13.4781C0.15625 14.1091 0.471715 14.7029 1.02842 15.0183L6.96656 18.5256C7.48615 18.841 8.15419 18.841 8.72945 18.5256L12.7563 16.1318L15.5026 14.4802L19.5294 12.0864C20.049 11.7709 20.7171 11.7709 21.2923 12.0864L24.447 13.9421C24.9666 14.2575 25.3191 14.8513 25.3191 15.4823V19.2493C25.3191 19.8802 25.0037 20.474 24.447 20.7895L21.2923 22.7008C20.7727 23.0163 20.1047 23.0163 19.5294 22.7008L16.3748 20.8452C15.8552 20.5297 15.5026 19.9359 15.5026 19.3049V16.8555L12.7563 18.507V20.9565C12.7563 21.5874 13.0717 22.1812 13.6284 22.4967L19.5666 26.0039C20.0861 26.3194 20.7542 26.3194 21.3294 26.0039L27.2676 22.4967C27.7872 22.1812 28.1398 21.5874 28.1398 20.9565V13.9049C28.1398 13.274 27.8243 12.6802 27.2676 12.3647L21.2923 8.80185Z" fill="#71717A"/>
<path d="M39.0912 23.9813V18.1174C39.7221 18.9153 40.8726 19.3607 42.1901 19.3607C45.5675 19.3607 47.8685 16.9298 47.8685 13.237C47.8685 9.54421 45.7716 7.11328 42.4685 7.11328C40.9468 7.11328 39.7778 7.66998 39.0912 8.59782V7.29885H35.8438V23.9628H39.0912V23.9813ZM41.8005 16.5401C40.0561 16.5401 38.9056 15.2226 38.9056 13.237C38.9056 11.2329 40.0561 9.91534 41.8005 9.91534C43.5077 9.91534 44.6767 11.2329 44.6767 13.237C44.6582 15.2226 43.4891 16.5401 41.8005 16.5401Z" fill="white"/>
<path d="M55.2321 19.3607C58.8507 19.3607 61.4486 16.7628 61.4486 13.237C61.4486 9.71122 58.8507 7.11328 55.2321 7.11328C51.6136 7.11328 49.0156 9.71122 49.0156 13.237C49.0156 16.7628 51.6136 19.3607 55.2321 19.3607ZM55.2321 16.5401C53.4878 16.5401 52.2816 15.204 52.2816 13.237C52.2816 11.2514 53.4692 9.91534 55.2321 9.91534C56.9764 9.91534 58.1826 11.2514 58.1826 13.237C58.1826 15.204 56.9764 16.5401 55.2321 16.5401Z" fill="white"/>
<path d="M66.6459 19.1747V2.1582H63.3984V19.1747H66.6459Z" fill="white"/>
<path d="M76.411 7.31738L73.9616 14.9627L71.4935 7.31738H68.1719L72.4399 19.0823L70.7141 23.9813H73.8131L75.4647 19.138L79.7327 7.31738H76.411Z" fill="white"/>
<path d="M88.8759 8.48648C88.2265 7.66998 87.0574 7.11328 85.6285 7.11328C82.1955 7.11328 80.1172 9.54421 80.1172 13.237C80.1172 16.9298 82.1955 19.3607 85.6842 19.3607C87.0574 19.3607 88.3007 18.8411 88.9131 17.969V19.5277C88.9131 20.6411 88.1893 21.4019 87.2058 21.4019H81.7687V23.9628H87.7069C90.3605 23.9628 92.1419 22.3298 92.1419 19.8617V7.29885H88.8759V8.48648ZM86.1852 16.5401C84.4595 16.5401 83.3089 15.2411 83.3089 13.237C83.3089 11.2329 84.4595 9.91534 86.1852 9.91534C87.9296 9.91534 89.0801 11.2329 89.0801 13.237C89.0801 15.2411 87.9296 16.5401 86.1852 16.5401Z" fill="white"/>
<path d="M100.326 19.3607C103.944 19.3607 106.542 16.7628 106.542 13.237C106.542 9.71122 103.944 7.11328 100.326 7.11328C96.7073 7.11328 94.1094 9.71122 94.1094 13.237C94.1094 16.7628 96.7073 19.3607 100.326 19.3607ZM100.326 16.5401C98.5815 16.5401 97.3753 15.204 97.3753 13.237C97.3753 11.2514 98.563 9.91534 100.326 9.91534C102.07 9.91534 103.276 11.2514 103.276 13.237C103.258 15.204 102.07 16.5401 100.326 16.5401Z" fill="white"/>
<path d="M111.571 19.1751V12.6803C111.571 11.1586 112.573 10.0452 114.002 10.0452C115.356 10.0452 116.266 11.0844 116.266 12.5133V19.1751H119.531V11.7896C119.531 9.06173 117.806 7.13184 115.134 7.13184C113.519 7.13184 112.22 7.81844 111.552 8.96895V7.3174H108.305V19.1751H111.571Z" fill="white"/>
</g>
<defs>
<clipPath id="clip0_2242_3974">
<rect width="120" height="25.9794" fill="white" transform="translate(0 0.510742)"/>
</clipPath>
</defs>
</svg>
