<svg opacity="0.5" width="108" height="21" viewBox="0 0 108 21" fill="none" xmlns="http://www.w3.org/2000/svg">
<g clip-path="url(#clip0_2242_4009)">
<path d="M33.4514 4.54969V20.4147H36.9967V8.0802H41.0205C41.0984 8.56601 41.2319 9.00362 41.2319 9.44493C41.2504 12.7233 41.2393 16.0016 41.243 19.2799C41.243 19.6656 41.2912 20.055 41.3172 20.4332H44.8885V8.1247H49.0494V20.4444H52.5577C52.591 20.2552 52.643 20.1069 52.643 19.9623C52.6467 15.5417 52.6615 11.1175 52.6244 6.69692C52.6244 6.28899 52.3611 5.79575 52.0644 5.49166C50.7887 4.1603 47.8145 3.96746 46.3274 5.04663C45.8415 5.39894 45.3335 5.71788 44.8365 6.05535C44.8365 5.9478 44.8365 5.84396 44.8365 5.73642C43.9057 5.30623 42.9934 4.56824 42.0403 4.50519C39.3331 4.32347 36.6074 4.41619 33.8927 4.40877C33.7481 4.40877 33.6035 4.49407 33.444 4.54599L33.4514 4.54969ZM107.911 14.2845C107.911 12.2597 107.929 10.3461 107.907 8.4325C107.889 6.67467 106.339 4.99472 104.577 4.95021C102.014 4.88346 99.4481 4.88717 96.8855 4.95021C95.1388 4.99101 93.6443 6.5115 93.6146 8.2545C93.5664 11.2213 93.5516 14.1918 93.622 17.1586C93.6665 19.024 95.1499 20.3331 96.5295 20.411C99.6632 20.589 102.819 20.4666 106.031 20.4666C106.368 19.3355 106.695 18.2415 107.058 17.0288C106.52 16.9992 106.19 16.9658 105.856 16.9658C103.353 16.9621 100.854 16.9472 98.3504 16.9695C97.4974 16.9769 97.1043 16.6431 97.1154 15.7642C97.1414 13.6949 97.1266 11.6218 97.1154 9.54877C97.1154 8.89607 97.3305 8.45476 98.0574 8.45105C99.8189 8.44363 101.577 8.44734 103.338 8.45105C103.987 8.45105 104.303 8.80336 104.295 9.44122C104.291 9.86399 104.258 10.2831 104.225 10.9469H100.03C99.6595 12.1707 99.3591 13.1609 99.0142 14.2957H107.903L107.911 14.2845ZM5.05534 14.8186C5.35944 14.9298 5.52632 15.0411 5.69321 15.0411C7.26932 15.0411 8.86028 15.156 10.4179 14.9892C12.4464 14.7704 14.0003 13.6652 14.5158 11.6255C14.8199 10.424 14.7902 9.12229 14.7976 7.86139C14.8199 4.43102 12.8951 2.49147 9.49072 2.47293C6.67967 2.45809 3.86491 2.46551 1.05386 2.47293C0.72751 2.47293 0.401161 2.52856 0.0859375 2.56193V20.437H3.57565V6.01085C5.87121 6.01085 7.96652 5.96264 10.0544 6.03681C10.811 6.06277 11.2411 6.645 11.2523 7.44604C11.2597 8.09503 11.2634 8.74402 11.2597 9.39672C11.2597 11.1212 10.8406 11.5402 9.14212 11.5439C8.10374 11.5439 7.06906 11.5439 6.04922 11.5439C5.6895 12.7344 5.3854 13.732 5.05534 14.826V14.8186ZM87.2174 20.4592C88.775 15.3118 90.3177 10.2052 91.9013 4.97246H87.9888C86.9059 8.71064 85.8193 12.4451 84.7364 16.1833C84.6066 16.1759 84.4805 16.1648 84.3507 16.1573C83.2716 12.4303 82.1961 8.70323 81.128 5.01326H77.2044C78.7991 10.2719 80.3493 15.386 81.8883 20.4629H87.2174V20.4592ZM61.3876 1.4605C61.3172 1.71268 61.2541 1.82765 61.2541 1.94632C61.2504 7.04552 61.2207 12.1484 61.2727 17.2476C61.2875 18.6902 62.6856 20.3072 64.0874 20.4184C65.9194 20.563 67.77 20.4555 69.6576 20.4555V16.9584C68.3708 16.9584 67.2026 16.9658 66.0307 16.9584C64.9923 16.9472 64.7661 16.7284 64.7624 15.7086C64.7512 13.7616 64.755 11.8147 64.7624 9.8677C64.7624 9.44493 64.8069 9.02587 64.8365 8.45105H68.7008C69.068 7.2532 69.3943 6.18515 69.7837 4.91313H64.7253V1.4605H61.3876ZM20.6682 20.4332C20.6941 19.9845 20.7386 19.5914 20.7386 19.1946C20.7461 16.0757 20.7386 12.9532 20.7461 9.83432C20.7461 8.64018 20.95 8.45105 22.159 8.44363C22.9563 8.43992 23.7499 8.44363 24.614 8.44363C24.97 7.27916 25.3001 6.21111 25.6598 5.03551H17.3305V20.437H20.6719L20.6682 20.4332ZM72.0941 4.9873V20.4184H75.4429V4.9873H72.0941ZM55.2686 4.9873V20.4147H58.5284V4.99101H55.2686V4.9873ZM30.811 20.4444V5.02067H27.4955V20.4481H30.811V20.4444ZM55.2834 0.5V3.69303C56.4924 3.30734 57.5234 2.97729 58.5358 2.65464V0.5H55.2834ZM72.0793 0.5V3.68561C73.2994 3.31476 74.3897 2.9847 75.4466 2.66206V0.5H72.0793ZM27.477 3.68932C28.7008 3.29993 29.78 2.95503 30.8221 2.62127V0.533377H27.477V3.68932Z" fill="white"/>
<path d="M33.4531 4.54968C33.6126 4.49777 33.7572 4.41247 33.9019 4.41247C36.6202 4.41989 39.3459 4.32717 42.0495 4.50889C43.0062 4.57194 43.9148 5.30993 44.8457 5.74012C44.8457 5.84766 44.8457 5.9515 44.8457 6.05905C45.3426 5.72528 45.8507 5.40264 46.3365 5.05033C47.8236 3.96745 50.7978 4.164 52.0736 5.49536C52.3665 5.80316 52.6298 6.29268 52.6335 6.70062C52.6706 11.1212 52.6558 15.5454 52.6521 19.966C52.6521 20.1143 52.6002 20.2589 52.5668 20.4481H49.0585V8.12469H44.8976V20.4295H41.3263C41.3003 20.0476 41.2521 19.6619 41.2521 19.2762C41.2447 15.9979 41.2558 12.7195 41.241 9.44121C41.241 9.00361 41.1075 8.56229 41.0296 8.07648H37.0059V20.411H33.4605V4.54968H33.4531Z" fill="white"/>
<path d="M107.914 14.2849H99.025C99.3699 13.1501 99.6703 12.1599 100.041 10.9361H104.235C104.269 10.276 104.302 9.85323 104.306 9.43046C104.313 8.79631 103.998 8.444 103.349 8.44029C101.588 8.43658 99.8298 8.43288 98.0682 8.44029C97.3451 8.44029 97.1263 8.88531 97.1263 9.53801C97.1337 11.6111 97.1485 13.6804 97.1263 15.7535C97.1152 16.6324 97.5083 16.9662 98.3612 16.9587C100.864 16.9365 103.364 16.9513 105.867 16.955C106.197 16.955 106.531 16.9884 107.069 17.0181C106.705 18.2308 106.379 19.3248 106.042 20.4559C102.83 20.4559 99.674 20.5782 96.5403 20.4002C95.1608 20.3224 93.6737 19.0133 93.6329 17.1479C93.5624 14.1811 93.5809 11.2105 93.6254 8.24374C93.6514 6.50074 95.1496 4.98025 96.8963 4.93946C99.4589 4.88012 102.025 4.87641 104.588 4.93946C106.349 4.98396 107.896 6.66392 107.918 8.42175C107.94 10.3353 107.922 12.2489 107.922 14.2738L107.914 14.2849Z" fill="white"/>
<path d="M5.05534 14.8227C5.38911 13.725 5.6895 12.7311 6.04922 11.5407C7.06906 11.5407 8.10745 11.5407 9.14212 11.5407C10.8406 11.5407 11.256 11.1179 11.2597 9.39349C11.2597 8.7445 11.2597 8.09551 11.2523 7.44281C11.2411 6.64177 10.811 6.05954 10.0544 6.03358C7.96282 5.95941 5.86751 6.00762 3.57565 6.00762V20.4337H0.0859375V2.56241C0.404869 2.53274 0.72751 2.47712 1.05386 2.47341C3.86491 2.46599 6.67967 2.45857 9.49072 2.47341C12.8914 2.49195 14.8199 4.4315 14.7976 7.86187C14.7902 9.11906 14.8199 10.4245 14.5158 11.626C13.9966 13.6657 12.4464 14.7671 10.4179 14.9896C8.86028 15.1602 7.26932 15.0453 5.69321 15.0416C5.52632 15.0416 5.35944 14.9303 5.05534 14.819V14.8227Z" fill="white"/>
<path d="M87.2239 20.4631H81.8948C80.3558 15.3862 78.8056 10.2721 77.2109 5.01345H81.1345C82.2026 8.70342 83.2781 12.4305 84.3572 16.1575C84.487 16.1649 84.6131 16.1761 84.7429 16.1835C85.8258 12.449 86.9124 8.71083 87.9953 4.97266H91.9078C90.3242 10.2054 88.7815 15.3157 87.2239 20.4594V20.4631Z" fill="white"/>
<path d="M61.386 1.46034H64.7236V4.90184H69.7821C69.3927 6.17386 69.0663 7.24191 68.6992 8.43976H64.8349C64.8015 9.01458 64.7607 9.43364 64.7607 9.85641C64.7533 11.8034 64.7496 13.7503 64.7607 15.6973C64.7681 16.7209 64.9944 16.936 66.029 16.9471C67.1972 16.9582 68.3691 16.9471 69.656 16.9471V20.4442C67.7683 20.4442 65.9178 20.5518 64.0858 20.4071C62.684 20.2959 61.2859 18.679 61.271 17.2364C61.2228 12.1371 61.2488 7.03424 61.2525 1.93503C61.2525 1.82007 61.3155 1.7014 61.386 1.44922V1.46034Z" fill="white"/>
<path d="M20.6695 20.4337H17.3281V5.03223H25.6574C25.2977 6.20782 24.9677 7.27588 24.6116 8.44035C23.7476 8.44035 22.9502 8.43664 22.1566 8.44035C20.9476 8.44777 20.7474 8.64061 20.7437 9.83104C20.74 12.9499 20.7437 16.0725 20.7362 19.1913C20.7362 19.5844 20.6917 19.9812 20.6658 20.43L20.6695 20.4337Z" fill="white"/>
<path d="M72.0938 4.9873H75.4425V20.4184H72.0938V4.9873Z" fill="white"/>
<path d="M55.2656 4.99121H58.5254V20.4186H55.2656V4.99121Z" fill="white"/>
<path d="M30.8076 20.4479H27.4922V5.02051H30.8076V20.4479Z" fill="white"/>
<path d="M55.2812 0.5H58.5336V2.65464C57.5212 2.97729 56.4902 3.30734 55.2812 3.69303V0.5Z" fill="white"/>
<path d="M72.0781 0.5H75.4455V2.66206C74.3885 2.9847 73.3019 3.31476 72.0781 3.68561V0.5Z" fill="white"/>
<path d="M27.4766 3.68915V0.533203H30.8216V2.6248C29.7795 2.95857 28.7004 3.29975 27.4766 3.69285V3.68915Z" fill="white"/>
</g>
<defs>
<clipPath id="clip0_2242_4009">
<rect width="107.832" height="20" fill="white" transform="translate(0.0859375 0.5)"/>
</clipPath>
</defs>
</svg>
