<svg opacity="0.5" width="120" height="21" viewBox="0 0 120 21" fill="none" xmlns="http://www.w3.org/2000/svg">
<path d="M15.6895 16.9771C14.3451 16.9771 13.3369 16.641 12.4406 16.0808C11.6564 15.5207 11.3203 14.6244 11.3203 13.6161H13.5609C13.5609 14.0643 13.673 14.4004 14.1211 14.7364C14.4572 14.9605 15.0173 15.0725 15.6895 15.0725H16.6978C17.2876 15.0732 17.8671 14.9186 18.3783 14.6244C18.7144 14.2883 18.9384 13.8402 18.9384 13.3921C18.9384 12.8319 18.7144 12.4958 18.3783 12.1597C17.9435 11.8613 17.4445 11.6695 16.9219 11.5996L15.2414 11.2635C12.7767 10.9274 11.5444 9.69505 11.5444 7.79053C11.5175 7.28702 11.6042 6.78392 11.7981 6.31848C11.992 5.85305 12.2882 5.43721 12.6647 5.10178C13.3369 4.54163 14.4572 4.20554 15.8015 4.20554H16.6978C17.9301 4.20554 18.9384 4.54163 19.8347 5.10178C20.5068 5.66194 20.955 6.44616 20.955 7.3424H18.7144C18.7144 7.00631 18.4903 6.67022 18.1542 6.44615C17.8181 6.22209 17.258 6.11006 16.6978 6.11006H15.6895C15.0173 6.11006 14.5692 6.33412 14.1211 6.55819C13.785 6.89428 13.5609 7.23037 13.5609 7.67849C13.5609 8.57474 14.2331 9.1349 15.4655 9.35896L17.1459 9.58302C18.2662 9.58302 19.1625 10.0311 20.0587 10.7033C20.7309 11.3755 20.955 12.1597 20.955 13.28C20.9819 13.7835 20.8952 14.2866 20.7012 14.7521C20.5073 15.2175 20.2111 15.6334 19.8347 15.9688C19.0504 16.641 17.9301 16.9771 16.4737 16.9771H15.6895ZM28.5731 16.9771C27.1167 16.9771 25.9964 16.5289 25.1001 15.7447C24.2039 14.8485 23.6437 13.5041 23.7557 12.2718V4.4296H25.9964V12.2718C25.9964 13.168 26.2204 13.8402 26.6685 14.2883C26.9183 14.539 27.2152 14.7379 27.542 14.8736C27.8688 15.0093 28.2192 15.0791 28.5731 15.0791C28.927 15.0791 29.2773 15.0093 29.6042 14.8736C29.931 14.7379 30.2278 14.539 30.4776 14.2883C30.9257 13.8402 31.1498 13.168 31.1498 12.2718V4.4296H33.3904V12.2718C33.3904 13.7282 32.9423 14.8485 32.046 15.6327C31.2618 16.5289 30.0295 16.9771 28.5731 16.9771ZM40.3363 16.9771C39.104 16.9771 38.0957 16.5289 37.3115 15.7447C36.6393 14.9605 36.1912 13.7282 36.1912 12.3838V8.7988C36.1912 7.5868 36.5843 6.40748 37.3115 5.43788C38.0957 4.65366 39.104 4.20554 40.3363 4.20554C41.1396 4.15406 41.9347 4.39258 42.5769 4.87772C43.1371 5.32585 43.4732 5.99803 43.6973 6.78225V0.396484H45.9379V16.753H43.6973V14.5124C43.4732 15.1846 43.1371 15.8568 42.5769 16.3049C42.0168 16.753 41.2326 16.9771 40.3363 16.9771ZM41.1205 15.0725C41.9048 15.0725 42.4649 14.8485 43.0251 14.2883C43.4732 13.8402 43.6973 13.168 43.6973 12.2718V8.91084C43.6973 8.01459 43.4732 7.3424 43.0251 6.89428C42.4649 6.33412 41.9048 6.11006 41.1205 6.11006C40.2243 6.11006 39.6641 6.33412 39.104 6.89428C38.6559 7.3424 38.4318 8.01459 38.4318 8.91084V12.2718C38.4318 13.168 38.6559 13.8402 39.104 14.2883C39.6641 14.8485 40.2243 15.0725 41.1205 15.0725ZM53.668 16.9771C52.2116 16.9771 50.9793 16.5289 50.083 15.6327C49.643 15.1927 49.2969 14.668 49.0658 14.0902C48.8347 13.5125 48.7234 12.8938 48.7386 12.2718V8.91084C48.7167 8.28793 48.8249 7.6673 49.0564 7.08859C49.2879 6.50988 49.6375 5.98582 50.083 5.54991C50.9793 4.65366 52.2116 4.20554 53.668 4.20554C55.2364 4.20554 56.3567 4.65366 57.253 5.54991C57.6985 5.98582 58.0481 6.50988 58.2796 7.08859C58.5111 7.6673 58.6193 8.28793 58.5974 8.91084V12.2718C58.6193 12.8947 58.5111 13.5153 58.2796 14.094C58.0481 14.6727 57.6985 15.1968 57.253 15.6327C56.3567 16.5289 55.2364 16.9771 53.668 16.9771ZM53.668 14.9605C54.5643 14.9605 55.1244 14.7364 55.6846 14.2883C56.1327 13.8402 56.3567 13.168 56.3567 12.1597V9.02287C56.3567 8.01459 56.1327 7.3424 55.6846 6.89428C55.1244 6.44616 54.5643 6.22209 53.668 6.22209C52.8838 6.22209 52.2116 6.44616 51.6514 6.89428C51.2033 7.3424 50.9793 8.01459 50.9793 9.02287V12.1597C50.9793 13.168 51.2033 13.8402 51.6514 14.2883C52.2116 14.7364 52.7718 14.9605 53.668 14.9605ZM65.7673 16.9771C64.535 16.9771 63.5267 16.641 62.6305 16.0808C62.2376 15.8036 61.9195 15.4335 61.7044 15.0034C61.4894 14.5734 61.3842 14.0968 61.3981 13.6161H63.6388C63.6388 14.0643 63.8628 14.4004 64.1989 14.7364C64.647 14.9605 65.2072 15.0725 65.8794 15.0725H66.7756C67.5598 15.0725 68.12 14.8485 68.5681 14.6244C68.9042 14.2883 69.1283 13.8402 69.1283 13.3921C69.1283 12.8319 68.9042 12.4958 68.5681 12.1597C68.1006 11.8444 67.5612 11.6518 66.9997 11.5996L65.3192 11.2635C62.8545 10.9274 61.6222 9.69505 61.6222 7.79053C61.6222 6.67022 62.0703 5.77397 62.7425 5.10178C63.7078 4.4766 64.8421 4.16369 65.9914 4.20554H66.8876C68.12 4.20554 69.1283 4.54163 69.9125 5.10178C70.6967 5.66194 71.0328 6.44616 71.0328 7.3424H68.7922C68.7922 7.00631 68.6801 6.67022 68.232 6.44615C67.8959 6.22209 67.4478 6.11006 66.7756 6.11006H66.1034C65.3192 6.11006 64.8711 6.33412 64.535 6.55819C64.0869 6.89428 63.9748 7.23037 63.9748 7.67849C63.9748 8.57474 64.535 9.1349 65.7673 9.35896L67.4478 9.58302C68.5681 9.58302 69.6884 10.0311 70.4726 10.7033C71.0328 11.3755 71.3689 12.1597 71.3689 13.28C71.3958 13.7835 71.3091 14.2866 71.1151 14.7521C70.9212 15.2175 70.625 15.6334 70.2486 15.9688C69.4644 16.641 68.3441 16.9771 66.8876 16.9771H65.8794H65.7673ZM74.7298 16.753L72.7133 4.4296H74.6178L75.7381 12.8319L76.0742 15.0725L76.4103 12.8319L77.7547 4.4296H79.7712L81.1156 12.8319L81.4517 15.0725L81.7878 12.8319L82.9081 4.4296H84.8126L82.796 16.753H80.3314L79.099 8.46271L78.7629 6.22209C78.7629 7.00631 78.5389 7.6785 78.4268 8.46271L77.0825 16.753H74.7298ZM90.1901 16.9771C89.0698 16.9771 87.9495 16.641 87.0532 15.9688C86.381 15.2966 85.9329 14.4003 85.9329 13.28C85.906 12.7765 85.9927 12.2734 86.1866 11.808C86.3806 11.3426 86.6768 10.9267 87.0532 10.5913C87.9495 9.91911 88.9577 9.47099 90.3021 9.47099H93.8871V8.35068C93.8981 8.03923 93.844 7.72891 93.7282 7.43956C93.6125 7.1502 93.4377 6.88817 93.2149 6.67022C92.7668 6.33412 92.0946 6.11006 91.4224 6.11006C90.6382 6.11006 90.0781 6.22209 89.6299 6.55819C89.1818 6.89428 88.8457 7.23037 88.7337 7.67849H86.4931C86.6051 7.00631 86.9412 6.44615 87.2773 5.886C87.7254 5.32584 88.3976 4.98975 89.0698 4.65366C89.742 4.31757 90.5262 4.20554 91.3104 4.20554C92.8788 4.20554 93.9991 4.54163 94.7833 5.32584C95.6796 6.11006 96.1277 7.00631 96.1277 8.35068V16.753H93.8871V14.5124C93.8871 15.2966 93.439 15.8568 92.7668 16.3049C91.9958 16.7849 91.0973 17.0193 90.1901 16.9771ZM90.7502 15.2966C91.6465 15.2966 92.4307 15.0725 92.9909 14.6244C93.551 14.0643 93.8871 13.5041 93.8871 12.8319V11.1515H90.3021C89.7268 11.1297 89.1651 11.3303 88.7337 11.7116C88.3976 12.0477 88.1735 12.4958 88.1735 13.168C88.1735 13.8402 88.3976 14.2883 88.8457 14.7364C89.2938 15.0725 89.966 15.2966 90.7502 15.2966ZM99.1526 20.7861V4.4296H101.393V6.67022C101.393 5.99803 101.841 5.32585 102.513 4.87772C103.156 4.39258 103.951 4.15406 104.754 4.20554C105.874 4.20554 106.995 4.65366 107.667 5.43788C108.394 6.40748 108.787 7.5868 108.787 8.7988V12.3838C108.787 13.7282 108.339 14.9605 107.667 15.7447C106.883 16.5289 105.874 16.9771 104.642 16.9771C103.746 16.9771 103.074 16.753 102.401 16.3049C101.841 15.8568 101.505 15.1846 101.281 14.4003V20.7861H99.0405H99.1526ZM103.97 15.0725C104.754 15.0725 105.426 14.8485 105.874 14.2883C106.323 13.8402 106.547 13.168 106.547 12.2718V8.91084C106.547 8.01459 106.323 7.3424 105.874 6.89428C105.426 6.33412 104.754 6.11006 103.97 6.11006C103.074 6.11006 102.513 6.33412 102.065 6.89428C101.505 7.3424 101.281 8.01459 101.281 8.91084V12.2718C101.281 13.168 101.505 13.8402 102.065 14.2883C102.513 14.8485 103.186 15.0725 103.97 15.0725Z" fill="white"/>
<path d="M0 0.214844H2.57671L5.60155 8.61716L2.46468 17.0195H0L3.13687 8.61716L0 0.214844Z" fill="white"/>
<path d="M120 0.214844H117.423L114.398 8.61716L117.535 17.0195H120L116.863 8.61716L120 0.214844Z" fill="white"/>
</svg>
