<svg opacity="0.5" width="120" height="27" viewBox="0 0 120 27" fill="none" xmlns="http://www.w3.org/2000/svg">
<g clip-path="url(#clip0_2242_3946)">
<path d="M10.4447 12.842C10.979 13.7771 9.77675 14.0442 9.2424 14.111C8.44089 14.1778 8.24051 13.7103 8.3741 13.1091C8.44089 12.9088 8.57448 12.7084 8.70806 12.5748C8.84165 12.4412 9.10882 12.3076 9.3092 12.3076C9.50958 12.3076 9.77675 12.3076 9.91033 12.4412C10.1775 12.508 10.3111 12.6416 10.4447 12.842Z" fill="#71717A"/>
<path d="M13.6489 11.1719C13.0478 15.8474 21.1965 14.8455 21.0629 18.5191C21.8644 17.4504 22.1984 14.6451 19.8606 13.1757C17.7233 11.8398 14.9847 12.5745 13.6489 11.1719Z" fill="#71717A"/>
<path d="M18.3914 9.36894C18.3246 9.30214 18.2578 9.30214 18.2578 9.23535C18.2578 9.30214 18.3246 9.36894 18.3914 9.36894Z" fill="#71717A"/>
<path d="M20.2652 12.7754C20.1985 12.6418 20.1317 12.5082 19.9981 12.3747C19.7309 11.9739 19.3301 11.7067 18.8626 11.6399C18.5954 11.5731 18.2615 11.5064 17.9275 11.5064C17.5935 11.5064 17.3264 11.4396 16.9924 11.4396C16.3245 11.3728 15.7233 11.306 15.0554 11.1724C14.9218 11.1056 14.7214 11.1056 14.5879 11.0388C14.5211 11.0388 14.4543 10.972 14.3207 10.972C14.2539 10.9052 14.1871 10.9052 14.0535 10.8384C13.7195 10.7048 13.4524 10.4377 13.252 10.2373C12.7844 9.76974 12.3837 9.2354 11.9829 8.76785C11.5822 8.2335 11.2482 7.76595 10.7807 7.2984C10.3799 6.83085 9.84556 6.4301 9.31122 6.16293C8.77688 5.89575 8.10895 5.69538 7.50781 5.62858C8.17574 5.56179 8.84367 5.62858 9.4448 5.89576C10.0459 6.16293 10.6471 6.49689 11.1146 6.96444C11.4486 7.23161 11.7158 7.56558 11.9829 7.89954C14.0535 7.49878 15.6565 7.83275 16.9256 8.56747C17.3264 8.76785 17.7271 9.03502 18.0611 9.36898C18.1279 9.43577 18.1947 9.43577 18.1947 9.50257C18.4618 9.76974 18.729 10.0369 18.9294 10.3041C19.8645 11.1724 20.2652 12.1743 20.2652 12.7754Z" fill="#71717A"/>
<path d="M7.70742 6.16211C8.24176 6.2289 8.7761 6.42928 9.11007 6.83004C9.44403 7.23079 9.57762 7.76514 9.7112 8.23269C9.778 8.63345 9.84479 9.0342 9.97837 9.36816C10.0452 9.56854 10.1788 9.70213 10.2455 9.83571C10.3123 9.9693 10.4459 10.1029 10.5127 10.2365V10.3033V10.3701C10.3123 10.5704 9.84479 10.3701 9.64441 10.2365C9.31045 10.1029 9.04327 9.83572 8.7761 9.56855C8.04138 8.76703 7.64062 7.56476 7.64062 6.49607C7.64063 6.42928 7.70742 6.2957 7.70742 6.16211Z" fill="#71717A"/>
<path d="M16.3844 15.5137C15.2489 18.6529 20.392 20.7903 18.455 23.9964C20.392 23.1948 21.3271 20.7235 20.5256 18.7865C19.8577 17.0499 17.7203 16.382 16.3844 15.5137Z" fill="#71717A"/>
<path d="M9.64062 19.5874C9.97459 19.387 10.3086 19.1866 10.6425 18.9863C10.9765 18.8527 11.3772 18.7191 11.778 18.6523C12.5127 18.5187 13.3142 18.4519 13.9154 18.1848C14.2493 18.0512 14.5165 17.9176 14.7837 17.6504C15.0508 17.45 15.1844 17.1829 15.318 16.8489C15.4516 16.5149 15.4516 16.181 15.4516 15.847C15.4516 15.4462 15.318 15.1123 15.1844 14.7783C15.4516 15.0455 15.652 15.4462 15.7856 15.847C15.9191 16.2478 15.9192 16.6485 15.8524 17.0493C15.7856 17.45 15.5184 17.8508 15.2512 18.1848C14.9841 18.4519 14.5833 18.7191 14.1825 18.8527C13.7818 18.9863 13.381 19.0531 12.9803 19.1199C12.5795 19.1199 12.2455 19.1866 11.8448 19.1866C11.1101 19.1866 10.3753 19.3202 9.64062 19.5874Z" fill="#71717A"/>
<path d="M16.8537 25.1313C16.7201 25.198 16.6533 25.3316 16.5197 25.3984C16.3861 25.4652 16.2525 25.532 16.1189 25.5988C15.8518 25.7324 15.5178 25.7992 15.1838 25.7992C14.3155 25.7992 13.7144 25.1313 13.3804 24.3965C13.1133 23.929 12.9797 23.3946 12.7125 22.9271C12.3117 22.2592 11.577 21.7248 10.7755 21.7916C10.4415 21.8584 10.1076 21.992 9.974 22.2592C9.50645 22.9939 10.1744 24.0626 11.1095 23.929C11.1763 23.929 11.2431 23.929 11.3099 23.8622C11.3766 23.8622 11.4434 23.7954 11.5102 23.7286C11.6438 23.595 11.7106 23.4614 11.7774 23.3279C11.8442 23.1943 11.8442 22.9939 11.8442 22.7935C11.7774 22.5931 11.7106 22.4595 11.577 22.3928C11.7774 22.4595 11.911 22.5931 11.9778 22.7935C11.911 23.1275 11.911 23.3279 11.911 23.5282C11.8442 23.7286 11.7774 23.929 11.6438 24.0626C11.577 24.1294 11.5102 24.1962 11.3766 24.263C11.3099 24.3297 11.1763 24.3965 11.1095 24.3965C10.9091 24.4633 10.7087 24.4633 10.5083 24.4633C10.2412 24.3965 9.90721 24.3297 9.70683 24.1294C9.43966 23.929 9.23928 23.595 8.97211 23.3946C8.70494 23.0607 8.37097 22.8603 7.97022 22.6599C7.70304 22.5263 7.43587 22.4595 7.1687 22.3928C7.03512 22.3928 6.90153 22.326 6.76794 22.326C6.70115 22.326 6.36719 22.2592 6.36719 22.2592C6.83474 21.8584 7.30229 21.5244 7.76984 21.1905C8.30418 20.8565 8.83852 20.6561 9.43966 20.4558C10.0408 20.2554 10.6419 20.2554 11.3099 20.3222C11.6438 20.389 11.911 20.4558 12.245 20.5893C12.5789 20.7229 12.8461 20.9233 13.1133 21.1237C13.3804 21.3909 13.5808 21.658 13.7144 21.9252C13.848 22.1924 13.9148 22.5263 13.9816 22.8603C14.1819 23.7954 14.1152 25.2648 15.3174 25.4652C15.3842 25.4652 15.451 25.4652 15.5178 25.4652H15.7182C15.8518 25.4652 15.9854 25.4652 16.1189 25.3984C16.3193 25.3984 16.5865 25.2648 16.8537 25.1313Z" fill="#71717A"/>
<path d="M8.63739 10.9053C8.5706 11.1056 8.50381 11.2392 8.43701 11.3728C8.23664 11.64 7.96947 11.8404 7.70229 11.9739C7.43512 12.1075 7.16795 12.1743 6.83399 12.1743C6.76719 12.1743 6.7004 12.1743 6.63361 12.1743C6.43323 12.1743 6.29964 12.2411 6.09927 12.3747C5.96568 12.5083 5.83209 12.6419 5.83209 12.8422C5.83209 12.909 5.7653 13.0426 5.7653 13.1094C5.7653 13.3766 5.69851 13.577 5.69851 13.9109C5.63172 14.4453 5.49813 14.9128 5.29775 15.3804C5.03058 15.9815 4.69662 16.5159 4.76341 17.1838C4.8302 17.6513 5.03058 17.9853 5.36454 18.2525C5.89889 18.8536 7.16795 19.1208 6.90078 20.5234C6.7004 21.3917 5.29775 22.26 3.36076 22.594C3.56114 22.594 3.09359 21.7925 3.09359 21.7257C2.89321 21.3917 2.62604 21.0578 2.49245 20.7238C2.15849 20.0559 2.0249 19.1876 2.15849 18.4528C2.29207 17.6513 2.89321 17.0502 3.36076 16.3823C3.9619 15.6475 4.56303 14.7124 4.69662 13.7106C4.69662 13.5102 4.76341 13.1762 4.8302 12.909C4.89699 12.5751 4.96379 12.3079 5.09737 11.9739C5.16417 11.7736 5.29775 11.64 5.49813 11.4396C5.56492 11.3728 5.63172 11.2392 5.63172 11.1724C5.63172 11.0388 5.63172 10.972 5.56492 10.8385L2.42566 5.16107L6.96757 10.7717C7.03437 10.8385 7.10116 10.9053 7.16795 10.9053C7.23474 10.9721 7.30154 10.972 7.43512 10.972C7.50191 10.972 7.56871 10.9721 7.70229 10.9053C7.76909 10.8385 7.83588 10.8385 7.90267 10.7717C7.96947 10.7049 7.96947 10.6381 7.96947 10.5045C7.96947 10.4377 7.96947 10.3041 7.90267 10.2373C7.6355 9.83657 7.30154 9.50261 6.96757 9.10185L5.83209 7.6992L3.56114 4.8939L0.421875 0.953125L3.82831 4.62673L6.23285 7.29844L7.43512 8.6343C7.83588 9.10185 8.23664 9.50261 8.63739 10.0369L8.70419 10.1037V10.2373C8.70419 10.5045 8.70419 10.7049 8.63739 10.9053Z" fill="#71717A"/>
<path d="M9.71051 24.0631C9.51013 23.8627 9.30975 23.6623 9.10938 23.4619C9.30975 23.7291 9.44334 23.9295 9.71051 24.0631Z" fill="#71717A"/>
<path fill-rule="evenodd" clip-rule="evenodd" d="M68.552 8.96767C66.3479 9.50201 65.346 11.2386 65.9471 13.3092C66.2143 14.1775 67.0158 15.1126 68.2181 15.7805C70.2886 16.9828 70.9566 17.4504 71.2905 18.1851C71.5577 18.7862 71.6245 18.9866 71.4909 19.5877C71.1569 20.9236 70.2218 21.5915 68.886 21.5915C67.5501 21.5915 66.615 20.8568 66.3479 19.5877C66.2811 19.0534 66.1475 18.9198 65.9471 18.9198C65.6799 18.9198 65.6131 19.0534 65.6131 20.3224V21.7251L66.4814 21.9923C67.8841 22.4598 69.8211 22.393 70.9566 21.8587C73.2275 20.79 74.0958 18.7194 73.0939 16.7824C72.6932 16.0477 71.7581 15.2462 70.155 14.2443C68.4184 13.1756 67.6837 12.4409 67.5501 11.7062C67.3498 10.5039 68.4184 9.5688 69.8879 9.5688C71.0234 9.5688 71.4909 9.83597 71.8917 10.7043C72.1588 11.2386 72.2924 11.439 72.6264 11.439C72.9604 11.439 73.0271 11.3722 72.8936 11.0382C72.8268 10.8379 72.76 10.3035 72.76 9.90277C72.76 9.36843 72.6932 9.10125 72.4928 9.03446C72.0252 8.83408 69.1532 8.76729 68.552 8.96767ZM24.4688 9.43522C24.4688 9.70239 24.6023 9.76918 24.8695 9.76918C25.671 9.76918 25.7378 9.96956 25.8046 14.8454C25.8714 19.0534 25.9382 19.3873 26.2722 20.0553C26.7397 20.9236 27.4076 21.5247 28.4095 21.9923C29.0775 22.3262 29.545 22.393 30.9477 22.393C32.4171 22.393 32.7511 22.3262 33.5526 21.9255C34.0869 21.6583 34.7548 21.1908 35.022 20.8568C35.9571 19.7213 36.0907 19.1202 36.1575 14.4447C36.2911 9.90277 36.2911 9.83597 37.0258 9.83597C37.2262 9.83597 37.293 9.70239 37.293 9.50201C37.293 9.16805 37.1594 9.16805 35.2892 9.16805C33.419 9.16805 33.2854 9.16805 33.2854 9.50201C33.2854 9.76918 33.419 9.83598 33.8197 9.90277C34.6881 9.96956 34.7548 10.3035 34.7548 14.4447C34.7548 18.6526 34.6213 19.4541 33.6862 20.3224C32.8846 21.124 32.2167 21.3911 31.0812 21.3911C29.4782 21.3911 28.2759 20.6564 27.942 19.3206C27.8084 18.853 27.7416 17.25 27.8084 14.3779L27.8752 10.1031L28.4763 9.90277C28.8103 9.76918 29.0775 9.5688 29.1442 9.43522C29.211 9.16805 28.9439 9.16805 26.8733 9.16805C24.6023 9.10125 24.4688 9.10125 24.4688 9.43522ZM40.0315 9.43522C40.0315 9.70239 40.1651 9.76918 40.499 9.76918C41.3673 9.76918 41.8349 10.1031 42.0353 10.8379C42.1688 11.2386 42.1689 13.1756 42.1689 15.9141C42.1021 20.8568 42.0353 21.1908 41.0334 21.3911C40.6994 21.4579 40.5658 21.5915 40.5658 21.7919C40.5658 22.0591 40.6994 22.1259 42.9036 22.1259C45.0409 22.1259 45.2413 22.1259 45.2413 21.8587C45.2413 21.6583 45.0409 21.5247 44.5066 21.3911C43.8387 21.1908 43.7719 21.124 43.5715 20.5896C43.3043 19.7881 43.3043 12.2405 43.5047 12.3073C43.5715 12.3073 44.2394 12.9752 44.9741 13.8435C45.7089 14.7119 47.6459 16.916 49.3825 18.7194C52.0542 21.5915 52.5217 22.1259 52.9225 22.1259H53.39L53.4568 16.2481C53.5236 12.0401 53.5904 10.3035 53.724 10.1699C53.8576 10.0364 54.1916 9.90277 54.4587 9.83597C54.7927 9.76918 54.9931 9.6356 54.9931 9.50201C54.9931 9.30163 54.5923 9.23484 52.7221 9.23484C50.518 9.16805 50.4512 9.16805 50.4512 9.50201C50.4512 9.76918 50.5848 9.83597 50.8519 9.83597C51.0523 9.83597 51.4531 10.0364 51.7202 10.2367L52.1878 10.6375L52.2546 14.6451C52.2546 16.916 52.2546 18.6526 52.1878 18.6526C52.121 18.6526 51.5866 18.1183 51.0523 17.5172C50.518 16.916 48.9817 15.1794 47.6459 13.71C46.31 12.2405 44.8406 10.6375 44.373 10.1031L43.5715 9.16805H41.8349C40.0983 9.10125 40.0315 9.10125 40.0315 9.43522ZM57.5312 9.43522C57.5312 9.70239 57.6648 9.76918 57.9988 9.76918C58.2659 9.76918 58.5999 9.90277 58.8003 10.0364C59.1342 10.2367 59.1342 10.5707 59.201 15.1794C59.2678 20.9236 59.201 21.2575 58.1991 21.3911C57.7316 21.4579 57.5312 21.5915 57.5312 21.7919C57.5312 22.0591 57.7316 22.1259 60.0693 22.1259C62.4739 22.1259 62.6075 22.1259 62.6075 21.7919C62.6075 21.5247 62.4739 21.4579 62.2067 21.4579C62.0063 21.4579 61.6724 21.3243 61.472 21.1908C61.138 20.9904 61.138 20.6564 61.0712 15.7137C61.0044 10.6375 61.0044 10.4371 61.3384 10.1031C61.5388 9.90277 61.8727 9.76918 62.0731 9.76918C62.4071 9.76918 62.4739 9.70239 62.4739 9.43522C62.4739 9.10125 62.3403 9.10125 59.9357 9.10125C57.6648 9.10125 57.5312 9.10125 57.5312 9.43522ZM75.0977 9.43522C75.1645 9.6356 75.2981 9.76918 75.5653 9.76918C75.7656 9.76918 76.0996 9.96956 76.3 10.1699C76.5004 10.3703 77.6358 13.1088 78.9049 16.3817L81.1091 22.1926L81.7102 22.2594L82.3113 22.3262L83.8476 18.1851C84.7159 15.9141 85.5174 13.8435 85.5842 13.6432C85.7846 13.2424 85.7846 13.3092 86.3189 14.6451C86.5861 15.4466 87.3876 17.4504 88.0555 19.187L89.2578 22.3262H89.7921C90.0593 22.3262 90.3265 22.2594 90.3933 22.1259C90.4601 21.9923 91.1948 20.0553 92.1299 17.7843C92.9982 15.5134 94.0001 12.9752 94.334 12.1737C95.0688 10.3035 95.2024 10.1031 95.7367 9.90277C96.0039 9.83598 96.2042 9.6356 96.2042 9.50201C96.2042 9.30163 95.8703 9.23484 94.2005 9.23484C92.3303 9.23484 92.1967 9.23484 92.1967 9.5688C92.1967 9.83598 92.3303 9.90277 92.5974 9.90277C93.2654 9.90277 93.5325 10.1031 93.5325 10.5039C93.5325 10.8379 90.3265 19.4541 90.1261 19.6545C89.9925 19.7881 87.1204 11.773 87.0536 10.9715C86.92 10.2367 87.254 9.90277 87.9887 9.90277C88.2559 9.90277 88.3895 9.83598 88.3895 9.5688C88.3895 9.23484 88.2559 9.23484 85.7846 9.23484C83.3132 9.23484 83.1796 9.23484 83.1796 9.5688C83.1796 9.76918 83.3132 9.90277 83.4468 9.90277C83.9812 9.90277 84.6491 10.4371 84.8495 10.9047C85.1166 11.6394 84.9163 12.3741 83.38 16.3817L82.111 19.7881L81.8438 19.1202C81.7102 18.7862 80.9087 16.6488 80.1072 14.4447C78.5042 10.1031 78.5042 9.90277 79.5728 9.90277C79.9736 9.90277 80.0404 9.83598 80.0404 9.5688C80.0404 9.23484 79.9068 9.23484 77.5691 9.23484C75.0309 9.10125 74.9641 9.10125 75.0977 9.43522ZM108.895 9.5688C108.895 9.5688 108.895 9.76918 108.895 9.83597C108.895 9.90277 109.095 9.90277 109.095 9.90277C109.229 9.90277 109.296 9.96956 109.429 9.96956C109.964 10.1031 110.298 10.1699 110.431 10.5039C110.498 10.7043 110.565 11.5058 110.565 15.7137C110.565 20.1221 110.565 20.6564 110.431 20.9236C110.298 21.2575 110.03 21.4579 109.362 21.6583C109.362 21.6583 109.095 21.7251 109.028 21.7919C108.962 21.8587 108.962 21.9923 108.962 21.9923C108.962 21.9923 108.962 22.1259 109.028 22.1926C109.095 22.2594 109.296 22.2594 109.296 22.2594H110.965H113.771C113.771 22.2594 113.904 22.2594 113.971 22.1926C114.038 22.1259 114.038 21.9923 114.038 21.9923C114.038 21.9923 114.038 21.8587 113.971 21.7919C113.904 21.7251 113.637 21.6583 113.637 21.6583C113.036 21.5247 112.702 21.3243 112.568 20.9904C112.435 20.7232 112.435 20.1221 112.435 18.7194V16.7156C112.502 16.7824 112.568 16.7824 112.635 16.8492C112.969 17.0496 113.37 17.3836 114.839 17.3836C116.643 17.4504 117.712 16.6488 118.379 15.7137C119.047 14.7786 119.248 13.3092 118.78 11.7062C118.313 10.1699 116.91 9.16805 114.973 9.10125C113.971 9.03446 112.435 9.10125 111.633 9.16805H111.433C110.698 9.16805 109.763 9.30163 109.296 9.30163C109.162 9.30163 109.162 9.30163 109.095 9.36842C108.895 9.50201 108.895 9.5688 108.895 9.5688ZM116.309 15.7137C117.044 15.0458 117.044 13.9771 117.044 13.2424C116.977 12.1737 116.509 10.1031 114.105 10.1031C113.504 10.1031 112.368 10.1699 112.301 10.9715C112.235 11.105 112.235 12.1069 112.235 13.5764V15.9809L112.502 16.1145C112.635 16.1813 112.836 16.2481 113.103 16.3149C114.105 16.582 115.574 16.3817 116.309 15.7137ZM100.947 9.30163C101.147 9.23484 101.281 9.16805 101.281 9.16805C101.281 9.16805 101.548 9.03446 101.614 9.16805C101.614 9.23484 101.748 9.43522 102.015 10.1031C102.082 10.2367 102.149 10.3703 102.149 10.5039C102.483 11.439 103.017 12.7749 103.284 13.5096C103.551 14.2443 104.086 15.5802 104.487 16.6488C104.887 17.6507 105.355 18.9198 105.622 19.5209C105.822 20.1221 106.156 20.6564 106.223 20.79C106.29 20.8568 106.29 20.9236 106.357 20.9904C106.557 21.2575 106.758 21.6583 107.225 21.7251C107.225 21.7251 107.559 21.7919 107.626 21.8587C107.693 21.9255 107.693 21.9923 107.693 21.9923V22.1926C107.693 22.1926 107.693 22.2594 107.626 22.2594C107.626 22.3262 107.492 22.2594 107.492 22.2594H104.687H102.683C102.683 22.2594 102.616 22.2594 102.55 22.2594C102.483 22.2594 102.483 22.1259 102.483 22.1259V21.9923C102.483 21.9923 102.483 21.8587 102.55 21.7919C102.616 21.7251 102.95 21.6583 102.95 21.6583C103.551 21.5915 103.819 21.124 103.885 20.8568V20.79C104.019 20.5228 103.952 20.3224 103.351 18.9198C102.95 17.9847 102.817 17.7175 102.75 17.6507C102.683 17.6507 101.614 17.6507 100.479 17.6507H98.2748L98.1413 17.9847C97.7405 19.0534 97.4065 20.0553 97.4065 20.3224C97.2729 20.8568 97.4733 21.5247 98.2748 21.6583C98.2748 21.6583 98.6088 21.7251 98.6756 21.7919C98.7424 21.8587 98.8092 21.9923 98.8092 21.9923V22.1259C98.8092 22.1259 98.8092 22.1926 98.7424 22.2594C98.6756 22.3262 98.542 22.2594 98.542 22.2594H96.4714H94.4676C94.4676 22.2594 94.4008 22.2594 94.334 22.1926C94.2673 22.1259 94.2673 22.0591 94.2673 22.0591V21.9255C94.2673 21.9255 94.2673 21.8587 94.4008 21.7251C94.5344 21.5915 94.8016 21.5915 94.8016 21.5915C95.3359 21.5247 95.6699 20.9236 95.8703 20.5896C95.8703 20.5896 95.8703 20.5228 95.9371 20.5228C96.0039 20.3892 96.3378 19.6545 96.6718 18.853C97.0058 18.0515 97.3397 17.1164 97.4733 16.8492C97.8741 15.8473 98.2748 14.9122 98.876 13.4428C99.2099 12.6413 99.6775 11.439 99.9446 10.7711L100.412 9.5688L100.947 9.30163ZM100.813 12.1737C100.947 12.4409 101.08 12.8417 101.147 13.042C101.214 13.2424 101.481 13.8435 101.681 14.3779C101.882 14.9122 102.149 15.5134 102.282 15.7805C102.416 16.0477 102.483 16.2481 102.483 16.2481C102.483 16.2481 101.681 16.2481 100.679 16.2481C99.5439 16.2481 98.876 16.2481 98.876 16.1813C98.876 16.1813 98.9428 16.0477 98.9428 15.9141C99.0096 15.7137 99.4103 14.6451 100.212 12.3741C100.345 12.0401 100.479 11.7062 100.479 11.6394C100.546 11.6394 100.613 11.7062 100.813 12.1737Z" fill="white"/>
</g>
<defs>
<clipPath id="clip0_2242_3946">
<rect width="120" height="26.5385" fill="white" transform="translate(0 0.230469)"/>
</clipPath>
</defs>
</svg>
