<svg opacity="0.5" width="120" height="21" viewBox="0 0 120 21" fill="none" xmlns="http://www.w3.org/2000/svg">
<g clip-path="url(#clip0_2242_4025)">
<mask id="mask0_2242_4025" style="mask-type:luminance" maskUnits="userSpaceOnUse" x="0" y="0" width="21" height="21">
<path d="M20.2653 0.708984H0.101562V20.3869H20.2653V0.708984Z" fill="white"/>
</mask>
<g mask="url(#mask0_2242_4025)">
<path d="M18.5355 15.9081C18.5228 15.9177 18.51 15.9281 18.4966 15.9372C18.4838 15.9469 18.4705 15.9561 18.4572 15.9658C18.4323 15.9833 18.4067 16.0004 18.3806 16.0168C18.3776 16.0185 18.3745 16.0205 18.3715 16.0229C18.3502 16.0362 18.3289 16.0496 18.3072 16.0623C18.275 16.0818 18.2434 16.1 18.2106 16.1182C17.9882 16.2421 17.7544 16.3417 17.5157 16.4298C17.2904 16.5123 17.0621 16.5847 16.8318 16.649C16.5021 16.7414 16.168 16.8178 15.8309 16.8846C15.5036 16.9502 15.1751 17.0055 14.8453 17.0535C14.5155 17.1015 14.1845 17.1415 13.8529 17.1762C13.7442 17.1877 13.6354 17.198 13.5267 17.2084C13.3087 17.2284 13.0907 17.2454 12.8726 17.26C12.7633 17.2672 12.654 17.274 12.5453 17.2801C12.3005 17.2941 12.0557 17.3044 11.811 17.3122C11.7666 17.3135 11.7223 17.3153 11.6774 17.3165C11.6367 17.3177 11.596 17.3189 11.5547 17.3201C11.6549 17.1962 11.7551 17.0729 11.8468 16.9424C11.8602 16.926 11.8735 16.9096 11.8863 16.8926C12.0934 16.6144 12.2914 16.3302 12.4809 16.0404C12.5003 16.0392 12.5198 16.0386 12.5386 16.0374C12.6588 16.0307 12.7791 16.0229 12.8993 16.015C12.9904 16.0088 13.0815 16.0022 13.1727 15.9949C13.8097 15.9457 14.4444 15.8753 15.076 15.7763C15.2602 15.7477 15.4429 15.7161 15.6251 15.6827C16.0515 15.6037 16.4741 15.509 16.8909 15.39C16.9826 15.3639 17.0736 15.3366 17.1647 15.308C17.2103 15.2934 17.2558 15.2789 17.3014 15.2637C17.37 15.2758 17.4326 15.3044 17.4969 15.328C17.5533 15.3487 17.6098 15.3706 17.6664 15.393C17.8261 15.4562 17.9829 15.526 18.1346 15.6069C18.1947 15.6385 18.2537 15.6719 18.312 15.7071C18.3891 15.7538 18.4644 15.803 18.5349 15.8594C18.5556 15.8759 18.5616 15.8825 18.5536 15.8923C18.55 15.8972 18.5441 15.902 18.5343 15.9093L18.5355 15.9081Z" fill="#F1ECE2"/>
<path d="M12.626 18.8425C12.6133 18.8504 12.5993 18.8504 12.5859 18.8456C12.5896 18.8431 12.5926 18.8419 12.5957 18.8407C12.6011 18.8389 12.606 18.8389 12.6115 18.8389C12.6163 18.8389 12.6218 18.8401 12.6266 18.8425H12.626Z" fill="#5E93FF"/>
<path d="M12.5738 18.8451C12.5575 18.8523 12.5411 18.8529 12.5234 18.8481C12.5398 18.8383 12.5568 18.8395 12.5738 18.8451Z" fill="#5E93FF"/>
<path d="M12.5113 18.8485C12.4949 18.8558 12.4786 18.8564 12.4609 18.8514C12.4773 18.8411 12.4937 18.8423 12.5113 18.8485Z" fill="#5E93FF"/>
<path d="M12.4482 18.851C12.4318 18.8589 12.4154 18.8589 12.3984 18.8534C12.3984 18.8534 12.3997 18.8534 12.4003 18.8528C12.416 18.845 12.4324 18.845 12.4482 18.851Z" fill="#5E93FF"/>
<path d="M12.3445 18.8508C12.3555 18.8484 12.367 18.8496 12.3785 18.854C12.3621 18.8618 12.3451 18.8618 12.3281 18.857C12.3336 18.854 12.3391 18.852 12.3445 18.8508Z" fill="#5E93FF"/>
<path d="M12.2893 18.8522C12.2978 18.8522 12.3063 18.854 12.3154 18.8565C12.299 18.8637 12.2826 18.8643 12.2656 18.8589C12.2735 18.854 12.2814 18.8522 12.2893 18.8516V18.8522Z" fill="#5E93FF"/>
<path d="M12.2414 18.8566C12.2456 18.8572 12.2493 18.8584 12.2529 18.8596C12.2371 18.8669 12.2201 18.8675 12.2031 18.8626C12.2147 18.8554 12.2268 18.8542 12.2389 18.8566C12.2389 18.8566 12.2396 18.8566 12.2402 18.8566H12.2408H12.2414Z" fill="#5E93FF"/>
<path d="M12.1923 18.8619C12.1729 18.8704 12.1529 18.8698 12.1328 18.8643C12.1523 18.8553 12.1723 18.8559 12.1923 18.8619Z" fill="#5E93FF"/>
<path d="M12.1123 18.8651C12.0959 18.8735 12.0795 18.8723 12.0625 18.8675C12.0783 18.8584 12.0953 18.8584 12.1123 18.8651Z" fill="#5E93FF"/>
<path d="M16.3751 14.9882C16.3829 14.9894 16.3921 14.9894 16.4006 14.9906C16.4115 14.9918 16.4225 14.9948 16.431 15.0039C16.4085 15.0021 16.3867 14.9973 16.3672 14.9863C16.3684 14.9863 16.3702 14.9863 16.3714 14.9869C16.3727 14.9869 16.3739 14.9869 16.3757 14.9875L16.3751 14.9882Z" fill="#5E93FF"/>
<path d="M7.1231 20.3447C7.12493 20.3483 7.12676 20.3521 7.12797 20.3551L6.78906 20.3563C6.79089 20.3527 6.79272 20.3489 6.79453 20.3453C6.82187 20.3453 6.8492 20.3453 6.87652 20.3453C6.95852 20.3453 7.04051 20.3453 7.1225 20.3453L7.1231 20.3447Z" fill="#3180F4"/>
<path d="M17.3048 15.2627C17.2593 15.2779 17.2143 15.2925 17.1682 15.3071C17.0771 15.3356 16.986 15.3629 16.8943 15.3891C16.4771 15.5081 16.0549 15.6028 15.6286 15.6817C15.4464 15.7158 15.263 15.7468 15.0795 15.7754C14.4479 15.8743 13.8132 15.9448 13.1761 15.994C13.085 16.0013 12.9939 16.0079 12.9028 16.014C12.7826 16.022 12.6623 16.0298 12.5421 16.0365C12.5226 16.0377 12.5038 16.0383 12.4844 16.0395C12.615 15.8397 12.7419 15.6374 12.8646 15.4322C13.0419 15.1358 13.2114 14.8352 13.3723 14.5303C13.6796 14.557 13.9863 14.588 14.293 14.6256C14.3155 14.6281 14.338 14.6329 14.3611 14.6366C14.4983 14.6463 14.6344 14.6669 14.7698 14.687C14.9441 14.7125 15.1184 14.7404 15.2921 14.7696C15.5265 14.809 15.761 14.8528 15.9936 14.9032C16.1193 14.9305 16.2444 14.9585 16.3701 14.9858C16.3902 14.9967 16.4115 15.001 16.4339 15.0034C16.7024 15.072 16.9701 15.1443 17.2332 15.2311C17.2575 15.239 17.2855 15.2415 17.3042 15.2621L17.3048 15.2627Z" fill="#A1A1AA"/>
<path d="M8.375 17.2402C8.4831 17.2488 8.59181 17.2573 8.69993 17.2645C8.59121 17.2573 8.4831 17.2488 8.375 17.2402Z" fill="#F1ECE2"/>
<path d="M4.90407 19.6605C4.89556 19.6605 4.88828 19.6581 4.88281 19.6514C4.88281 19.6514 4.88403 19.6514 4.88464 19.6514C4.88585 19.6514 4.88707 19.6514 4.88828 19.6514C4.88949 19.6514 4.89011 19.6521 4.89132 19.6521C4.89192 19.6521 4.89313 19.6521 4.89375 19.6527C4.89496 19.6527 4.89618 19.6539 4.89739 19.6545C4.89739 19.6545 4.8986 19.6545 4.89922 19.6551C4.90043 19.6563 4.90164 19.6575 4.90286 19.6587C4.90286 19.6587 4.90286 19.6587 4.90347 19.6587L4.90407 19.6605Z" fill="#404A5A"/>
<path d="M4.88063 19.6512C4.87214 19.6512 4.86424 19.6494 4.85938 19.6416C4.85938 19.6416 4.86363 19.6416 4.86546 19.6416H4.86606C4.87153 19.6428 4.87639 19.6452 4.88003 19.6506C4.88003 19.6506 4.88003 19.6506 4.88003 19.6512H4.88063Z" fill="#404A5A"/>
<path d="M4.86501 19.6418C4.8559 19.6418 4.84739 19.641 4.84375 19.6315C4.84375 19.6315 4.84375 19.6315 4.84375 19.6309H4.84436C4.85286 19.6309 4.86075 19.6327 4.86501 19.641V19.6418Z" fill="#404A5A"/>
<path d="M4.84096 19.6308V19.632C4.83246 19.632 4.82335 19.6332 4.82031 19.6217V19.6205C4.82942 19.6192 4.83732 19.6211 4.84157 19.6308H4.84096Z" fill="#404A5A"/>
<path d="M4.75555 19.5771C4.76162 19.5813 4.7689 19.5845 4.77558 19.5875C4.78045 19.5899 4.7853 19.5917 4.79016 19.5941C4.79867 19.5984 4.80656 19.6038 4.81203 19.6118C4.81384 19.6142 4.81567 19.6177 4.8175 19.6215C4.78894 19.6191 4.76405 19.6076 4.74219 19.5893L4.75555 19.5771Z" fill="#404A5A"/>
<path d="M6.70806 18.6629C6.68438 18.6665 6.66069 18.6701 6.63762 18.6737C6.54652 18.686 6.45542 18.6931 6.3637 18.6955C6.33333 18.6961 6.30237 18.6969 6.272 18.6961C6.24102 18.6961 6.21065 18.6949 6.17967 18.6937C6.16631 18.6931 6.15354 18.6913 6.1402 18.6901C6.12743 18.6889 6.11407 18.6872 6.10071 18.686C6.0837 18.6846 6.07095 18.6774 6.0582 18.6665C6.02175 18.6337 5.98713 18.5997 5.95312 18.5645C6.20459 18.6009 6.45602 18.6337 6.70806 18.6635V18.6629Z" fill="#F1ECE2"/>
<path d="M10.66 14.416C10.479 14.416 10.298 14.4185 10.117 14.4215C9.81577 14.8885 9.49084 15.3392 9.13614 15.7673C9.06145 15.8572 8.98614 15.9459 8.909 16.0334C8.71466 16.255 8.5118 16.4689 8.29923 16.673C8.11277 16.8515 7.92025 17.0222 7.71922 17.1825C7.56253 17.3082 7.40037 17.4279 7.23213 17.539C6.92239 17.7443 6.59746 17.921 6.24764 18.0497C6.0703 18.1148 5.88931 18.1676 5.70224 18.1985C5.69192 18.2003 5.6822 18.2046 5.67188 18.2076C5.67249 18.2106 5.6737 18.2144 5.6743 18.2174C5.67492 18.2192 5.67553 18.221 5.67674 18.2228C5.69009 18.2434 5.70346 18.2635 5.71743 18.283C5.74537 18.323 5.77453 18.3619 5.80428 18.3996C5.84922 18.456 5.89721 18.5107 5.94761 18.563C6.19904 18.5994 6.45048 18.6322 6.70253 18.662C6.76994 18.6517 6.83674 18.6382 6.90295 18.6225C7.05661 18.5861 7.20602 18.5381 7.35238 18.4816C7.42527 18.453 7.49754 18.4226 7.56859 18.3898C7.63965 18.357 7.71011 18.3224 7.77995 18.2854C7.81032 18.2697 7.84008 18.2532 7.87045 18.2369C8.07938 18.1221 8.2798 17.9933 8.47171 17.8548C8.66425 17.7157 8.84888 17.5663 9.02804 17.4096C9.05355 17.3871 9.07907 17.3646 9.10456 17.3416C9.1234 17.3246 9.14161 17.3076 9.16104 17.29C9.27584 17.1849 9.3888 17.0769 9.49874 16.9663C9.54125 16.9231 9.58316 16.88 9.62506 16.8357C9.76293 16.6911 9.89715 16.5435 10.0277 16.3924C10.1061 16.3019 10.1826 16.2094 10.2579 16.1166C10.267 16.1056 10.2761 16.0941 10.2852 16.0825C10.3369 16.0181 10.3879 15.9533 10.4389 15.8876C10.5986 15.681 10.7523 15.4704 10.9005 15.2554C10.9807 15.1388 11.059 15.0215 11.1361 14.9031C11.1792 14.8363 11.2218 14.7695 11.2637 14.7027C11.3214 14.611 11.3779 14.5181 11.4337 14.4251C11.1756 14.4191 10.9181 14.416 10.66 14.416Z" fill="#F1ECE2"/>
<path d="M3.76822 19.1559C3.75972 19.1577 3.75304 19.1553 3.75 19.1461C3.75911 19.1443 3.76579 19.1461 3.76822 19.1559Z" fill="#D4D4D8"/>
<path d="M9.12628 14.4544C8.99692 14.4605 8.86756 14.4678 8.73879 14.4757C8.59728 14.6761 8.45091 14.8735 8.29786 15.066C8.14784 15.2555 7.99419 15.4414 7.83263 15.6217C7.74093 15.7238 7.64862 15.8252 7.55386 15.9248C7.48706 15.9952 7.41903 16.0652 7.34919 16.1332C7.07163 16.4046 6.78072 16.661 6.46793 16.8923C6.4157 16.9305 6.36348 16.9682 6.31003 17.0052C6.13451 17.1273 5.95292 17.2403 5.76403 17.3417C5.62738 17.4159 5.48648 17.4814 5.34375 17.5416C5.34496 17.5482 5.34375 17.5555 5.34678 17.5623C5.36682 17.6175 5.38808 17.6715 5.41117 17.7255C5.43364 17.7796 5.45792 17.8325 5.48344 17.8846C5.53445 17.9892 5.59154 18.0912 5.65349 18.1909L5.6547 18.1921C5.65896 18.1981 5.66625 18.2036 5.6717 18.209C5.68204 18.206 5.69175 18.2018 5.70207 18.1999C5.88853 18.169 6.06952 18.1161 6.24747 18.0511C6.59731 17.923 6.92222 17.7456 7.23197 17.5404C7.40021 17.4292 7.56237 17.3095 7.71906 17.1838C7.92009 17.0229 8.11262 16.8523 8.29908 16.6743C8.51226 16.4703 8.71449 16.2565 8.90884 16.0348C8.98598 15.9473 9.06129 15.8586 9.13599 15.7687C9.49069 15.3405 9.81561 14.8899 10.1169 14.4229C9.78646 14.4289 9.45545 14.4386 9.12567 14.455L9.12628 14.4544Z" fill="#A1A1AA"/>
<path d="M15.6624 9.46839C15.6624 9.46839 15.6582 9.46777 15.6562 9.46777C15.6582 9.46777 15.66 9.46777 15.6624 9.46839Z" fill="#E7AA24"/>
<path d="M15.6217 9.48222C15.6321 9.48222 15.6436 9.48222 15.6369 9.46582C15.6418 9.46582 15.6466 9.46703 15.6521 9.46765C15.649 9.46765 15.6466 9.46825 15.6448 9.46946C15.6406 9.4725 15.6406 9.47918 15.6418 9.48708C15.6351 9.48708 15.6285 9.48646 15.6217 9.48587C15.6181 9.48587 15.6138 9.48525 15.6102 9.48465C15.6023 9.48404 15.5937 9.48282 15.5859 9.48222C15.5677 9.47978 15.5488 9.47614 15.5312 9.47189C15.5623 9.47008 15.5919 9.48101 15.6223 9.48282L15.6217 9.48222Z" fill="#E7AA24"/>
<path d="M6.20283 15.7425C6.21619 15.7449 6.22894 15.7467 6.24169 15.7491C5.98843 15.9939 5.72241 16.2236 5.43879 16.4336C5.33553 16.5101 5.23228 16.5867 5.12054 16.6517C5.09988 16.5624 5.09077 16.4713 5.08045 16.3803C5.04523 16.0899 5.03186 15.7984 5.03125 15.5068C5.10171 15.5239 5.17215 15.5402 5.24322 15.5566C5.45032 15.6041 5.65804 15.6459 5.86635 15.6842C5.97871 15.7049 6.09107 15.7242 6.20343 15.7431L6.20283 15.7425Z" fill="#F1ECE2"/>
<path d="M7.35888 14.5932C7.32913 14.5968 7.29876 14.5992 7.26839 14.6023C6.96958 14.9825 6.65072 15.3451 6.30453 15.6846C6.28267 15.7064 6.2602 15.7276 6.23834 15.7489C6.24866 15.7507 6.25898 15.7527 6.26871 15.7545C6.25837 15.7527 6.24866 15.7507 6.23834 15.7495C5.98508 15.9943 5.71906 16.2238 5.43543 16.434C5.33218 16.5106 5.22893 16.5871 5.11719 16.6521C5.1184 16.6643 5.119 16.677 5.12023 16.6891C5.12023 16.6927 5.12023 16.6957 5.12144 16.6995C5.12387 16.7134 5.12691 16.7273 5.12934 16.7413C5.13115 16.753 5.13298 16.7637 5.1354 16.7754C5.14087 16.8033 5.14634 16.8319 5.15181 16.8604C5.18399 17.0207 5.22225 17.1792 5.27024 17.3353C5.29209 17.4052 5.30971 17.4768 5.34493 17.5425C5.48766 17.4822 5.62857 17.4168 5.76522 17.3426C5.9541 17.2406 6.1357 17.1276 6.31121 17.0061C6.36466 16.9697 6.41689 16.932 6.46913 16.8932C6.78191 16.6623 7.07283 16.4055 7.35039 16.1339C7.42023 16.0659 7.48764 15.9961 7.55506 15.9257C7.6498 15.8261 7.74212 15.7246 7.83382 15.6226C7.99478 15.4422 8.14904 15.2564 8.29904 15.0669C8.45149 14.8738 8.59848 14.677 8.73997 14.4766C8.27961 14.5045 7.81985 14.5434 7.36071 14.5944L7.35888 14.5932Z" fill="#71717A"/>
<path d="M6.27255 15.754C6.26223 15.7522 6.25251 15.7502 6.24219 15.749C6.25251 15.751 6.26285 15.7528 6.27255 15.754Z" fill="#F1ECE2"/>
<path d="M6.242 15.7488C6.22925 15.747 6.21589 15.7446 6.20312 15.7422L6.242 15.7482V15.7488Z" fill="#71717A"/>
<path d="M5.85938 15.6836C5.97173 15.7041 6.08409 15.7236 6.19645 15.7425C6.08409 15.7236 5.97114 15.7041 5.85938 15.6836Z" fill="#71717A"/>
<path d="M7.07495 14.6305C7.13994 14.6165 7.20614 14.6092 7.27234 14.6025C6.97353 14.9827 6.65467 15.3453 6.30849 15.6849C6.28662 15.7068 6.26415 15.7279 6.24229 15.7492L6.20341 15.7432C6.09107 15.7243 5.97871 15.7048 5.86635 15.6843C5.65804 15.6459 5.44971 15.604 5.24322 15.5567C5.17276 15.5403 5.10171 15.5239 5.03125 15.5069C5.03125 15.397 5.03246 15.2864 5.0355 15.1759C5.03732 15.1103 5.04036 15.0453 5.044 14.9803C5.28391 14.9232 5.52563 14.8728 5.76795 14.8267C6.18216 14.7483 6.5988 14.6845 7.01664 14.6329C7.02333 14.6323 7.03001 14.6311 7.03669 14.6305C7.04458 14.6293 7.05248 14.6287 7.06037 14.6293C7.06524 14.6293 7.0701 14.6305 7.07495 14.6317V14.6305Z" fill="#A1A1AA"/>
<path d="M14.4609 9.32227C14.7026 9.35203 14.945 9.38119 15.1867 9.41094C15.1855 9.41337 15.1837 9.41579 15.1813 9.41822C15.0312 9.4 14.8806 9.3824 14.7306 9.36295C14.6869 9.3575 14.6431 9.35385 14.5994 9.34899C14.5557 9.34414 14.5119 9.33927 14.4688 9.33078C14.4664 9.32773 14.464 9.32531 14.4609 9.32288V9.32227Z" fill="#A1A1AA"/>
<path d="M13.2734 10.074C13.2825 10.0399 13.291 10.0047 13.3002 9.9707C13.2917 10.0053 13.2825 10.0399 13.2734 10.074Z" fill="#F1ECE2"/>
<path d="M20.2263 14.9324C20.2263 14.5995 20.2263 14.2673 20.2263 13.9345C20.205 13.8416 20.1759 13.7511 20.1242 13.6697C20.0411 13.5385 19.9421 13.4213 19.8182 13.3253C19.6887 13.2251 19.5565 13.131 19.4137 13.0508C19.2174 12.9409 19.0134 12.848 18.8087 12.7563C18.7723 12.7399 18.7346 12.732 18.6982 12.7174C18.2354 12.5364 17.7593 12.4003 17.2771 12.2831C16.9684 12.2078 16.6576 12.1434 16.3454 12.0851C15.995 12.0195 15.6426 11.9631 15.2898 11.9145C15.0462 11.8811 14.8027 11.8507 14.5586 11.8234C14.4498 11.8112 14.3411 11.7997 14.2324 11.7888C13.9251 11.759 13.6172 11.7311 13.3093 11.7092C13.1277 11.6958 12.9455 11.6843 12.7639 11.674C12.6096 11.6655 12.4547 11.6576 12.2999 11.6503C12.0563 11.6393 11.8134 11.6308 11.5698 11.6254C11.5522 11.6254 11.5346 11.6242 11.517 11.6242C11.1325 11.6157 10.7475 11.6132 10.363 11.6169C10.357 11.6169 10.3509 11.6169 10.3442 11.6169C9.94822 11.6205 9.55223 11.6296 9.15686 11.646C9.13318 11.6466 9.10947 11.6485 9.08579 11.6491C8.61753 11.6691 8.15049 11.6983 7.68344 11.7377C6.99774 11.7954 6.31449 11.8738 5.63488 11.9807C5.61849 11.9831 5.6027 11.9861 5.5863 11.9886C5.56019 12.0809 5.5365 12.1744 5.50371 12.2649C5.48062 12.3572 5.45754 12.4495 5.43385 12.5412C5.3713 12.786 5.31482 13.032 5.26562 13.2798C5.30025 13.2737 5.33485 13.2682 5.36948 13.2622C5.41503 13.2543 5.46058 13.247 5.50552 13.2391C5.57294 13.2282 5.64035 13.2172 5.70777 13.2063C5.95132 13.1686 6.19605 13.1346 6.44022 13.1037C6.68497 13.0727 6.92973 13.0454 7.17509 13.0211C7.33846 13.0047 7.50245 12.9895 7.66643 12.9755C7.91424 12.9548 8.16263 12.9372 8.41103 12.9215C8.64486 12.9069 8.87869 12.8953 9.11252 12.8856C9.17265 12.8832 9.23277 12.8802 9.29291 12.8777C9.38218 12.8741 9.47207 12.8716 9.56134 12.8686C9.61905 12.8668 9.67674 12.8656 9.73505 12.8644C9.94579 12.8589 10.1565 12.8559 10.3673 12.854C10.4469 12.854 10.5258 12.8528 10.6054 12.8528C10.7414 12.8528 10.8775 12.8528 11.0129 12.854C11.0621 12.854 11.1113 12.8546 11.1605 12.8559C11.2133 12.8565 11.2661 12.8571 11.319 12.8577C11.4629 12.8601 11.6063 12.8637 11.7502 12.868C11.8941 12.8723 12.0375 12.8777 12.1814 12.8832C12.2051 12.8838 12.2288 12.8856 12.2525 12.8862C12.4067 12.8929 12.561 12.9008 12.7147 12.9087C12.8331 12.9154 12.9515 12.9227 13.07 12.93C13.2473 12.9415 13.4253 12.9543 13.6026 12.9688C13.766 12.9822 13.9294 12.9974 14.0933 13.0138C14.0988 13.0138 14.1049 13.015 14.1103 13.0156C14.2276 13.0271 14.3448 13.0387 14.462 13.0508C14.6497 13.0696 14.8373 13.0921 15.0251 13.117C15.212 13.1419 15.3992 13.1686 15.5861 13.1966C15.6639 13.2081 15.7416 13.2203 15.8188 13.2324C16.0514 13.2701 16.2833 13.3114 16.5142 13.3569C16.6502 13.3836 16.7857 13.4116 16.9211 13.4407C17.0565 13.4699 17.1914 13.5015 17.3262 13.5343C17.5308 13.5847 17.7343 13.6387 17.9353 13.6976C18.2038 13.7766 18.4699 13.8653 18.7304 13.9691C18.796 13.9946 18.8604 14.022 18.9253 14.0493C19.0237 14.0918 19.1204 14.1386 19.2162 14.1859C19.2399 14.1975 19.2636 14.209 19.2874 14.2212C19.3055 14.2303 19.3244 14.2394 19.3427 14.2485C19.3669 14.2606 19.3912 14.2728 19.4149 14.2861C19.4453 14.3025 19.475 14.3202 19.503 14.3396C19.611 14.4143 19.7221 14.4848 19.8224 14.5698C19.8454 14.5898 19.8679 14.6099 19.8898 14.6311C19.916 14.653 19.9409 14.6767 19.9645 14.7004C20.0039 14.7398 20.0405 14.7823 20.0726 14.8267C20.0884 14.8485 20.103 14.871 20.1169 14.8941C20.129 14.9141 20.14 14.9342 20.1503 14.9548C20.1607 14.9755 20.1704 14.9967 20.1789 15.0192C20.1881 15.0411 20.1959 15.0636 20.2032 15.086C20.208 15.1018 20.2135 15.1182 20.2183 15.134C20.2183 15.134 20.2183 15.1352 20.2189 15.1358V15.134C20.2318 15.0666 20.2239 14.9986 20.2245 14.9305L20.2263 14.9324Z" fill="#F1ECE2"/>
<path d="M20.2313 13.8023C20.2321 13.5503 20.2321 13.2989 20.2313 13.0468C20.2313 12.9308 20.2301 12.8142 20.2295 12.6982C20.2096 12.6326 20.1955 12.5652 20.1659 12.5026C20.0899 12.3453 19.9763 12.219 19.8451 12.106C19.7017 11.9821 19.5432 11.8795 19.3768 11.789C19.1357 11.6566 18.8856 11.5436 18.6274 11.4483C18.3286 11.3377 18.0255 11.24 17.7182 11.1561C17.4832 11.0924 17.2469 11.0335 17.0101 10.9794C16.7398 10.9181 16.4683 10.864 16.1957 10.816C15.9125 10.7668 15.6283 10.7195 15.3435 10.68C15.2087 10.6612 15.0733 10.6435 14.9378 10.6265C14.6353 10.5877 14.3323 10.5537 14.0286 10.5269C13.9721 10.5215 13.9162 10.5136 13.8598 10.5093C13.6302 10.4917 13.4006 10.4747 13.1716 10.4583C13.1389 10.4559 13.1061 10.4534 13.0733 10.451C12.9202 10.4401 12.7672 10.4292 12.6141 10.4213C12.4149 10.4115 12.2157 10.4042 12.0165 10.397C12.0147 10.397 12.0128 10.397 12.011 10.397C11.8027 10.3897 11.595 10.3818 11.3867 10.3781C11.2033 10.3751 11.0198 10.3733 10.8358 10.3727C10.755 10.3727 10.6743 10.3721 10.5929 10.3721C10.271 10.3721 9.9497 10.3769 9.62841 10.386C9.62356 10.386 9.6193 10.386 9.61445 10.386C9.23728 10.397 8.85951 10.4122 8.48296 10.4364C8.19326 10.4547 7.90356 10.4711 7.61446 10.4954C7.49725 10.5051 7.38063 10.5197 7.26402 10.5312C6.8565 10.5719 6.45019 10.6193 6.04508 10.6763C6.04023 10.677 6.03597 10.6776 6.03112 10.6782C5.86895 11.0978 5.7232 11.523 5.59505 11.9548C5.592 11.9657 5.58898 11.9761 5.58594 11.987C5.60173 11.9846 5.61812 11.9815 5.63452 11.9791C6.31415 11.8722 6.9974 11.7933 7.68309 11.7362C8.15013 11.6973 8.61719 11.6675 9.08544 11.6475C9.10913 11.6463 9.13281 11.6451 9.1565 11.6444C9.55188 11.6281 9.94787 11.6189 10.3439 11.6153C10.3499 11.6153 10.3566 11.6153 10.3627 11.6153C10.7477 11.6123 11.1322 11.6147 11.5166 11.6226C11.5343 11.6226 11.5519 11.6238 11.5695 11.6238C11.813 11.6293 12.056 11.6378 12.2995 11.6487C12.4544 11.656 12.6086 11.6639 12.7635 11.6724C12.9451 11.6827 13.1273 11.6943 13.3089 11.7076C13.6168 11.7301 13.9248 11.7574 14.2321 11.7872C14.3408 11.7981 14.4495 11.8096 14.5582 11.8218C14.8024 11.8491 15.0459 11.8795 15.2895 11.9129C15.6423 11.9615 15.9946 12.018 16.345 12.0836C16.6572 12.1419 16.9681 12.2062 17.2767 12.2816C17.759 12.3988 18.2351 12.5348 18.6978 12.7158C18.7343 12.7304 18.772 12.7383 18.8084 12.7547C19.0131 12.847 19.2171 12.9393 19.4134 13.0492C19.556 13.1294 19.6884 13.2235 19.8178 13.3238C19.9417 13.4197 20.0408 13.5369 20.1239 13.6681C20.1755 13.7495 20.2041 13.84 20.2259 13.9329C20.2345 13.8892 20.2295 13.8448 20.2295 13.8011L20.2313 13.8023Z" fill="#A1A1AA"/>
<path d="M13.0836 4.28078C13.2512 4.54255 13.3727 4.82558 13.4644 5.12195C13.493 5.21367 13.5185 5.30598 13.5415 5.39891C13.5798 5.55377 13.6096 5.71107 13.6333 5.86899C13.6399 5.91515 13.6466 5.96131 13.6527 6.00806C13.6642 6.10099 13.6745 6.19392 13.6831 6.28683C13.6867 6.33361 13.6903 6.37976 13.694 6.42652C13.711 6.68039 13.7183 6.93425 13.7116 7.18874C13.7043 7.45474 13.6885 7.72077 13.6618 7.98617C13.6351 8.24975 13.5986 8.51214 13.5549 8.77268C13.5288 8.92938 13.4996 9.08545 13.4681 9.24033C13.2166 9.22029 12.9652 9.20328 12.7131 9.19113C12.5923 9.18568 12.4708 9.179 12.3493 9.17292C12.4313 8.82066 12.5006 8.46596 12.5546 8.10764C12.6141 7.71104 12.6566 7.31323 12.6724 6.91299C12.6852 6.5729 12.6834 6.23218 12.656 5.89206C12.633 5.60844 12.5947 5.32784 12.534 5.04968C12.4653 4.7369 12.3688 4.43323 12.2303 4.14352C12.1756 4.02874 12.1112 3.9188 12.0469 3.80949C12.0997 3.79248 12.155 3.79065 12.209 3.7852C12.2376 3.78216 12.2661 3.77973 12.2941 3.7779C12.3184 3.77669 12.3427 3.77548 12.3669 3.77486C12.4064 3.77426 12.4459 3.77426 12.4854 3.77486C12.5127 3.77548 12.5406 3.77669 12.568 3.7779C12.5892 3.77912 12.6105 3.78033 12.6317 3.78216C12.6354 3.78216 12.639 3.78276 12.6421 3.78337C12.6487 3.78459 12.6548 3.78641 12.6609 3.78884C12.667 3.79127 12.6724 3.79431 12.6779 3.79795C12.6858 3.8028 12.6937 3.80949 12.701 3.81617C12.7198 3.83317 12.738 3.85079 12.7556 3.86839C12.7915 3.90363 12.8261 3.94068 12.8589 3.97832C12.9421 4.07247 13.0168 4.17268 13.0854 4.27957L13.0836 4.28078Z" fill="#F1ECE2"/>
<path d="M12.5356 5.05C12.5963 5.32756 12.6345 5.60876 12.6576 5.89238C12.6856 6.2325 12.6874 6.57322 12.674 6.91334C12.6588 7.31358 12.6163 7.7114 12.5562 8.10799C12.5021 8.46632 12.4329 8.82161 12.3509 9.17327C12.2592 9.16901 12.1669 9.16416 12.0752 9.16052C11.865 9.15262 11.6555 9.14775 11.4454 9.14351C11.367 9.14169 11.2887 9.14047 11.2109 9.13926C11.2875 8.85077 11.3549 8.55984 11.4126 8.26711C11.4563 8.04786 11.494 7.82739 11.5274 7.60632C11.5492 7.45814 11.5687 7.30994 11.5857 7.16115C11.6033 7.00566 11.6173 6.84957 11.627 6.69286C11.6373 6.52585 11.644 6.35823 11.6476 6.1912C11.6519 5.9671 11.6446 5.74359 11.6282 5.52008C11.6172 5.3725 11.6033 5.22552 11.5845 5.07856C11.559 4.87752 11.5225 4.67892 11.4745 4.48214C11.4363 4.32483 11.3925 4.16814 11.3342 4.01631C11.3743 3.9908 11.4205 3.97805 11.4648 3.96164C11.5547 3.92825 11.6452 3.8991 11.7375 3.87358C11.8298 3.84868 11.9227 3.82743 12.0175 3.81163C12.0242 3.81042 12.0302 3.80859 12.0369 3.80859C12.0412 3.80859 12.0448 3.80859 12.0485 3.80981C12.1128 3.91914 12.1772 4.02846 12.2319 4.14384C12.3704 4.43355 12.4669 4.73722 12.5356 5.05Z" fill="#A1A1AA"/>
<path d="M20.2217 16.3322C20.2223 16.3165 20.2235 16.3006 20.2235 16.2849C20.2235 16.0249 20.2241 15.7644 20.2241 15.5044C20.2241 15.3921 20.2223 15.2797 20.2217 15.1673C20.2217 15.1607 20.2247 15.1534 20.2241 15.1467C20.2223 15.1424 20.2199 15.1394 20.2181 15.1358C20.2181 15.1358 20.2181 15.1364 20.2181 15.137C20.2181 15.1364 20.2181 15.1358 20.2175 15.1351C20.2126 15.1187 20.2072 15.103 20.2022 15.0866C20.195 15.0635 20.1865 15.041 20.178 15.0197C20.1694 14.9979 20.1597 14.9766 20.1495 14.9554C20.1392 14.9347 20.1276 14.9141 20.1161 14.8946C20.102 14.8716 20.0875 14.8491 20.0717 14.8272C20.0395 14.7823 20.0037 14.7404 19.9636 14.7009C19.9399 14.6772 19.915 14.6541 19.8888 14.6317C19.867 14.6098 19.8445 14.5898 19.8214 14.5703C19.7212 14.4853 19.6102 14.4148 19.502 14.3401C19.4734 14.3207 19.4437 14.3031 19.4139 14.2867C19.3902 14.2739 19.366 14.2612 19.3417 14.249C19.3234 14.2399 19.3046 14.2308 19.2864 14.2217C19.2628 14.2096 19.2391 14.198 19.2153 14.1865C19.1194 14.1391 19.0228 14.0923 18.9245 14.0498C18.8595 14.0225 18.795 13.9952 18.7294 13.9697C18.4683 13.8664 18.2028 13.7771 17.9345 13.6982C17.7329 13.6387 17.5294 13.5846 17.3252 13.5348C17.1904 13.502 17.0556 13.4704 16.9201 13.4413C16.7847 13.4121 16.6493 13.3842 16.5132 13.3575C16.2819 13.3119 16.0499 13.27 15.8178 13.2329C15.7401 13.2208 15.6631 13.2087 15.5853 13.1971C15.3982 13.1692 15.2117 13.1425 15.0241 13.1176C14.837 13.0927 14.6493 13.0702 14.461 13.0514C14.3438 13.0398 14.2266 13.0277 14.1094 13.0161C14.1039 13.0161 14.0979 13.0149 14.0924 13.0143C13.929 12.9979 13.7656 12.9827 13.6017 12.9694C13.4243 12.9548 13.2464 12.9426 13.069 12.9305C12.9506 12.9226 12.8322 12.9153 12.7137 12.9092C12.5595 12.9007 12.4052 12.8928 12.2515 12.8868C12.2278 12.8855 12.2042 12.8843 12.1805 12.8837C12.0365 12.8777 11.8932 12.8728 11.7493 12.8685C11.6053 12.8643 11.462 12.8606 11.318 12.8582C11.2652 12.8576 11.2124 12.857 11.1595 12.8564C11.1103 12.8558 11.0612 12.8552 11.012 12.8546C10.8759 12.8534 10.7399 12.8528 10.6044 12.8534C10.5249 12.8534 10.4453 12.854 10.3663 12.8546C10.1556 12.8564 9.94485 12.8594 9.73411 12.8649C9.6764 12.8661 9.61871 12.8679 9.5604 12.8692C9.47113 12.8716 9.38124 12.8746 9.29195 12.8783C9.23183 12.8807 9.1717 12.8837 9.11158 12.8862C8.87775 12.8959 8.64392 12.908 8.4101 12.922C8.16169 12.9378 7.91329 12.9548 7.6655 12.976C7.50151 12.99 7.33753 13.0052 7.17416 13.0216C6.92879 13.0459 6.68403 13.0732 6.43926 13.1042C6.19452 13.1352 5.95037 13.1692 5.70681 13.2068C5.6394 13.2172 5.57198 13.2281 5.50458 13.2396C5.45902 13.2469 5.41408 13.2548 5.36854 13.2627C5.33392 13.2688 5.29929 13.2743 5.26469 13.2803C5.31387 13.0325 5.37035 12.7866 5.43291 12.5418C5.4566 12.4495 5.47967 12.3578 5.50275 12.2655C5.53555 12.175 5.55923 12.0814 5.58535 11.9891C5.58839 11.9782 5.59143 11.9679 5.59446 11.9569C5.7226 11.5251 5.86837 11.0994 6.03054 10.6803C6.13318 10.4143 6.24249 10.1507 6.3585 9.88953C6.43624 9.71461 6.51702 9.5403 6.60022 9.36844C6.87534 8.79935 7.18084 8.24606 7.51973 7.711C7.83616 7.20932 8.18052 6.72832 8.55768 6.27037C8.56557 6.26126 8.57165 6.25034 8.57893 6.24062C8.69251 6.11064 8.80427 5.97947 8.92027 5.85132C9.29804 5.43286 9.70496 5.04537 10.1556 4.70586C10.2667 4.62204 10.3815 4.54309 10.4951 4.46231C10.5054 4.45503 10.5182 4.45382 10.5303 4.4532C10.5358 4.43681 10.551 4.42952 10.5637 4.42162C10.7963 4.27283 11.0381 4.14042 11.2926 4.03353C11.3017 4.02989 11.3102 4.02502 11.3199 4.022C11.3223 4.02138 11.3253 4.02078 11.3284 4.02017C11.3314 4.02017 11.3345 4.01896 11.3375 4.01896C11.3776 3.99344 11.4237 3.98069 11.4681 3.96429C11.558 3.9309 11.6484 3.90174 11.7408 3.87623C11.8331 3.85133 11.926 3.83007 12.0207 3.81428C12.0274 3.81307 12.0335 3.81124 12.0402 3.81124C12.0444 3.81124 12.0481 3.81124 12.0517 3.81245C12.1046 3.79545 12.1598 3.79364 12.2139 3.78817C12.2424 3.78513 12.271 3.7827 12.2989 3.78087C12.3232 3.77966 12.3475 3.77845 12.3718 3.77785C12.4113 3.77723 12.4508 3.77723 12.4902 3.77785C12.5176 3.77845 12.5455 3.77966 12.5728 3.78087C12.5941 3.78209 12.6153 3.78332 12.6366 3.78513C12.6402 3.78513 12.6439 3.78574 12.6469 3.78634C12.6536 3.78756 12.6597 3.78938 12.6658 3.79181C12.6718 3.79424 12.6773 3.79728 12.6828 3.80092C12.6906 3.80579 12.6985 3.81245 12.7058 3.81914C12.7247 3.83615 12.7429 3.85376 12.7605 3.87138C12.7963 3.9066 12.8309 3.94364 12.8637 3.98131C12.9469 4.07544 13.0216 4.17564 13.0903 4.28255C13.2579 4.5443 13.3794 4.82733 13.4711 5.12372C13.4996 5.21542 13.5251 5.30773 13.5482 5.40066C13.5865 5.55554 13.6162 5.71284 13.6399 5.87075C13.6466 5.9169 13.6533 5.96306 13.6594 6.00983C13.6709 6.10275 13.6812 6.19567 13.6897 6.2886C13.6934 6.33536 13.697 6.38152 13.7007 6.42829C13.7177 6.68216 13.725 6.93602 13.7183 7.19051C13.711 7.45651 13.6952 7.72254 13.6685 7.98794C13.6418 8.25152 13.6053 8.51391 13.5616 8.77445C13.5355 8.93115 13.5063 9.08722 13.4747 9.2421C13.5154 9.24514 13.5561 9.24818 13.5968 9.25182C13.8889 9.27611 14.1805 9.30526 14.472 9.33199C14.4696 9.32895 14.4671 9.32652 14.4641 9.32409C14.7058 9.35386 14.9481 9.38302 15.1898 9.41277C15.1886 9.41519 15.1868 9.41762 15.1844 9.42005C15.1989 9.42188 15.2136 9.4243 15.2281 9.42613C15.2767 9.18684 15.3204 8.94754 15.3574 8.70643C15.3902 8.49021 15.4195 8.2734 15.4419 8.05596C15.4632 7.8525 15.4819 7.64904 15.4917 7.44436C15.4966 7.34598 15.502 7.24699 15.5081 7.14859C15.5087 7.13584 15.502 7.11884 15.5221 7.11337C15.5221 6.92995 15.5209 6.74592 15.5203 6.56251C15.5105 6.55825 15.5099 6.54976 15.5087 6.54065C15.5063 6.5036 15.502 6.46715 15.5008 6.4301C15.4935 6.16348 15.4692 5.89869 15.4334 5.63509C15.394 5.34297 15.3356 5.05509 15.2548 4.77145C15.2347 4.70039 15.2178 4.62872 15.1862 4.56131L15.1796 4.53702C15.1796 4.53702 15.1771 4.5352 15.1771 4.53398C15.1771 4.53338 15.1771 4.53277 15.1771 4.53156C15.1753 4.52305 15.1741 4.51455 15.1711 4.50604C15.0538 4.16775 14.9008 3.84708 14.69 3.55556C14.4872 3.27436 14.2424 3.03932 13.9406 2.86439C13.8276 2.79881 13.7049 2.75265 13.5889 2.69374C13.5786 2.68827 13.5652 2.68949 13.5531 2.68706C13.5428 2.6737 13.5264 2.67004 13.5124 2.66338C13.2385 2.54191 12.9652 2.42042 12.6906 2.30018C12.6554 2.28438 12.6232 2.26131 12.5838 2.25645C12.5771 2.25401 12.5704 2.2522 12.5637 2.24977C12.5169 2.23458 12.469 2.22364 12.424 2.2024C12.4198 2.20117 12.4161 2.19996 12.4119 2.19815C12.41 2.19753 12.4076 2.19693 12.4058 2.19632C12.4058 2.19632 12.4052 2.19632 12.4046 2.19632C12.3997 2.19936 12.3967 2.19693 12.3937 2.19268C12.3056 2.17021 12.2175 2.1532 12.1283 2.14105C12.0639 2.13194 11.9995 2.12526 11.9345 2.12162C11.9126 2.12041 11.8914 2.11979 11.8695 2.1192C11.8045 2.11737 11.7402 2.11797 11.6758 2.12101C11.5901 2.12465 11.5051 2.13254 11.4201 2.14409C11.2719 2.16474 11.1249 2.19572 10.9792 2.23579C10.9585 2.24188 10.9373 2.24735 10.9166 2.25401C10.6427 2.33541 10.3815 2.44534 10.1295 2.5753C10.0457 2.61843 9.96247 2.66397 9.87986 2.71196C9.80455 2.75508 9.73045 2.79942 9.65697 2.84618C9.63267 2.86137 9.60839 2.87716 9.58409 2.89295C9.5598 2.90874 9.5355 2.92453 9.51182 2.94092C9.46383 2.97311 9.41646 3.00591 9.36971 3.03991C9.34662 3.05693 9.32293 3.07394 9.29985 3.09094C9.29985 3.09275 9.29985 3.09397 9.29985 3.09579C9.29985 3.09701 9.29863 3.09822 9.29804 3.09944C9.29621 3.10126 9.29378 3.10188 9.29014 3.10188H9.28953C9.28953 3.10188 9.28953 3.1043 9.28953 3.1049C9.28953 3.10733 9.28831 3.10854 9.2871 3.10916C9.28589 3.10977 9.28467 3.10977 9.28225 3.10916C9.28163 3.10916 9.28042 3.10916 9.27982 3.10794C9.17657 3.18021 9.07636 3.25553 8.97857 3.33388C8.93484 3.3685 8.89171 3.40432 8.84921 3.44015C8.84253 3.44562 8.83585 3.4517 8.82917 3.45716C8.78544 3.49421 8.74171 3.53187 8.69859 3.57013C8.69859 3.57135 8.69859 3.57196 8.69859 3.57317C8.69859 3.5762 8.69738 3.57803 8.69555 3.57985C8.69555 3.57985 8.69434 3.58045 8.69372 3.58107C8.69251 3.58167 8.69069 3.58228 8.68887 3.58228C8.68765 3.58471 8.68583 3.58714 8.68401 3.58896C8.68159 3.59139 8.67976 3.59382 8.67672 3.59565C8.67308 3.59807 8.66882 3.6005 8.66397 3.6011C8.66397 3.60657 8.66276 3.60961 8.66033 3.61082C8.65667 3.61325 8.64999 3.61144 8.64514 3.61203C8.62875 3.62904 8.61173 3.64604 8.59534 3.66245C8.59413 3.66366 8.59351 3.66487 8.5923 3.66549C8.5923 3.66609 8.5923 3.6673 8.5923 3.66791C8.5923 3.67034 8.59108 3.67156 8.58987 3.67338H8.58926C8.58926 3.67338 8.58562 3.6752 8.58198 3.6752C8.5674 3.68735 8.55161 3.69828 8.53765 3.71103C8.53642 3.71224 8.5352 3.71286 8.53399 3.71407C8.48055 3.76448 8.4265 3.8149 8.37366 3.86652C8.37001 3.87016 8.36636 3.87319 8.36332 3.87623C8.34693 3.89263 8.32993 3.90781 8.31293 3.9236C8.27041 3.96308 8.22668 4.00134 8.18599 4.04264C8.16412 4.06511 8.14165 4.08758 8.11979 4.10946C7.99347 4.23761 7.86834 4.36697 7.74749 4.50057C7.59323 4.67124 7.4432 4.84495 7.29745 5.02228C7.27679 5.04779 7.25553 5.07269 7.23489 5.09821C7.23185 5.10185 7.22821 5.1061 7.22578 5.11036C7.22153 5.11642 7.21727 5.12251 7.21302 5.12917C7.20756 5.13768 7.2021 5.14619 7.19663 5.15409C7.19237 5.16015 7.18812 5.16562 7.18326 5.17169C7.18144 5.17352 7.18022 5.17533 7.17901 5.17656C7.17233 5.18384 7.16565 5.19052 7.15775 5.19599C7.15775 5.1978 7.15715 5.19842 7.15654 5.19963C7.15654 5.20084 7.15654 5.20206 7.15532 5.20327C7.15532 5.20388 7.15411 5.20448 7.15351 5.2051C7.15228 5.20571 7.15047 5.20631 7.14926 5.20693C7.14562 5.22393 7.13164 5.23242 7.1201 5.24336C7.11949 5.24336 7.11889 5.24457 7.11828 5.24519C7.11463 5.24821 7.11221 5.25187 7.10978 5.25551C7.10857 5.25732 7.10735 5.25915 7.10674 5.26158C7.10613 5.264 7.10491 5.26583 7.10431 5.26826C7.10431 5.26947 7.10431 5.27009 7.10431 5.2713C7.10431 5.27434 7.1031 5.27615 7.10067 5.27798C7.10067 5.27798 7.09944 5.27798 7.09944 5.27858C7.09884 5.27858 7.09763 5.27858 7.09702 5.27858C7.09642 5.27858 7.0958 5.27858 7.09459 5.27858C7.06786 5.31199 7.04054 5.3454 7.01381 5.37879C7.0126 5.38062 7.01078 5.38245 7.00957 5.38426C7.01017 5.38851 7.01017 5.39215 7.00957 5.39581C7.00957 5.39884 7.00774 5.40066 7.00653 5.40309C7.00653 5.4037 7.00532 5.40492 7.00532 5.40552C7.00349 5.40735 7.00106 5.40977 6.99863 5.41099C6.99559 5.41281 6.99195 5.41403 6.98831 5.41524C6.98406 5.42009 6.9798 5.42435 6.97555 5.4292C6.97374 5.43103 6.97252 5.43286 6.97131 5.43407C6.96765 5.43771 6.96463 5.44197 6.96159 5.44561C6.89296 5.53792 6.82433 5.63085 6.7557 5.72317C6.7557 5.72619 6.75449 5.72802 6.75266 5.72985C6.75266 5.72985 6.75206 5.73045 6.75144 5.73106C6.75023 5.73227 6.7484 5.73287 6.74659 5.73287C6.69922 5.79969 6.65062 5.86589 6.60386 5.93331C6.59475 5.94666 6.58565 5.96002 6.57652 5.97338C6.50668 6.07603 6.44109 6.18171 6.37063 6.28373C6.33541 6.33476 6.30201 6.38699 6.26861 6.43861C6.23459 6.49024 6.20058 6.54186 6.16355 6.59227C6.10463 6.67304 6.05422 6.76111 6.00259 6.84675C5.98012 6.88379 5.95765 6.92084 5.93579 6.95789C5.68617 7.37209 5.44383 7.79055 5.23735 8.22845C5.2252 8.25395 5.21123 8.27764 5.19726 8.30194C5.18329 8.32562 5.16872 8.34992 5.15657 8.37421C5.08613 8.51572 5.0175 8.65785 4.95068 8.80117C4.92578 8.85463 4.9015 8.90806 4.87658 8.96212C4.8444 9.03196 4.81281 9.10242 4.78184 9.17287C4.74237 9.26215 4.70289 9.35203 4.66401 9.44252C4.64762 9.48018 4.63182 9.51845 4.61603 9.55671C4.59598 9.60408 4.57595 9.65145 4.55651 9.69943C4.48728 9.86767 4.42046 10.0377 4.35549 10.2078C4.33666 10.2576 4.31783 10.3074 4.29961 10.3578C4.25528 10.4793 4.21215 10.6007 4.16903 10.7228C4.15871 10.752 4.14837 10.7811 4.13805 10.8103C4.13016 10.8327 4.12226 10.8558 4.11498 10.8789C4.09493 10.9366 4.0761 10.9949 4.05789 11.0532C4.03541 11.1243 4.01354 11.1953 3.99168 11.2664C3.97589 11.3174 3.9601 11.3678 3.94371 11.4188C3.90667 11.5324 3.86353 11.6448 3.84896 11.7644C3.84836 11.7705 3.84106 11.7759 3.83742 11.7814C3.8192 11.8312 3.80827 11.8822 3.79612 11.9332C3.79005 11.9575 3.78275 11.9818 3.77547 12.0061C3.76818 12.0304 3.7609 12.0547 3.75422 12.079C3.72628 12.1835 3.69895 12.2885 3.67344 12.3936C3.64975 12.4883 3.62728 12.5843 3.60542 12.6797C3.58112 12.7872 3.55804 12.8947 3.53556 13.0022C3.51613 13.0963 3.49732 13.191 3.4797 13.2858C3.46574 13.3611 3.45176 13.4358 3.43901 13.5111C3.42746 13.5773 3.41714 13.6435 3.4062 13.7097C3.39284 13.7941 3.38009 13.878 3.36855 13.9624C3.35823 14.0383 3.34851 14.1136 3.33878 14.1895C3.31329 14.3978 3.29263 14.6062 3.27624 14.8157C3.27198 14.8758 3.26773 14.9353 3.2647 14.9955C3.26105 15.0556 3.25802 15.1151 3.25558 15.1752C3.25073 15.2949 3.24708 15.4151 3.24344 15.5348C3.24283 15.5621 3.24283 15.5894 3.24223 15.6168C3.24223 15.6252 3.24223 15.6332 3.24223 15.6417C3.24162 15.7953 3.24768 15.9484 3.25255 16.1009C3.25255 16.1075 3.25377 16.1148 3.25377 16.1214C3.25498 16.1488 3.25619 16.1761 3.25802 16.2035C3.26347 16.3141 3.2726 16.4245 3.28413 16.535C3.29203 16.6098 3.30052 16.6852 3.31025 16.7598C3.31146 16.7707 3.31329 16.781 3.3145 16.792C3.33516 16.9439 3.35884 17.095 3.3886 17.245C3.44386 17.5256 3.51736 17.8014 3.61817 18.0693C3.62 18.0735 3.62181 18.0783 3.62364 18.0832C3.69895 18.2811 3.7864 18.4738 3.8939 18.6571C4.07064 18.959 4.28625 19.2263 4.56138 19.4393C4.59417 19.4649 4.62758 19.4892 4.66159 19.5135C4.69438 19.5359 4.72962 19.5566 4.76362 19.5773C4.76969 19.5815 4.77699 19.5845 4.78367 19.5876C4.78852 19.59 4.79338 19.5918 4.79823 19.5942C4.80674 19.5986 4.81464 19.604 4.8201 19.6119C4.82192 19.6143 4.82374 19.6179 4.82557 19.6216V19.6204C4.83468 19.6191 4.84258 19.621 4.84683 19.6308H4.84743C4.85594 19.6308 4.86383 19.6332 4.86809 19.641C4.87051 19.641 4.87233 19.641 4.87416 19.6416H4.87477C4.88024 19.6429 4.88509 19.6453 4.88873 19.6507C4.88873 19.6507 4.88873 19.6507 4.88873 19.6513C4.88873 19.6513 4.88995 19.6513 4.89055 19.6513C4.89177 19.6513 4.89299 19.6513 4.8942 19.6513C4.89541 19.6513 4.89601 19.6519 4.89784 19.6519C4.89844 19.6519 4.89967 19.6519 4.90027 19.6525C4.9015 19.6525 4.90269 19.6538 4.90391 19.6544C4.90391 19.6544 4.90512 19.6544 4.90574 19.655C4.90695 19.6562 4.90816 19.6574 4.90938 19.6586C4.90938 19.6586 4.90938 19.6586 4.90999 19.6586C4.92153 19.6708 4.93732 19.6738 4.95189 19.6805C5.25496 19.8147 5.55863 19.949 5.86171 20.0832C6.01171 20.1494 6.16051 20.2192 6.31901 20.263C6.47753 20.3067 6.63848 20.3364 6.80307 20.3431C6.83039 20.3431 6.85774 20.3431 6.88506 20.3431C6.96705 20.3431 7.04905 20.3431 7.13104 20.3431C7.21059 20.3407 7.28956 20.3304 7.36789 20.3183C7.68675 20.2702 7.99285 20.1761 8.28863 20.0492C8.83038 19.8165 9.31929 19.4989 9.77783 19.1314C9.87865 19.0507 9.97705 18.9676 10.0748 18.8831C10.4155 18.8892 10.7557 18.891 11.0964 18.8873C11.4207 18.8837 11.7456 18.8783 12.0699 18.8654C12.0857 18.8564 12.1027 18.8564 12.1197 18.863C12.1246 18.863 12.1295 18.863 12.1343 18.863C12.1538 18.8538 12.1738 18.8544 12.1938 18.8606H12.2084C12.22 18.8532 12.2321 18.852 12.2443 18.8544C12.2443 18.8544 12.2449 18.8544 12.2455 18.8544H12.2461C12.2503 18.8558 12.254 18.857 12.2576 18.8582H12.2722C12.2801 18.8532 12.288 18.8514 12.2959 18.8508C12.3044 18.8508 12.3129 18.8526 12.322 18.8552C12.3268 18.8552 12.3317 18.8552 12.3366 18.8552C12.342 18.852 12.3475 18.8503 12.353 18.8491C12.3639 18.8467 12.3754 18.8479 12.387 18.852C12.3918 18.852 12.3961 18.852 12.4009 18.852C12.4009 18.852 12.4022 18.852 12.4028 18.8514C12.4186 18.8437 12.435 18.8437 12.4508 18.8497C12.4556 18.8497 12.4605 18.8497 12.4647 18.8497C12.4811 18.8393 12.4975 18.8405 12.5151 18.8467C12.52 18.8467 12.5249 18.8467 12.5291 18.8467C12.5455 18.8369 12.5625 18.8381 12.5795 18.8437C12.5844 18.8437 12.5892 18.8437 12.5935 18.8437C12.5971 18.8411 12.6001 18.8399 12.6032 18.8387C12.6087 18.8369 12.6135 18.8369 12.619 18.8369C12.6238 18.8369 12.6293 18.8381 12.6342 18.8405C12.7083 18.8369 12.7818 18.8345 12.8558 18.8302C13.4231 18.7968 13.9885 18.7518 14.5534 18.6894C15.4109 18.5939 16.2631 18.4658 17.1049 18.2739C17.6782 18.1433 18.2436 17.9866 18.7902 17.7662C19.0836 17.6477 19.3684 17.5123 19.632 17.3349C19.7905 17.2281 19.9375 17.1078 20.0553 16.9541C20.1294 16.8564 20.1895 16.7512 20.2126 16.6287C20.2217 16.6189 20.2253 16.6074 20.2259 16.5953C20.2314 16.5072 20.2344 16.4197 20.2265 16.3316L20.2217 16.3322ZM12.6087 14.4744C12.4508 14.4646 12.2935 14.4561 12.1355 14.4495C12.2935 14.4568 12.4508 14.4652 12.6087 14.4744ZM9.10611 17.3416C9.0806 17.3641 9.0551 17.3872 9.02959 17.4097C8.85042 17.567 8.6658 17.7157 8.47326 17.8549C8.28073 17.9933 8.08091 18.122 7.872 18.2369C7.84223 18.2532 7.81186 18.2696 7.7815 18.2855C7.71165 18.3219 7.6412 18.3565 7.57014 18.3899C7.49908 18.4227 7.42682 18.4531 7.35393 18.4816C7.20816 18.5386 7.05875 18.5861 6.90449 18.6225C6.83769 18.6383 6.77087 18.6516 6.70407 18.6619C6.68039 18.6657 6.6567 18.6693 6.63362 18.6729C6.54252 18.685 6.45141 18.6923 6.35971 18.6947C6.32935 18.6953 6.29837 18.6959 6.268 18.6953C6.23703 18.6953 6.20665 18.6941 6.1757 18.6929C6.16234 18.6923 6.14957 18.6906 6.13621 18.6894C6.12346 18.6882 6.1101 18.6864 6.09673 18.685C6.07973 18.6838 6.06698 18.6766 6.05423 18.6657C6.01778 18.6329 5.98316 18.5989 5.94915 18.5637C5.89874 18.5114 5.85075 18.4567 5.80581 18.4002C5.77606 18.3626 5.7469 18.3237 5.71896 18.2837C5.705 18.2636 5.69164 18.2435 5.67828 18.2234C5.67706 18.2216 5.67645 18.2198 5.67585 18.218C5.67523 18.215 5.67402 18.2113 5.67342 18.2083C5.66795 18.2029 5.66066 18.1974 5.65642 18.1914L5.65519 18.19C5.59264 18.0912 5.53616 17.9891 5.48514 17.884C5.45964 17.8311 5.43534 17.7789 5.41287 17.7249C5.38978 17.6714 5.36854 17.6167 5.34849 17.5614C5.34607 17.5548 5.34666 17.5481 5.34545 17.5409C5.31023 17.4753 5.29261 17.4035 5.27075 17.3337C5.22216 17.1776 5.18389 17.0191 5.15231 16.8588C5.14684 16.8302 5.14139 16.8023 5.13592 16.7737C5.13348 16.7622 5.13227 16.7512 5.12984 16.7397C5.12741 16.7258 5.12437 16.7118 5.12195 16.6979C5.12195 16.6941 5.12195 16.6912 5.12073 16.6876C5.11952 16.6754 5.11892 16.6627 5.11771 16.6504C5.09705 16.5613 5.08794 16.47 5.07762 16.3789C5.04238 16.0888 5.02903 15.7972 5.02842 15.5056C5.02842 15.3957 5.02963 15.2852 5.03267 15.1746C5.03449 15.109 5.03753 15.044 5.04117 14.9791C5.28108 14.922 5.5228 14.8716 5.76512 14.8254C6.17932 14.7471 6.59597 14.6833 7.01381 14.6317C7.02049 14.6311 7.02717 14.6298 7.03386 14.6292C7.04175 14.628 7.04965 14.6274 7.05754 14.628C7.06241 14.628 7.06726 14.6292 7.07212 14.6304C7.13711 14.6165 7.20331 14.6092 7.26951 14.6025C7.29988 14.5995 7.33025 14.5964 7.36 14.5934C7.81916 14.5424 8.2789 14.5035 8.73928 14.4756C8.86864 14.4677 8.99801 14.4604 9.12675 14.4543C9.45715 14.4385 9.78755 14.4282 10.1179 14.4221C10.2989 14.4185 10.4799 14.4167 10.6609 14.4167C10.919 14.4167 11.1772 14.4197 11.4347 14.4258C11.3788 14.5187 11.3223 14.6116 11.2646 14.7033C11.2227 14.7707 11.1802 14.8375 11.1371 14.9037C11.0599 15.0222 10.9816 15.1394 10.9014 15.256C10.7532 15.471 10.5996 15.6817 10.4398 15.8883C10.3894 15.9539 10.3384 16.0188 10.2862 16.0832C10.2771 16.0947 10.268 16.1063 10.2588 16.1172C10.1835 16.2107 10.107 16.3025 10.0287 16.393C9.89808 16.5442 9.76386 16.6917 9.62599 16.8363C9.58409 16.8801 9.54219 16.9238 9.49967 16.967C9.39035 17.0774 9.27738 17.1855 9.16199 17.2906C9.14316 17.3076 9.12433 17.3252 9.10551 17.3422L9.10611 17.3416ZM9.72075 17.3124C9.85437 17.3168 9.98858 17.3204 10.1222 17.3228C9.98797 17.3204 9.85437 17.3168 9.72075 17.3124ZM18.5528 15.8901C18.549 15.8949 18.5431 15.8998 18.5333 15.907C18.5206 15.9168 18.5078 15.9271 18.4944 15.9362C18.4816 15.946 18.4683 15.9551 18.455 15.9647C18.4301 15.9824 18.4045 15.9995 18.3784 16.0158C18.3754 16.0176 18.3723 16.0194 18.3693 16.0219C18.348 16.0353 18.3267 16.0486 18.3049 16.0613C18.2728 16.0808 18.2412 16.0989 18.2084 16.1172C17.9861 16.2411 17.7522 16.3407 17.5135 16.4288C17.2882 16.5114 17.0599 16.5837 16.8296 16.648C16.4999 16.7403 16.1658 16.8168 15.8287 16.8837C15.5014 16.9493 15.1729 17.0046 14.8431 17.0525C14.5133 17.1004 14.1823 17.1406 13.8507 17.1752C13.742 17.1867 13.6332 17.1971 13.5245 17.2074C13.3065 17.2275 13.0885 17.2444 12.8704 17.2591C12.7611 17.2663 12.6518 17.273 12.5431 17.279C12.2983 17.2931 12.0535 17.3034 11.8088 17.3112C11.7644 17.3124 11.7201 17.3144 11.6752 17.3156C11.6345 17.3168 11.5938 17.318 11.5525 17.3192C11.6527 17.1953 11.7529 17.072 11.8446 16.9413C11.858 16.925 11.8713 16.9085 11.8841 16.8916C12.0803 16.6273 12.2686 16.3583 12.4495 16.0844C12.4592 16.0693 12.5097 15.9927 12.5248 15.9691C12.6396 15.7923 12.7508 15.6137 12.8595 15.4328C13.0368 15.1364 13.2063 14.8357 13.3672 14.5309C13.6745 14.5576 13.9813 14.5885 14.288 14.6262C14.3104 14.6286 14.3329 14.6335 14.356 14.6371C14.4932 14.6469 14.6293 14.6675 14.7647 14.6875C14.939 14.7131 15.1134 14.741 15.287 14.7701C15.5215 14.8096 15.7559 14.8533 15.9884 14.9037C16.1143 14.9311 16.2394 14.959 16.3651 14.9864C16.3663 14.9864 16.3681 14.9864 16.3693 14.987C16.3705 14.987 16.3718 14.987 16.3736 14.9876C16.3814 14.9888 16.3905 14.9888 16.3991 14.99C16.41 14.9912 16.421 14.9943 16.4295 15.0034C16.698 15.072 16.9657 15.1443 17.2287 15.2311C17.253 15.239 17.2809 15.2414 17.2998 15.2621C17.3684 15.2742 17.431 15.3028 17.4953 15.3265C17.5519 15.3471 17.6084 15.369 17.6643 15.3914C17.824 15.4546 17.9807 15.5245 18.1324 15.6053C18.1925 15.6368 18.2515 15.6702 18.3098 15.7054C18.387 15.7523 18.4622 15.8014 18.5327 15.8579C18.5534 15.8742 18.5594 15.881 18.5514 15.8907L18.5528 15.8901Z" fill="#A1A1AA"/>
<path d="M20.229 11.5134C20.2218 11.3682 20.1666 11.2401 20.0821 11.1235C19.9631 10.9577 19.8094 10.8283 19.643 10.7141C19.3594 10.5198 19.049 10.3771 18.7314 10.2495C18.5546 10.1784 18.3755 10.1153 18.1944 10.057C17.9188 9.96831 17.6388 9.89239 17.3576 9.82315C17.006 9.73692 16.6524 9.66221 16.2966 9.59722C16.0797 9.55774 15.8623 9.51948 15.6443 9.4879C15.6376 9.4879 15.6308 9.4873 15.6242 9.48669C15.6206 9.48669 15.6163 9.48607 15.6127 9.48547C15.6048 9.48486 15.5962 9.48365 15.5884 9.48305C15.5702 9.48062 15.5513 9.47696 15.5338 9.47272C15.4687 9.46239 15.4043 9.45206 15.3394 9.44114C15.3017 9.43568 15.2641 9.43021 15.2265 9.42534C15.2118 9.42291 15.1973 9.4211 15.1827 9.41927C15.0326 9.40105 14.8821 9.38344 14.732 9.36401C14.6883 9.35854 14.6446 9.3549 14.6009 9.35004C14.5571 9.34579 14.5134 9.34032 14.4703 9.33181C14.1787 9.30448 13.8872 9.27533 13.5951 9.25165C13.5544 9.2486 13.5137 9.24496 13.473 9.24192C13.2216 9.22189 12.9701 9.20487 12.7181 9.19274C12.5972 9.18727 12.4758 9.18059 12.3543 9.17451C12.2626 9.17027 12.1703 9.1654 12.0786 9.16176C11.8684 9.15386 11.6589 9.14901 11.4487 9.14475C11.3704 9.14293 11.292 9.14171 11.2143 9.1405C11.2143 9.1405 11.3582 8.5611 11.4159 8.26836C11.4597 8.04911 11.4973 7.82863 11.5307 7.60757C11.5526 7.45938 11.572 7.31118 11.589 7.16239C11.6067 7.00691 11.6206 6.85082 11.6303 6.69413C11.6407 6.52712 11.6473 6.3595 11.651 6.19247C11.6552 5.96836 11.648 5.74486 11.6315 5.52135C11.6206 5.37377 11.6067 5.22679 11.5878 5.07983C11.5623 4.87879 11.5259 4.68018 11.4779 4.48341C11.4396 4.3261 11.3959 4.16941 11.3376 4.01758C11.3346 4.01758 11.3315 4.01758 11.3285 4.01879C11.3255 4.01879 11.3224 4.02001 11.32 4.02062C11.3103 4.02365 11.3018 4.02851 11.2927 4.03215C11.0376 4.13905 10.7964 4.27205 10.5638 4.42024C10.5505 4.42875 10.5359 4.43544 10.5304 4.45183C10.5863 4.80469 10.6124 5.15938 10.6155 5.5165C10.6203 6.02727 10.5827 6.53502 10.5128 7.04092C10.46 7.42173 10.3901 7.7995 10.3051 8.17482C10.2316 8.50036 10.1466 8.82287 10.0518 9.14233C9.82289 9.14475 9.5933 9.15203 9.36434 9.15933C9.05946 9.16965 8.75456 9.18363 8.45029 9.20306C8.18184 9.22006 7.91279 9.23768 7.64434 9.26075C7.29573 9.29112 6.94773 9.32513 6.60093 9.36765C6.51772 9.54014 6.43694 9.71383 6.3592 9.88875C6.2432 10.1499 6.13389 10.4135 6.03125 10.6795C6.0361 10.6789 6.04036 10.6783 6.04521 10.6777C6.45031 10.6206 6.85723 10.5732 7.26415 10.5325C7.38076 10.521 7.49736 10.507 7.61459 10.4967C7.90368 10.4724 8.19338 10.456 8.48309 10.4378C8.85964 10.4135 9.23679 10.3983 9.61456 10.3874C9.61943 10.3874 9.62367 10.3874 9.62854 10.3874C9.94981 10.3783 10.2711 10.374 10.593 10.3734C10.6738 10.3734 10.7545 10.3734 10.8359 10.374C11.0194 10.3746 11.2034 10.3764 11.3868 10.3795C11.5951 10.3831 11.8028 10.391 12.0111 10.3983C12.013 10.3983 12.0148 10.3983 12.0166 10.3983C12.2158 10.4056 12.415 10.4129 12.6142 10.4226C12.7673 10.4299 12.9203 10.4408 13.0734 10.4524C13.1062 10.4548 13.139 10.4572 13.1718 10.4596C13.4013 10.476 13.6303 10.4931 13.8599 10.5107C13.9164 10.5149 13.9723 10.5228 14.0287 10.5283C14.3324 10.555 14.6355 10.589 14.9379 10.6279C15.0734 10.6449 15.2082 10.6631 15.3436 10.6813C15.6284 10.7208 15.9128 10.7682 16.1958 10.8174C16.4684 10.8654 16.7405 10.9194 17.0102 10.9808C17.2476 11.0348 17.4839 11.0937 17.7183 11.1575C18.0263 11.2413 18.3287 11.3391 18.6275 11.4496C18.8857 11.5456 19.1353 11.6586 19.377 11.7903C19.5433 11.8814 19.7012 11.9835 19.8452 12.1074C19.9758 12.2197 20.09 12.3461 20.166 12.504C20.1962 12.5665 20.2103 12.6339 20.2296 12.6995C20.2304 12.5689 20.2316 12.4384 20.2322 12.3078C20.2322 12.1141 20.2322 11.9197 20.2322 11.726C20.2322 11.6555 20.2346 11.5845 20.231 11.5146L20.229 11.5134Z" fill="#71717A"/>
<path d="M12.5616 2.24821C12.5148 2.23303 12.4668 2.22209 12.4219 2.20083C12.4219 2.19477 12.4225 2.18868 12.4231 2.18262C12.479 2.19962 12.5318 2.22331 12.581 2.25489C12.5743 2.25246 12.5676 2.25063 12.561 2.24821H12.5616Z" fill="#404A5A"/>
<path d="M12.3973 2.19113C12.3973 2.19113 12.4015 2.19296 12.4028 2.19477C12.4028 2.19477 12.4022 2.19477 12.4015 2.19477C12.3967 2.19781 12.3937 2.19538 12.3906 2.19113C12.3931 2.19053 12.3949 2.18991 12.3973 2.19113Z" fill="#404A5A"/>
<path d="M6.7513 5.72461C6.7513 5.72461 6.75008 5.72948 6.74826 5.73129C6.74826 5.73129 6.74766 5.73191 6.74704 5.7325C6.74583 5.73373 6.744 5.73433 6.74219 5.73433C6.74219 5.73373 6.74219 5.73312 6.74219 5.7325V5.73069C6.74219 5.73069 6.74583 5.72705 6.74766 5.72584C6.74887 5.72584 6.75008 5.72461 6.7513 5.72461Z" fill="#404A5A"/>
<path d="M7.00138 5.40566C7.00138 5.40566 6.99714 5.40992 6.9947 5.41113C6.99167 5.41294 6.98863 5.41416 6.98438 5.41537C6.98438 5.41294 6.98438 5.41113 6.98438 5.4093C6.98438 5.40747 6.98438 5.40566 6.98499 5.40445C6.9862 5.40141 6.98742 5.39837 6.98924 5.39594C6.99106 5.39351 6.9941 5.39168 6.99652 5.38926C6.99957 5.38744 7.00259 5.38562 7.00563 5.38379C7.00625 5.38804 7.00625 5.39168 7.00563 5.39532C7.00563 5.39837 7.00381 5.40019 7.00259 5.40262C7.00259 5.40323 7.00138 5.40445 7.00138 5.40505V5.40566Z" fill="#404A5A"/>
<path d="M7.09982 5.27752C7.09982 5.27752 7.0986 5.27752 7.0986 5.27814C7.09799 5.27814 7.09678 5.27814 7.09618 5.27814C7.09556 5.27814 7.09496 5.27814 7.09375 5.27814C7.09678 5.2745 7.09982 5.27024 7.10286 5.2666C7.10286 5.26782 7.10286 5.26841 7.10286 5.26963C7.10286 5.27267 7.10165 5.2745 7.09922 5.27631L7.09982 5.27752Z" fill="#215CB5"/>
<path d="M7.14844 5.20223C7.14844 5.19919 7.15086 5.19676 7.15329 5.19555C7.15451 5.19555 7.15572 5.19494 7.15693 5.19434C7.15693 5.19615 7.15633 5.19676 7.15572 5.19798C7.15572 5.19919 7.15572 5.2004 7.15451 5.20162C7.15451 5.20223 7.15329 5.20283 7.15269 5.20344C7.15148 5.20406 7.14965 5.20466 7.14844 5.20527C7.14844 5.20406 7.14844 5.20344 7.14844 5.20223Z" fill="#215CB5"/>
<path d="M11.4609 1.76168C11.4725 1.75683 11.4798 1.76168 11.4864 1.77079C11.4761 1.77322 11.4652 1.77565 11.4609 1.76229V1.76168Z" fill="#FEC35E"/>
<path d="M8.57812 3.67279C8.58177 3.66977 8.58481 3.66673 8.58845 3.66309C8.58845 3.66369 8.58845 3.6649 8.58845 3.66551C8.58845 3.66794 8.58723 3.66915 8.58602 3.67098H8.58541C8.58541 3.67098 8.58177 3.67279 8.57812 3.67279Z" fill="#404A5A"/>
<path d="M8.64852 3.60167C8.65156 3.59985 8.6552 3.59863 8.65946 3.59863C8.65946 3.6041 8.65824 3.60714 8.65582 3.60836C8.65216 3.61078 8.64548 3.60897 8.64062 3.60957C8.64305 3.60593 8.64548 3.6035 8.64852 3.60167Z" fill="#404A5A"/>
<path d="M8.69721 3.5708C8.69721 3.5708 8.69599 3.57566 8.69418 3.57748C8.69418 3.57748 8.69297 3.57808 8.69235 3.5787C8.69114 3.5793 8.68931 3.57991 8.6875 3.57991C8.69053 3.57625 8.69418 3.57201 8.69721 3.56836C8.69721 3.56959 8.69721 3.57019 8.69721 3.5714V3.5708Z" fill="#404A5A"/>
<path d="M9.29877 3.0941C9.29877 3.0941 9.29756 3.09653 9.29696 3.09774C9.29513 3.09957 9.2927 3.10017 9.28906 3.10017C9.29209 3.09653 9.29573 3.09348 9.29938 3.08984C9.29938 3.09167 9.29938 3.09288 9.29938 3.09471L9.29877 3.0941Z" fill="#404A5A"/>
<path d="M9.29096 3.10059C9.29096 3.10059 9.29096 3.10241 9.29096 3.10301C9.29096 3.10544 9.28974 3.10667 9.28853 3.10727C9.28732 3.10788 9.2861 3.10788 9.28368 3.10727C9.28306 3.10727 9.28185 3.10727 9.28125 3.10605C9.28489 3.10423 9.28792 3.10241 9.29157 3.10059H9.29096Z" fill="#404A5A"/>
<path d="M12.4178 2.17955C12.1177 2.04593 11.8171 1.91292 11.5171 1.7787C11.5049 1.77323 11.4928 1.77748 11.4818 1.7708C11.4715 1.77323 11.4606 1.77566 11.4563 1.7623C11.4442 1.76777 11.4326 1.7623 11.4211 1.75805C11.1581 1.67909 10.8891 1.6548 10.6152 1.66877C10.2526 1.6876 9.90517 1.77627 9.56749 1.90685C9.4612 1.94754 9.35675 1.99248 9.25471 2.04046C9.2292 2.05261 9.20368 2.06476 9.17819 2.07751C9.14842 2.09209 9.11866 2.10666 9.08951 2.12246C9.05004 2.1425 9.01116 2.16315 8.97168 2.1844C8.76701 2.29615 8.5684 2.42066 8.37588 2.55428C8.3358 2.58222 8.29571 2.61016 8.25624 2.6387L8.23255 2.6557C8.13781 2.72494 8.04488 2.79539 7.95378 2.86827C7.72542 3.04987 7.50617 3.243 7.2942 3.44524C6.70569 4.00704 6.18277 4.62713 5.70419 5.28428C5.69204 5.30129 5.67989 5.31891 5.66776 5.33591C5.66776 5.33591 5.66655 5.34015 5.66532 5.34138C5.6641 5.34259 5.66229 5.34319 5.65986 5.3438C5.61673 5.40514 5.57422 5.46587 5.5311 5.52722C5.45943 5.62926 5.38899 5.73128 5.31974 5.83514C5.25416 5.93353 5.18917 6.03314 5.12539 6.13273C5.07438 6.2117 5.02458 6.29125 4.97538 6.37143C4.93165 6.44309 4.88792 6.51416 4.84481 6.58581C4.78407 6.68723 4.72394 6.78926 4.66442 6.89251C4.63466 6.94413 4.60551 6.99516 4.57636 7.04738C4.57332 7.05345 4.56908 7.05892 4.56542 7.065C4.56542 7.07168 4.56299 7.07714 4.56057 7.08261C4.55814 7.08626 4.55571 7.0905 4.55389 7.09416C4.52656 7.14274 4.49983 7.19194 4.47311 7.24112C4.3723 7.42515 4.2739 7.61099 4.17916 7.79807C4.13907 7.87702 4.09959 7.95658 4.06072 8.03613C3.85059 8.46614 3.65562 8.90282 3.47646 9.34557C3.38111 9.58061 3.29062 9.81748 3.20437 10.0555C3.15881 10.1819 3.11387 10.3088 3.07075 10.4364C2.99119 10.672 2.9183 10.9095 2.84725 11.1475C2.8181 11.2453 2.78956 11.3437 2.76223 11.4421C2.76162 11.4446 2.76102 11.447 2.7604 11.4494C2.71729 11.6037 2.6772 11.7585 2.63955 11.914C2.60493 12.0537 2.57152 12.194 2.54055 12.3349C2.51383 12.4552 2.48953 12.576 2.46524 12.6969C2.45977 12.7254 2.45431 12.754 2.44884 12.7831C2.44641 12.7947 2.44458 12.8062 2.44216 12.8178C2.44154 12.822 2.44033 12.8262 2.43973 12.8311C2.43547 12.8542 2.43062 12.8767 2.42637 12.8997C2.39174 13.0886 2.36078 13.2781 2.33405 13.4688C2.30794 13.6528 2.28485 13.8363 2.26542 14.0209C2.26117 14.0622 2.25753 14.1035 2.25327 14.1448C2.25327 14.1478 2.25266 14.1509 2.25266 14.1539C2.24963 14.1855 2.2478 14.208 2.24538 14.2304C2.23687 14.3331 2.22959 14.4363 2.22352 14.539C2.21744 14.6422 2.21258 14.7455 2.20954 14.8487C2.20954 14.8621 2.20954 14.8754 2.20833 14.8888C2.20226 15.0874 2.20105 15.2854 2.20711 15.4834C2.21318 15.6704 2.22352 15.8569 2.24112 16.0434C2.25813 16.2292 2.28181 16.4145 2.31401 16.5997C2.3298 16.6901 2.3468 16.78 2.36623 16.8693C2.43062 17.1706 2.51747 17.4657 2.63651 17.7513C2.645 17.7712 2.6529 17.7907 2.66202 17.8107C2.67051 17.8302 2.67962 17.8501 2.68813 17.8696C2.70878 17.9158 2.73065 17.9613 2.75312 18.0062C2.79077 18.0816 2.83086 18.155 2.87338 18.2268C2.98998 18.4235 3.12723 18.6064 3.29001 18.7715C3.33252 18.8152 3.37685 18.8566 3.42241 18.896C3.50804 18.9707 3.59914 19.0394 3.69631 19.1008C3.71454 19.1123 3.73579 19.1189 3.74915 19.1366C3.75098 19.139 3.75281 19.142 3.75402 19.145C3.76313 19.1432 3.76981 19.145 3.77224 19.1547C3.80989 19.1638 3.84025 19.1893 3.87487 19.2046C4.0595 19.2865 4.24353 19.3685 4.42816 19.4506C4.53324 19.4973 4.63892 19.5429 4.7446 19.589L4.75796 19.5769C4.72394 19.5556 4.68872 19.5355 4.65592 19.5131C4.6213 19.4894 4.58851 19.4645 4.55571 19.4391C4.28058 19.2253 4.06497 18.9586 3.88824 18.6567C3.78073 18.4734 3.69329 18.2809 3.61798 18.0828C3.61615 18.078 3.61432 18.0737 3.61251 18.0689C3.51168 17.801 3.4382 17.5252 3.38293 17.2446C3.35317 17.0946 3.32948 16.9435 3.30884 16.7916C3.30762 16.7806 3.3058 16.7703 3.30458 16.7594C3.29486 16.6847 3.28637 16.6094 3.27847 16.5346C3.26692 16.4242 3.25842 16.3143 3.25236 16.2031C3.25113 16.1757 3.24932 16.1484 3.2481 16.1212C3.2481 16.1144 3.24749 16.1071 3.24689 16.1005C3.24142 15.9474 3.23595 15.7943 3.23655 15.6413C3.23655 15.6328 3.23655 15.6242 3.23655 15.6164C3.23655 15.589 3.23655 15.5617 3.23778 15.5344C3.24142 15.4141 3.24506 15.2945 3.24992 15.1748C3.25236 15.1147 3.25538 15.0552 3.25902 14.9951C3.26268 14.935 3.26632 14.8754 3.27057 14.8153C3.28637 14.6058 3.30762 14.3975 3.33312 14.1891C3.34223 14.1132 3.35195 14.0379 3.36289 13.962C3.37442 13.8776 3.38717 13.7931 3.40054 13.7093C3.41087 13.6431 3.4218 13.5769 3.43333 13.5107C3.4461 13.4354 3.46006 13.3607 3.47404 13.2854C3.49164 13.1907 3.51047 13.0965 3.5299 13.0018C3.55237 12.8943 3.57546 12.7862 3.59974 12.6793C3.62162 12.5839 3.64409 12.4886 3.66777 12.3932C3.69389 12.2881 3.72061 12.1831 3.74855 12.0786C3.75523 12.0543 3.76251 12.03 3.76981 12.0057C3.77709 11.9814 3.78439 11.9571 3.79045 11.9329C3.8032 11.8818 3.81354 11.8308 3.83176 11.781C3.83601 11.7755 3.84269 11.7701 3.84329 11.764C3.85787 11.6438 3.90099 11.5314 3.93804 11.4184C3.95444 11.368 3.97023 11.317 3.98602 11.266C4.00788 11.1949 4.02975 11.1239 4.05222 11.0528C4.07044 10.9945 4.08927 10.9362 4.10932 10.8785C4.11721 10.856 4.12449 10.833 4.13239 10.8099C4.14271 10.7807 4.15305 10.7516 4.16337 10.7224C4.2071 10.6009 4.2496 10.4789 4.29395 10.3574C4.31216 10.3076 4.33099 10.2572 4.34983 10.2074C4.4148 10.0367 4.48162 9.86728 4.55084 9.69904C4.57029 9.65107 4.59032 9.60368 4.61037 9.55631C4.62677 9.51805 4.64256 9.4804 4.65835 9.44214C4.69723 9.35225 4.7367 9.26237 4.77618 9.17248C4.80714 9.10202 4.83872 9.03218 4.87092 8.96172C4.89522 8.90767 4.92012 8.85483 4.94502 8.80078C5.01182 8.65745 5.07985 8.51532 5.1509 8.37383C5.16305 8.34891 5.17763 8.32523 5.19159 8.30154C5.20557 8.27786 5.21953 8.25357 5.23168 8.22806C5.43817 7.79017 5.68051 7.3717 5.93013 6.9575C5.9526 6.92045 5.97445 6.8834 5.99693 6.84635C6.04917 6.76012 6.09896 6.67267 6.15789 6.59189C6.19492 6.54148 6.22893 6.49046 6.26293 6.43823C6.29694 6.38661 6.33035 6.33438 6.36497 6.28336C6.43543 6.18133 6.50102 6.07565 6.57086 5.973C6.57997 5.95964 6.58908 5.94629 6.59819 5.93293C6.64496 5.86551 6.69354 5.79931 6.74091 5.73249C6.74091 5.73189 6.74091 5.73128 6.74091 5.73068V5.72885C6.74091 5.72885 6.74455 5.72521 6.74638 5.724C6.74759 5.724 6.74881 5.72279 6.75002 5.72279C6.81865 5.63047 6.88728 5.53754 6.95591 5.44523C6.95895 5.44097 6.96259 5.43733 6.96563 5.43369C6.96746 5.43186 6.96867 5.43004 6.96989 5.42882C6.97414 5.42397 6.97838 5.41971 6.98264 5.41486C6.98264 5.41243 6.98264 5.41061 6.98264 5.40879C6.98264 5.40697 6.98264 5.40514 6.98325 5.40392C6.98446 5.40028 6.98568 5.39786 6.9875 5.39543C6.98932 5.39299 6.99236 5.39118 6.99478 5.38875C6.99783 5.38692 7.00085 5.38509 7.00389 5.38328C7.00572 5.38145 7.00693 5.37964 7.00815 5.37781C7.03487 5.3444 7.0622 5.31101 7.08893 5.2776C7.09195 5.27396 7.09499 5.26971 7.09804 5.26607C7.09804 5.26362 7.09925 5.26181 7.10046 5.25938C7.10108 5.25756 7.10229 5.25513 7.1035 5.2533C7.10593 5.24966 7.10897 5.24602 7.112 5.24298C7.112 5.24238 7.11321 5.24177 7.11383 5.24115C7.12536 5.23023 7.13994 5.22112 7.14298 5.20472C7.14298 5.20351 7.14298 5.20289 7.14298 5.20168C7.14298 5.19865 7.14541 5.19621 7.14783 5.195C7.14905 5.195 7.15026 5.1944 7.15147 5.19378C7.15937 5.18771 7.16666 5.18165 7.17273 5.17435C7.17456 5.17252 7.17577 5.17071 7.17699 5.1695C7.18184 5.16403 7.1861 5.15795 7.19035 5.15188C7.19582 5.14398 7.20129 5.13548 7.20675 5.12698C7.21099 5.1209 7.21525 5.11423 7.2195 5.10815C7.22254 5.10389 7.22557 5.09965 7.22861 5.096C7.24926 5.0705 7.27051 5.04499 7.29117 5.02009C7.43693 4.84214 7.58695 4.66843 7.74121 4.49838C7.86207 4.36476 7.98719 4.2354 8.11351 4.10725C8.13537 4.08478 8.15784 4.06231 8.17971 4.04045C8.22102 3.99915 8.26413 3.96088 8.30665 3.92141C8.32365 3.90562 8.34066 3.89043 8.35706 3.87404C8.3607 3.871 8.36373 3.86736 8.36738 3.86431C8.42022 3.8133 8.47428 3.76228 8.52771 3.71186C8.52893 3.71065 8.53014 3.71005 8.53137 3.70884C8.54533 3.69607 8.56112 3.68454 8.5757 3.673C8.57934 3.66996 8.58238 3.66692 8.58602 3.66328C8.58723 3.66207 8.58785 3.66147 8.58906 3.66024C8.60545 3.64324 8.62247 3.62685 8.63886 3.60984C8.64129 3.60619 8.64371 3.60376 8.64675 3.60195C8.6498 3.60012 8.65344 3.59891 8.65769 3.59891C8.66254 3.59829 8.6668 3.59586 8.67044 3.59344C8.67287 3.59161 8.67531 3.58918 8.67774 3.58676C8.67955 3.58493 8.68076 3.5825 8.68259 3.58007C8.68563 3.57643 8.68927 3.57218 8.69231 3.56854C8.73543 3.53028 8.77854 3.49261 8.82289 3.45556C8.82957 3.45011 8.83625 3.44464 8.84293 3.43856C8.88544 3.40273 8.92857 3.3675 8.9723 3.33228C9.07008 3.25393 9.17089 3.17802 9.27354 3.10635C9.27718 3.10452 9.28021 3.10271 9.28386 3.10088H9.28446C9.2875 3.09663 9.29114 3.09299 9.29479 3.08995C9.31787 3.07294 9.34156 3.05533 9.36464 3.03894C9.4114 3.00493 9.45938 2.97213 9.50675 2.93994C9.53044 2.92415 9.55474 2.90774 9.57902 2.89257C9.60332 2.87678 9.62761 2.86099 9.65191 2.8458C9.72539 2.79964 9.79949 2.7547 9.8748 2.71158C9.95679 2.66421 10.0406 2.61865 10.1244 2.57492C10.3771 2.44496 10.6382 2.33503 10.9115 2.25365C10.9322 2.24756 10.9535 2.2415 10.9741 2.23542C11.1199 2.19473 11.2662 2.16376 11.415 2.14371C11.4994 2.13216 11.5851 2.12427 11.6707 2.12063C11.7351 2.1176 11.7995 2.11699 11.8645 2.11882C11.8863 2.11942 11.9076 2.12003 11.9295 2.12124C11.9944 2.12488 12.0588 2.13157 12.1232 2.14067C12.2125 2.15282 12.3005 2.16983 12.3886 2.1923C12.391 2.19168 12.3929 2.19109 12.3953 2.1923C12.3977 2.1923 12.3995 2.19413 12.4007 2.19594C12.4026 2.19655 12.405 2.19715 12.4068 2.19777C12.4111 2.19898 12.4147 2.20019 12.419 2.20202C12.419 2.19594 12.4196 2.18987 12.4202 2.18379C12.419 2.18258 12.4178 2.18136 12.4159 2.18076L12.4178 2.17955Z" fill="#F1ECE2"/>
<path d="M11.4549 1.76139C11.4506 1.74256 11.4324 1.74074 11.4191 1.73466C11.1603 1.61987 10.9016 1.50448 10.6417 1.39091C10.5724 1.36054 10.5056 1.32531 10.4339 1.30102C10.4261 1.30588 10.4175 1.30527 10.409 1.30223C10.2311 1.24393 10.0465 1.21477 9.86061 1.20323C9.68995 1.19291 9.51868 1.20323 9.34923 1.22571C9.20954 1.24453 9.07228 1.27369 8.93624 1.31013C8.67204 1.38119 8.41817 1.47776 8.17342 1.59862C8.07928 1.64538 7.98818 1.69822 7.89525 1.74742C7.86428 1.76381 7.83209 1.77839 7.80233 1.796C7.53631 1.95452 7.2782 2.12518 7.03344 2.31528C6.97209 2.36266 6.90954 2.40882 6.85245 2.46043C6.8154 2.49384 6.77956 2.52785 6.73947 2.557C6.73219 2.56247 6.7243 2.56794 6.71519 2.5734C6.70851 2.57947 6.70183 2.58494 6.69514 2.59041V2.59162C6.6921 2.59952 6.68908 2.60681 6.68421 2.61105C6.68118 2.61349 6.67814 2.61471 6.6745 2.61531C6.67267 2.61531 6.67025 2.61531 6.66842 2.61531H6.6672C6.6672 2.61531 6.66356 2.61409 6.66114 2.61349C6.65931 2.61471 6.6575 2.61592 6.65627 2.61713C6.63502 2.63231 6.62347 2.65844 6.60404 2.67361C6.601 2.67604 6.59798 2.67787 6.59493 2.67968C6.54392 2.70641 6.51294 2.75439 6.46738 2.78719C6.42367 2.81877 6.38722 2.86067 6.34714 2.89772C6.14852 3.08053 5.96085 3.27427 5.77501 3.46984C5.71792 3.52997 5.6669 3.59433 5.61224 3.65689C5.58066 3.69273 5.54544 3.72431 5.51446 3.75955C5.43004 3.85612 5.34804 3.95511 5.26484 4.05228C5.20289 4.12455 5.14458 4.19926 5.08932 4.27638C5.04559 4.33773 4.99336 4.3924 4.94659 4.45131C4.80508 4.63291 4.67086 4.81995 4.53664 5.00641C4.40424 5.19044 4.28277 5.38176 4.15705 5.57063C4.04409 5.74009 3.94022 5.91561 3.83273 6.08931C3.79324 6.15369 3.75802 6.22049 3.71793 6.28488C3.6493 6.39541 3.58554 6.50898 3.52541 6.62437C3.48776 6.66931 3.46529 6.72398 3.43673 6.77439C3.37721 6.88007 3.32013 6.98696 3.26851 7.09689C3.2521 7.13213 3.22842 7.16188 3.21141 7.1971C3.16343 7.29489 3.11484 7.39267 3.06443 7.48985C2.93872 7.734 2.82818 7.98483 2.71339 8.23445C2.58888 8.50412 2.47835 8.78044 2.36903 9.05679C2.29493 9.24446 2.22024 9.43213 2.16132 9.62527C2.15159 9.65685 2.13338 9.68539 2.12245 9.71637C2.06536 9.88278 2.00827 10.0486 1.95422 10.2156C1.9038 10.3693 1.85643 10.5241 1.81087 10.679C1.76716 10.8284 1.72524 10.9778 1.68517 11.1278C1.60681 11.4188 1.53514 11.7115 1.47381 12.006C1.45802 12.0844 1.44222 12.1628 1.42704 12.2411C1.37481 12.5077 1.32865 12.7762 1.291 13.0458C1.25577 13.3021 1.22662 13.559 1.20354 13.8165C1.20172 13.8402 1.19989 13.8639 1.19807 13.8876C1.18714 14.0285 1.17864 14.17 1.17317 14.3121C1.16649 14.4743 1.16528 14.6364 1.16406 14.7986C1.16406 14.8757 1.17196 14.9535 1.17135 15.0312C1.17014 15.1497 1.18046 15.2675 1.18714 15.3853C1.18957 15.4284 1.19139 15.4722 1.19564 15.5159C1.19625 15.5232 1.19747 15.5311 1.19807 15.5384C1.21204 15.6519 1.22115 15.7661 1.23694 15.8791C1.25213 15.989 1.26731 16.099 1.28735 16.2076C1.3165 16.3595 1.34383 16.5113 1.3906 16.6588C1.40518 16.7051 1.41307 16.7537 1.42643 16.801C1.45437 16.9042 1.48777 17.0063 1.52422 17.1065C1.57706 17.2505 1.6378 17.3914 1.70338 17.5299C1.80481 17.7424 1.93053 17.9403 2.07811 18.1239C2.2178 18.2981 2.37753 18.4518 2.56034 18.5805C2.56764 18.586 2.57553 18.5908 2.58343 18.5958C2.59678 18.6042 2.61014 18.6127 2.6235 18.6212C2.6308 18.626 2.63869 18.631 2.64659 18.6358C2.67209 18.6516 2.697 18.668 2.72129 18.6857C2.72129 18.6857 2.7219 18.6857 2.7225 18.6863C2.7298 18.6917 2.73708 18.6972 2.74437 18.7032C2.74437 18.7044 2.74559 18.7056 2.74619 18.7069C2.75044 18.7129 2.75895 18.7135 2.76563 18.7165C3.08144 18.8563 3.39666 18.9959 3.71248 19.1357C3.72523 19.1411 3.73738 19.1496 3.75255 19.146C3.75074 19.1429 3.74953 19.1405 3.7477 19.1375C3.73434 19.1198 3.71308 19.1132 3.69486 19.1017C3.59829 19.0403 3.50659 18.9716 3.42094 18.8969C3.3754 18.8575 3.33105 18.8155 3.28855 18.7724C3.12578 18.6073 2.98852 18.4238 2.87191 18.2277C2.82939 18.1561 2.78932 18.0825 2.75165 18.0072C2.72918 17.9622 2.70732 17.9167 2.68666 17.8705C2.67756 17.8505 2.66906 17.8311 2.66055 17.8111C2.65206 17.791 2.64355 17.7715 2.63504 17.7516C2.51601 17.466 2.42977 17.1709 2.36478 16.8696C2.34535 16.7803 2.32834 16.6905 2.31255 16.6C2.28097 16.4154 2.25727 16.2301 2.23967 16.0437C2.22205 15.8578 2.21173 15.6708 2.20566 15.4837C2.19958 15.2857 2.20079 15.0871 2.20687 14.8891C2.20747 14.8757 2.20747 14.8624 2.20809 14.849C2.21173 14.7458 2.21658 14.6425 2.22205 14.5393C2.22813 14.4366 2.23541 14.3334 2.24392 14.2308C2.24574 14.2083 2.24816 14.1858 2.2512 14.1542C2.2512 14.1512 2.25182 14.1481 2.25182 14.1451C2.25546 14.1038 2.2591 14.0625 2.26395 14.0212C2.28278 13.8366 2.30647 13.6525 2.33258 13.4691C2.35992 13.2784 2.39089 13.0889 2.42491 12.9001C2.42915 12.877 2.43402 12.8545 2.43826 12.8314C2.43887 12.8272 2.44009 12.8229 2.4407 12.8181C2.44313 12.8065 2.44494 12.795 2.44738 12.7834C2.45284 12.7543 2.45831 12.7257 2.46377 12.6972C2.48746 12.5763 2.51236 12.4555 2.53908 12.3352C2.57007 12.1943 2.60346 12.054 2.63808 11.9143C2.67634 11.7589 2.71643 11.604 2.75895 11.4497C2.75895 11.4473 2.76016 11.4449 2.76076 11.4424C2.7881 11.344 2.81664 11.2457 2.8458 11.1479C2.91685 10.9098 2.99034 10.6723 3.0693 10.4367C3.11242 10.3091 3.15736 10.1822 3.2029 10.0559C3.28915 9.81718 3.37965 9.58032 3.47499 9.34588C3.65417 8.90314 3.84852 8.46645 4.05926 8.03646C4.09814 7.95689 4.13762 7.87733 4.17769 7.79838C4.27245 7.61132 4.37083 7.42546 4.47165 7.24145C4.49838 7.19225 4.52571 7.14305 4.55243 7.09447C4.55486 7.09083 4.55729 7.08657 4.55911 7.08293C4.56214 7.07746 4.56457 7.072 4.56397 7.06531C4.56761 7.05925 4.57186 7.05316 4.5749 7.04771C4.60406 6.99609 4.6332 6.94446 4.66296 6.89283C4.72249 6.79018 4.78201 6.68815 4.84334 6.58612C4.88647 6.51445 4.9302 6.44278 4.97392 6.37173C5.02311 6.29156 5.07293 6.212 5.12394 6.13304C5.18771 6.03343 5.25269 5.93382 5.31829 5.83544C5.38752 5.73159 5.45798 5.62955 5.52965 5.52752C5.57216 5.46618 5.61528 5.40545 5.6584 5.3441C5.6584 5.34289 5.6584 5.34166 5.6584 5.34044C5.6584 5.33985 5.65901 5.33863 5.65961 5.33803C5.66082 5.33621 5.66326 5.33559 5.66569 5.33559C5.67783 5.31859 5.68938 5.30098 5.70213 5.28398C6.18073 4.62683 6.70365 4.00734 7.29216 3.44494C7.50413 3.24269 7.72277 3.04955 7.95174 2.86797C8.04284 2.79508 8.13576 2.72462 8.2305 2.6554L8.2542 2.63839C8.29368 2.60984 8.33375 2.5819 8.37384 2.55397C8.56698 2.42035 8.76497 2.29585 8.96965 2.1841C9.00851 2.16284 9.048 2.14218 9.08747 2.12215C9.11723 2.10696 9.14638 2.09178 9.17613 2.0772C9.20165 2.06445 9.22716 2.0523 9.25267 2.04016C9.35531 1.99218 9.45916 1.94723 9.56545 1.90654C9.90313 1.77657 10.2505 1.6879 10.6131 1.66846C10.8864 1.65389 11.1555 1.67818 11.4191 1.75774C11.4306 1.76139 11.4421 1.76685 11.4543 1.76199L11.4549 1.76139Z" fill="#A1A1AA"/>
<path d="M5.66588 5.33739C5.66588 5.33739 5.66952 5.33496 5.67196 5.33496C5.67196 5.33739 5.67073 5.33922 5.66952 5.34043C5.6683 5.34164 5.66649 5.34226 5.66406 5.34286C5.66406 5.34164 5.66406 5.34043 5.66406 5.33922C5.66406 5.3386 5.66466 5.33739 5.66528 5.33679L5.66588 5.33739Z" fill="#D4D4D8"/>
<path d="M6.67074 2.59712C6.6744 2.59288 6.67864 2.59044 6.68472 2.58984C6.68836 2.58984 6.69322 2.58984 6.69808 2.59106V2.59227C6.69504 2.60017 6.692 2.60746 6.68715 2.6117C6.68411 2.61414 6.68108 2.61536 6.67743 2.61596C6.67561 2.61596 6.67319 2.61596 6.67136 2.61596H6.67014C6.67014 2.61596 6.6665 2.61474 6.66406 2.61414C6.66528 2.60685 6.66772 2.60078 6.67136 2.59712H6.67074Z" fill="#D4D4D8"/>
<path d="M10.3798 1.2767C10.1448 1.17163 9.90917 1.06959 9.67534 0.963309C9.40751 0.841233 9.12933 0.765922 8.83477 0.751953C8.76067 0.751953 8.68598 0.751953 8.61188 0.752561C8.58273 0.752561 8.55357 0.752561 8.52503 0.752561C8.37684 0.760456 8.23047 0.78232 8.08532 0.813296C7.65714 0.904397 7.25872 1.07202 6.8767 1.28216C6.49225 1.49352 6.13514 1.74617 5.79564 2.02312C5.75252 2.05835 5.70575 2.09054 5.6681 2.13305C5.66506 2.13427 5.66202 2.13669 5.66021 2.13973V2.14338C5.66021 2.14338 5.65899 2.14338 5.65838 2.14338C5.65717 2.14338 5.65657 2.14338 5.65657 2.14338C5.64684 2.15127 5.63712 2.15857 5.62741 2.16646C5.25146 2.48835 4.90225 2.83756 4.57185 3.20622C4.1795 3.64472 3.81753 4.10752 3.47923 4.58854C2.97514 5.3052 2.52875 6.0571 2.13093 6.83752C1.86248 7.36348 1.61834 7.90098 1.39848 8.4494C1.16951 9.02152 0.959373 9.60092 0.790531 10.1943C0.771704 10.2599 0.748626 10.3249 0.729797 10.3905C0.591322 10.8794 0.471676 11.3725 0.377538 11.8718C0.297369 12.2951 0.233598 12.7202 0.191691 13.149C0.160717 13.46 0.13946 13.7716 0.140674 14.0843C0.140674 14.2264 0.141282 14.3686 0.141889 14.5107C0.143711 14.5301 0.144319 14.5495 0.144926 14.569C0.145533 14.5994 0.144926 14.6291 0.143711 14.6595C0.144926 14.8326 0.159502 15.0045 0.175901 15.1769C0.203231 15.4581 0.245745 15.7363 0.308301 16.0115C0.386041 16.3563 0.492326 16.691 0.643555 17.0112C0.805715 17.3536 1.0116 17.6652 1.28977 17.9258C1.45193 18.0777 1.63048 18.2058 1.83152 18.2999C2.01008 18.3837 2.19107 18.4621 2.37206 18.5417C2.49595 18.5963 2.61863 18.6552 2.74496 18.7037C2.73768 18.6984 2.73038 18.6922 2.7231 18.6868C2.7231 18.6868 2.72249 18.6868 2.72189 18.6862C2.69759 18.6685 2.67269 18.6522 2.64717 18.6363C2.63928 18.6315 2.632 18.6266 2.6241 18.6218C2.61074 18.6133 2.59738 18.6053 2.58401 18.5963C2.57612 18.5914 2.56884 18.586 2.56094 18.5811C2.37813 18.4518 2.21901 18.2987 2.07871 18.1244C1.93111 17.9409 1.80541 17.743 1.70397 17.5304C1.63778 17.392 1.57705 17.251 1.52481 17.107C1.48837 17.0068 1.45496 16.9048 1.42703 16.8016C1.41427 16.7548 1.40577 16.7063 1.39119 16.6594C1.34443 16.5118 1.31649 16.3601 1.28795 16.2082C1.2673 16.0996 1.25272 15.9896 1.23754 15.8796C1.22174 15.7667 1.21203 15.6525 1.19867 15.5389C1.19806 15.5316 1.19684 15.5237 1.19624 15.5164C1.19199 15.4733 1.19016 15.4296 1.18773 15.3859C1.18166 15.268 1.17134 15.1502 1.17194 15.0318C1.17194 14.9547 1.16405 14.8769 1.16466 14.7992C1.16587 14.637 1.16769 14.4749 1.17377 14.3127C1.17923 14.1712 1.18773 14.0297 1.19867 13.8882C1.20049 13.8645 1.20231 13.8408 1.20413 13.8171C1.22721 13.5596 1.25636 13.3027 1.29159 13.0464C1.32924 12.7767 1.3754 12.5083 1.42763 12.2417C1.44282 12.1633 1.45861 12.085 1.4744 12.0066C1.53513 11.7114 1.60741 11.4193 1.68575 11.1284C1.72584 10.9784 1.76774 10.8284 1.81147 10.6796C1.85703 10.5241 1.9044 10.3698 1.95481 10.2162C2.00947 10.0491 2.06656 9.88273 2.12304 9.71693C2.13336 9.68535 2.15219 9.6568 2.16192 9.62583C2.22144 9.43269 2.29553 9.24502 2.36962 9.05735C2.47895 8.78101 2.58948 8.50528 2.71399 8.23502C2.82878 7.986 2.93931 7.73457 3.06503 7.49042C3.11483 7.39323 3.16403 7.29545 3.21201 7.19767C3.22902 7.16305 3.2533 7.13268 3.26909 7.09746C3.32072 6.98752 3.37781 6.88063 3.43733 6.77497C3.46587 6.72456 3.48834 6.66991 3.52601 6.62496C3.58613 6.50956 3.6499 6.39599 3.71853 6.28546C3.75862 6.22168 3.79384 6.15427 3.83332 6.08989C3.94021 5.91618 4.04407 5.74128 4.15765 5.57123C4.28335 5.38234 4.40482 5.19102 4.53723 5.007C4.67146 4.82054 4.80568 4.63349 4.94719 4.45188C4.99335 4.39236 5.04557 4.33831 5.08992 4.27698C5.14518 4.19984 5.20349 4.12513 5.26544 4.05286C5.34864 3.95508 5.43063 3.85608 5.51505 3.76012C5.54602 3.7249 5.58126 3.69331 5.61284 3.65749C5.66749 3.59552 5.71851 3.53055 5.77561 3.47042C5.96145 3.27485 6.14912 3.08111 6.3477 2.8983C6.38779 2.86125 6.42424 2.81935 6.46795 2.78776C6.51351 2.75497 6.54388 2.70699 6.5955 2.68027C6.59855 2.67845 6.60219 2.67662 6.60461 2.67419C6.62404 2.65902 6.63559 2.63289 6.65684 2.61771C6.65867 2.6165 6.66049 2.61529 6.66171 2.61407C6.66292 2.60678 6.66535 2.60071 6.66899 2.59707C6.67263 2.59281 6.67688 2.59039 6.68296 2.58977C6.68661 2.58977 6.69146 2.58977 6.69633 2.59099C6.70299 2.58552 6.70968 2.57945 6.71636 2.57398C6.72547 2.56791 6.73276 2.56305 6.74066 2.55758C6.78075 2.52842 6.81657 2.49503 6.85362 2.46102C6.91071 2.40878 6.97387 2.36324 7.03461 2.31585C7.27937 2.12576 7.5375 1.9551 7.8035 1.79658C7.83387 1.77897 7.86545 1.76439 7.89643 1.748C7.98935 1.69819 8.08045 1.64535 8.17459 1.5992C8.41935 1.47834 8.67383 1.38177 8.93742 1.31071C9.07347 1.27427 9.21072 1.24572 9.35041 1.22629C9.51986 1.20321 9.69113 1.19349 9.8618 1.20382C10.0483 1.21536 10.2323 1.24451 10.4102 1.30281C10.4193 1.30585 10.4272 1.30646 10.4351 1.3016C10.4199 1.2852 10.3969 1.2852 10.378 1.2767H10.3798Z" fill="#71717A"/>
<path d="M6.67613 2.52939C6.67613 2.52939 6.67309 2.52697 6.67188 2.52637C6.6737 2.52758 6.67492 2.52818 6.67613 2.52939Z" fill="#71717A"/>
<path d="M8.83743 0.751167H8.61454C8.58539 0.752381 8.55623 0.752381 8.52769 0.752381C8.52648 0.748737 8.52465 0.745093 8.52344 0.741449C8.62912 0.741449 8.73539 0.741449 8.84107 0.740234C8.83986 0.743878 8.83864 0.747522 8.83743 0.751167Z" fill="#FEC35E"/>
<path d="M5.65808 2.14427H5.65625V2.14062H5.6605V2.14488C5.6605 2.14488 5.65929 2.14488 5.65868 2.14488L5.65808 2.14427Z" fill="#D4D4D8"/>
<path opacity="0.48" d="M18.5412 15.8989C18.5715 15.8752 18.5715 15.8727 18.5412 15.849C18.4707 15.7925 18.3955 15.7434 18.3183 15.6966C18.0608 15.5405 17.7857 15.4215 17.5038 15.3183C17.4395 15.2946 17.3769 15.266 17.3083 15.2539C17.2894 15.2326 17.2615 15.2308 17.2372 15.2229C16.9742 15.1354 16.7065 15.0638 16.438 14.9951C16.4155 14.9933 16.3937 14.9885 16.3742 14.9775C16.2485 14.9502 16.1228 14.9223 15.9977 14.8949C15.765 14.8445 15.5312 14.8008 15.2967 14.7613C15.1231 14.7322 14.9487 14.7048 14.7744 14.6787C14.6384 14.6587 14.5023 14.638 14.3651 14.6283C14.3426 14.6247 14.3201 14.6204 14.2971 14.6174C13.8167 14.5585 13.3356 14.5141 12.8528 14.4807C12.5376 14.4595 12.2224 14.4425 11.9066 14.4303C11.4942 14.4145 11.0812 14.4072 10.6682 14.4072C10.1562 14.4072 9.64481 14.42 9.13404 14.4449C8.54371 14.4734 7.95458 14.5184 7.36729 14.584C7.27133 14.5949 7.17415 14.601 7.07941 14.6216C7.05998 14.6162 7.04114 14.6216 7.02171 14.6235C6.60324 14.6751 6.18661 14.7388 5.77241 14.8172C5.52766 14.8633 5.28411 14.9144 5.04239 14.9721L5.03753 14.98C5.03753 14.98 4.97497 15.88 5.11344 16.7588C5.35214 16.8153 5.59204 16.8658 5.83255 16.9107C6.04754 16.9507 6.26314 16.9891 6.47996 17.0201C6.78363 17.0637 7.0879 17.108 7.3934 17.1396C7.69039 17.1707 7.98678 17.2029 8.28437 17.2247C8.4605 17.2375 8.63602 17.2526 8.81216 17.2629C9.07271 17.2781 9.33386 17.291 9.59442 17.2999C9.83249 17.3085 10.0706 17.3152 10.3086 17.3182C10.6894 17.323 11.0709 17.3212 11.4517 17.3134C11.8185 17.3055 12.1853 17.2916 12.5516 17.2709C12.9882 17.2466 13.4243 17.212 13.8598 17.1671C14.5236 17.0983 15.1838 17.006 15.8378 16.8755C16.4094 16.7614 16.9742 16.6216 17.522 16.4199C17.7607 16.3325 17.9946 16.2322 18.2169 16.1083C18.3298 16.0459 18.4392 15.9778 18.5412 15.8983V15.8989Z" fill="url(#paint0_linear_2242_4025)"/>
</g>
<path d="M27.4017 7.78906L30.2955 15.1814L33.1712 7.78906H34.9508L31.0603 17.5843H29.4193L25.5078 7.78906H27.4017Z" fill="white"/>
<path d="M38.689 15.6906C39.237 16.043 39.9025 16.2568 40.604 16.2568C42.5793 16.2568 44.124 14.6729 44.124 12.6795H45.8043C45.8043 15.5341 43.4978 17.7834 40.5649 17.7834C37.6712 17.7834 35.4219 15.5552 35.4219 12.7398C35.4219 9.86409 37.7284 7.59668 40.6613 7.59668C42.1097 7.59668 43.7507 8.14471 44.8258 9.57201L38.689 15.6906ZM37.6321 14.5946L42.5191 9.68643C41.9531 9.31605 41.3056 9.12033 40.604 9.12033C38.6499 9.12033 37.1052 10.7042 37.1052 12.6795C37.1052 13.3841 37.3008 14.0466 37.6321 14.5946Z" fill="white"/>
<path d="M47.6797 3.31152H49.5164V17.5874H47.6797V3.31152Z" fill="white"/>
<path d="M51.5938 12.6795C51.5938 9.7858 53.8221 7.59668 56.7761 7.59668C59.7481 7.59668 61.9762 9.7858 61.9762 12.6795C61.9762 15.5943 59.7481 17.7834 56.7761 17.7834C53.8221 17.7834 51.5938 15.5913 51.5938 12.6795ZM56.7761 16.1393C58.7302 16.1393 60.1967 14.6518 60.1967 12.6795C60.1967 10.7253 58.7302 9.21971 56.7761 9.21971C54.8399 9.21971 53.3734 10.7253 53.3734 12.6795C53.3734 14.6548 54.8399 16.1393 56.7761 16.1393Z" fill="white"/>
<path d="M68.7005 17.5873C65.5327 17.5873 63.4219 15.6331 63.4219 12.6791C63.4219 9.74629 65.5327 7.79204 68.7005 7.79204H70.3416V3.31445H72.1784V17.5903H68.7005V17.5873ZM68.7005 15.9432H70.3416V9.41204H68.7005C66.6288 9.41204 65.2587 10.7219 65.2587 12.6761C65.2587 14.6545 66.6258 15.9432 68.7005 15.9432Z" fill="white"/>
<path d="M74.8828 7.78948H76.7197V10.626L79.7519 7.59375L80.9051 8.74702L76.7197 12.9114V17.5847H74.8828V7.78948Z" fill="white"/>
<path d="M81.0234 12.6795C81.0234 9.7858 83.2516 7.59668 86.2056 7.59668C89.1776 7.59668 91.4059 9.7858 91.4059 12.6795C91.4059 15.5943 89.1776 17.7834 86.2056 17.7834C83.2516 17.7834 81.0234 15.5913 81.0234 12.6795ZM86.2056 16.1393C88.1599 16.1393 89.6263 14.6518 89.6263 12.6795C89.6263 10.7253 88.1599 9.21971 86.2056 9.21971C84.2694 9.21971 82.8031 10.7253 82.8031 12.6795C82.8031 14.6548 84.2694 16.1393 86.2056 16.1393Z" fill="white"/>
<path d="M93.4766 7.78948H95.2742V8.96383C96.8581 7.77141 97.5416 7.59375 98.442 7.59375C99.6163 7.59375 100.631 8.19899 101.122 9.17762C102.92 7.78948 103.645 7.59375 104.582 7.59375C106.262 7.59375 107.593 8.80725 107.593 10.644V17.5847H105.756V10.8398C105.756 9.93944 105.112 9.27397 104.29 9.27397C103.663 9.27397 103.194 9.40948 101.453 10.8579V17.5847H99.6163V10.8398C99.6163 9.93944 98.9718 9.27397 98.1498 9.27397C97.5236 9.27397 97.0538 9.40948 95.3134 10.8579V17.5847H93.4766V7.78948Z" fill="white"/>
<path d="M112.83 15.6906C113.378 16.043 114.043 16.2568 114.745 16.2568C116.72 16.2568 118.265 14.6729 118.265 12.6795H119.945C119.945 15.5341 117.638 17.7834 114.706 17.7834C111.812 17.7834 109.562 15.5552 109.562 12.7398C109.562 9.86409 111.869 7.59668 114.802 7.59668C116.25 7.59668 117.891 8.14471 118.966 9.57201L112.83 15.6906ZM111.776 14.5946L116.663 9.68643C116.097 9.31605 115.449 9.12033 114.748 9.12033C112.793 9.12033 111.249 10.7042 111.249 12.6795C111.246 13.3841 111.441 14.0466 111.776 14.5946Z" fill="white"/>
</g>
<defs>
<linearGradient id="paint0_linear_2242_4025" x1="11.8235" y1="14.7418" x2="11.7392" y2="16.9205" gradientUnits="userSpaceOnUse">
<stop offset="0.16" stop-color="#191919"/>
<stop offset="0.97" stop-color="#191919" stop-opacity="0"/>
</linearGradient>
<clipPath id="clip0_2242_4025">
<rect width="120" height="19.7753" fill="white" transform="translate(0 0.612305)"/>
</clipPath>
</defs>
</svg>
