<svg opacity="0.5" width="120" height="25" viewBox="0 0 120 25" fill="none" xmlns="http://www.w3.org/2000/svg">
<path fill-rule="evenodd" clip-rule="evenodd" d="M41.3977 12.5016L29.6532 0.769531V9.36162L17.9922 17.9641L29.6532 17.9722V24.2336L41.3977 12.5016Z" fill="#71717A"/>
<path fill-rule="evenodd" clip-rule="evenodd" d="M0 12.4977L11.7444 24.2297V15.7286L23.3201 7.12036L11.7444 7.11242V0.765625L0 12.4977Z" fill="#D4D4D8"/>
<path d="M59.4797 19.4107H50.4688V16.823L55.6273 11.0727H50.6016V8.5293H59.3912V10.9843L54.0775 16.8451H59.4797V19.4107Z" fill="white"/>
<path d="M71.7795 8.52953L67.418 13.1077L71.8681 19.4109H68.2593L65.3811 15.253L64.1634 16.5358V19.4109H61.2188V3.39844H64.1634V12.5769L67.9272 8.52953H71.7795Z" fill="white"/>
<path d="M84.5883 7.46789L81.8429 8.30839C81.7397 7.74806 81.459 7.23942 81.0018 6.78231C80.5445 6.3252 79.8722 6.09673 78.9867 6.09673C78.2641 6.09673 77.6737 6.29577 77.2155 6.69384C76.7583 7.07724 76.5296 7.54168 76.5296 8.08718C76.5296 9.04559 77.0978 9.63536 78.2342 9.85649L80.4259 10.2767C81.8131 10.5422 82.8906 11.0951 83.6584 11.9355C84.4262 12.7759 84.8102 13.7638 84.8102 14.8991C84.8102 16.1966 84.2931 17.3319 83.26 18.3051C82.2414 19.2635 80.8687 19.7426 79.1419 19.7426C78.1531 19.7426 77.2599 19.5952 76.4631 19.3003C75.6659 19.0054 75.0238 18.6147 74.5368 18.1281C74.0497 17.6268 73.6659 17.1034 73.3855 16.5579C73.1198 15.9975 72.9575 15.4225 72.8984 14.8327L75.7324 14.0808C75.8062 14.9212 76.1312 15.6215 76.7062 16.1819C77.2966 16.7421 78.1165 17.0223 79.1641 17.0223C79.9609 17.0223 80.5812 16.8454 81.0239 16.4915C81.4812 16.1376 81.7099 15.6732 81.7099 15.0981C81.7099 14.641 81.5401 14.2504 81.2005 13.9259C80.8763 13.5868 80.4114 13.3584 79.8065 13.2404L77.614 12.798C76.3445 12.5326 75.3412 12.0092 74.6032 11.2277C73.8652 10.4463 73.4962 9.47318 73.4962 8.30839C73.4962 6.92239 74.0276 5.75761 75.0903 4.81396C76.1679 3.87031 77.4595 3.39844 78.9645 3.39844C79.8654 3.39844 80.6699 3.52376 81.378 3.77441C82.0861 4.02506 82.6551 4.36419 83.0826 4.79178C83.5108 5.20469 83.8427 5.63228 84.079 6.07455C84.3153 6.5169 84.4851 6.98134 84.5883 7.46789Z" fill="white"/>
<path d="M89.767 23.7013H86.6454L89.2133 18.0394L84.5859 8.5293H87.885L90.7857 14.8989L93.4645 8.5293H96.6083L89.767 23.7013Z" fill="white"/>
<path d="M100.672 13.1521V19.4111H97.7266V8.52969H100.583V9.87884C100.893 9.34802 101.335 8.94253 101.911 8.66236C102.487 8.38227 103.092 8.24219 103.727 8.24219C105.011 8.24219 105.985 8.64768 106.649 9.45859C107.329 10.2548 107.668 11.2869 107.668 12.555V19.4111H104.723V13.0636C104.723 12.4149 104.553 11.8914 104.214 11.4933C103.889 11.0952 103.387 10.8962 102.708 10.8962C102.089 10.8962 101.594 11.11 101.225 11.5376C100.856 11.9651 100.672 12.5033 100.672 13.1521Z" fill="white"/>
<path d="M114.884 10.9177C114.101 10.9177 113.444 11.1904 112.914 11.736C112.382 12.2815 112.116 13.0261 112.116 13.9697C112.116 14.9134 112.382 15.6653 112.914 16.2256C113.46 16.7712 114.123 17.0439 114.906 17.0439C115.599 17.0439 116.153 16.867 116.567 16.5131C116.98 16.1445 117.26 15.7095 117.408 15.2082L119.998 16.0708C119.733 17.0734 119.157 17.936 118.271 18.6585C117.386 19.3809 116.264 19.7421 114.906 19.7421C113.282 19.7421 111.917 19.1966 110.81 18.1056C109.718 16.9997 109.172 15.6211 109.172 13.9697C109.172 12.3036 109.71 10.925 110.788 9.83392C111.881 8.74285 113.223 8.19727 114.817 8.19727C116.205 8.19727 117.341 8.55857 118.227 9.281C119.113 9.98876 119.681 10.8513 119.932 11.8686L117.297 12.7533C116.943 11.5295 116.139 10.9177 114.884 10.9177Z" fill="white"/>
</svg>
