<?xml version="1.0" encoding="UTF-8" standalone="no"?><svg xmlns="http://www.w3.org/2000/svg" xmlns:xlink="http://www.w3.org/1999/xlink" fill="#ffffff" height="383.8" preserveAspectRatio="xMidYMid meet" version="1" viewBox="25.2 58.1 449.7 383.8" width="449.7" zoomAndPan="magnify"><g id="change1_1"><path clip-rule="evenodd" d="M211.79,226.265c-2.744-2.646-2.744-6.95-0.114-9.637c2.629-2.692,6.973-2.727,9.66-0.091l19.319,19.017 l37.953-37.896c2.686-2.658,7.031-2.652,9.66,0.011c2.686,2.658,2.686,6.973,0,9.637l-42.755,42.657 c-2.627,2.636-6.885,2.665-9.546,0.035L211.79,226.265L211.79,226.265z M259.517,398.186c0,3.772-3.086,6.819-6.859,6.819h-84.08 c-3.772,0-6.802-3.046-6.802-6.819c0-3.756,3.03-6.808,6.802-6.808h84.08C256.43,391.379,259.517,394.431,259.517,398.186 L259.517,398.186z M265.861,361.319c0,3.761-3.029,6.813-6.802,6.813h-90.482c-3.772,0-6.802-3.052-6.802-6.813 c0-3.773,3.03-6.814,6.802-6.814h90.482C262.832,354.506,265.861,357.547,265.861,361.319L265.861,361.319z M161.776,324.44 c0-3.761,3.03-6.813,6.802-6.813h140.496c3.772,0,6.802,3.052,6.802,6.813c0,3.761-3.03,6.807-6.802,6.807H168.578 C164.805,331.248,161.776,328.201,161.776,324.44L161.776,324.44z M308.845,397.918c-8.631,0-15.719-7.048-15.719-15.724 c0-8.665,7.088-15.713,15.719-15.713c8.688,0,15.719,7.048,15.719,15.713C324.563,390.87,317.533,397.918,308.845,397.918 L308.845,397.918z M308.845,352.854c-16.176,0-29.323,13.164-29.323,29.34c0,16.187,13.146,29.351,29.323,29.351 c16.176,0,29.379-13.164,29.379-29.351C338.224,366.018,325.021,352.854,308.845,352.854L308.845,352.854z M445.454,257.085 c-8.631,0-15.719-7.048-15.719-15.719c0-8.665,7.087-15.713,15.719-15.713c8.688,0,15.719,7.048,15.719,15.713 C461.172,250.037,454.142,257.085,445.454,257.085L445.454,257.085z M377.321,410.39v-162.21h-60.988 c-10.117,27.499-36.696,46.293-66.361,46.293c-31.38,0-59.33-21.074-67.904-51.231c-1.086-3.624,1.029-7.396,4.63-8.419 c3.658-1.035,7.431,1.058,8.46,4.675c6.916,24.344,29.494,41.349,54.815,41.349c25.379,0,47.899-17.005,54.872-41.349 c0.942-2.889,3.373-4.938,6.516-4.938h65.961v-71.631H317.59c-17.376,0-31.494-14.124-31.494-31.483V71.743H140.57 c-9.888,0-17.891,8.008-17.891,17.862V199.44h60.988c10.117-27.499,36.696-46.293,66.304-46.293 c31.437,0,59.388,21.063,67.962,51.231c1.029,3.624-1.029,7.396-4.687,8.419c-3.606,1.029-7.369-1.069-8.402-4.675 c-6.973-24.344-29.494-41.348-54.872-41.348c-25.321,0-47.899,17.004-54.815,41.348c0,0.017,0,0.034-0.057,0.052l-0.857,1.863 c-1.116,1.794-3.423,3.03-5.602,3.03c-21.987,0-43.974,0-65.961,0V410.39c0,9.854,8.002,17.868,17.891,17.868h218.86 C369.262,428.258,377.321,420.244,377.321,410.39L377.321,410.39z M299.699,81.374l67.962,67.933H317.59 c-9.831,0-17.891-8.014-17.891-17.862V81.374L299.699,81.374z M54.489,221.966c-8.631,0-15.719-7.048-15.719-15.719 c0-8.665,7.088-15.713,15.719-15.713c8.688,0,15.719,7.048,15.719,15.713C70.208,214.919,63.177,221.966,54.489,221.966 L54.489,221.966z M445.454,212.027c-13.832,0-25.436,9.62-28.522,22.532h-26.007V156.12c0-1.812-0.743-3.538-2.001-4.818 l-91.168-91.191c-1.315-1.28-3.029-1.995-4.859-1.995H140.57c-17.376,0-31.494,14.124-31.494,31.489V199.44H83.069 c-3.087-12.912-14.747-22.526-28.579-22.526c-16.176,0-29.322,13.158-29.322,29.334c0,16.181,13.146,29.345,29.322,29.345 c13.832,0,25.493-9.62,28.579-22.526h26.007V410.39c0,17.365,14.118,31.494,31.494,31.494h218.86 c17.376,0,31.494-14.13,31.494-31.494v-162.21h26.007c3.086,12.901,14.69,22.532,28.522,22.532 c16.176,0,29.379-13.163,29.379-29.345C474.833,225.19,461.63,212.027,445.454,212.027z" fill-rule="evenodd"/></g></svg>