<?xml version="1.0" encoding="UTF-8" standalone="no"?><svg xmlns="http://www.w3.org/2000/svg" xmlns:xlink="http://www.w3.org/1999/xlink" fill="#000000" height="30.7" preserveAspectRatio="xMidYMid meet" version="1" viewBox="0.0 -0.0 44.0 30.7" width="44" zoomAndPan="magnify"><defs><clipPath id="a"><path d="M 0 6 L 44 6 L 44 30.679688 L 0 30.679688 Z M 0 6"/></clipPath></defs><g><g clip-path="url(#a)" id="change1_5"><path d="M 29.285156 9.335938 C 30.246094 9.644531 31.191406 10.015625 32.105469 10.441406 C 36.140625 12.324219 39.707031 15.082031 42.550781 18.511719 C 42.671875 18.65625 42.671875 18.863281 42.550781 19.007812 C 39.707031 22.4375 36.140625 25.191406 32.105469 27.078125 C 31.191406 27.503906 30.246094 27.875 29.285156 28.183594 C 34.492188 24.160156 35.445312 16.675781 31.421875 11.472656 C 30.804688 10.671875 30.085938 9.953125 29.285156 9.335938 Z M 14.710938 9.335938 C 9.503906 13.363281 8.550781 20.84375 12.574219 26.046875 C 13.191406 26.847656 13.910156 27.566406 14.710938 28.183594 C 13.746094 27.875 12.800781 27.503906 11.886719 27.078125 C 7.851562 25.191406 4.289062 22.4375 1.445312 19.007812 C 1.324219 18.863281 1.324219 18.65625 1.445312 18.511719 C 4.289062 15.082031 7.851562 12.328125 11.886719 10.441406 C 12.800781 10.015625 13.746094 9.644531 14.710938 9.339844 Z M 21.820312 8.074219 C 27.652344 7.976562 32.449219 12.625 32.550781 18.453125 C 32.550781 18.554688 32.550781 18.660156 32.550781 18.761719 C 32.625 24.589844 27.964844 29.378906 22.136719 29.457031 C 16.304688 29.53125 11.515625 24.867188 11.441406 19.039062 C 11.441406 18.945312 11.441406 18.851562 11.441406 18.761719 C 11.367188 12.945312 16.007812 8.167969 21.820312 8.074219 Z M 22.933594 6.855469 C 18.929688 6.707031 14.945312 7.515625 11.316406 9.210938 C 7.101562 11.183594 3.371094 14.0625 0.402344 17.644531 C -0.132812 18.292969 -0.132812 19.230469 0.402344 19.875 C 3.371094 23.457031 7.101562 26.335938 11.316406 28.308594 C 18.085938 31.472656 25.914062 31.472656 32.6875 28.308594 C 36.898438 26.335938 40.628906 23.457031 43.597656 19.875 C 44.132812 19.230469 44.132812 18.292969 43.597656 17.644531 C 40.628906 14.0625 36.898438 11.183594 32.6875 9.210938 C 29.625 7.78125 26.308594 6.980469 22.933594 6.855469" fill="#ffffff"/></g><g id="change1_1"><path d="M 26 18.761719 C 26.042969 16.550781 24.292969 14.722656 22.082031 14.675781 C 19.871094 14.628906 18.042969 16.382812 17.996094 18.59375 C 17.996094 18.648438 17.996094 18.703125 17.996094 18.761719 C 17.949219 20.96875 19.703125 22.800781 21.914062 22.84375 C 24.125 22.890625 25.953125 21.136719 26 18.925781 C 26 18.871094 26 18.816406 26 18.761719" fill="#ffffff"/></g><g id="change1_2"><path d="M 7.863281 4.886719 L 10.570312 7.144531 C 10.863281 7.378906 11.289062 7.332031 11.523438 7.039062 C 11.75 6.757812 11.714844 6.34375 11.4375 6.101562 L 8.730469 3.84375 C 8.4375 3.609375 8.011719 3.65625 7.777344 3.949219 C 7.546875 4.234375 7.585938 4.648438 7.863281 4.886719" fill="#ffffff"/></g><g id="change1_3"><path d="M 35.261719 3.84375 L 32.550781 6.101562 C 32.265625 6.34375 32.226562 6.773438 32.464844 7.058594 C 32.710938 7.347656 33.136719 7.386719 33.425781 7.144531 L 36.132812 4.886719 C 36.414062 4.640625 36.449219 4.210938 36.199219 3.929688 C 35.960938 3.652344 35.550781 3.617188 35.261719 3.84375" fill="#ffffff"/></g><g id="change1_4"><path d="M 21.320312 0.652344 L 21.320312 4.175781 C 21.332031 4.550781 21.648438 4.84375 22.023438 4.828125 C 22.378906 4.8125 22.660156 4.53125 22.675781 4.175781 L 22.675781 0.652344 C 22.660156 0.277344 22.347656 -0.015625 21.96875 0 C 21.617188 0.015625 21.332031 0.296875 21.320312 0.652344" fill="#ffffff"/></g></g></svg>