<?xml version="1.0" encoding="UTF-8" standalone="no"?><svg xmlns="http://www.w3.org/2000/svg" xmlns:xlink="http://www.w3.org/1999/xlink" fill="#ffffff" height="47.5" preserveAspectRatio="xMidYMid meet" version="1" viewBox="2.0 1.4 45.7 47.5" width="45.7" zoomAndPan="magnify"><g><g id="change1_1"><path d="M9.3,7.8c1.8,0,2.5-1.4,2.5-3.2c0-1.8-0.7-3.2-2.5-3.2c-1.8,0-2.5,1.4-2.5,3.2C6.7,6.4,7.5,7.8,9.3,7.8z M9.3,2.3 c1.2,0,1.5,1.2,1.5,2.3c0,1.2-0.3,2.3-1.5,2.3c-1.2,0-1.5-1.2-1.5-2.3S8.1,2.3,9.3,2.3z"/><path d="M15.1 7.8L16.1 7.8 16.1 1.5 13.9 1.5 13.9 2.5 15.1 2.5z"/><path d="M20.1,7.8c1.8,0,2.5-1.4,2.5-3.2c0-1.8-0.7-3.2-2.5-3.2s-2.5,1.4-2.5,3.2C17.5,6.4,18.3,7.8,20.1,7.8z M20.1,2.3 c1.2,0,1.5,1.2,1.5,2.3c0,1.2-0.3,2.3-1.5,2.3s-1.5-1.2-1.5-2.3S18.9,2.3,20.1,2.3z"/><path d="M24.6 7.8L24.7 7.8 25.6 7.8 25.6 7.7 25.6 1.5 23.4 1.5 23.4 2.5 24.6 2.5z"/><path d="M29.6,7.8c0.8,0,1.5-0.3,1.9-0.9c0.4-0.6,0.6-1.4,0.6-2.3c0-1.8-0.7-3.2-2.5-3.2c-1.8,0-2.5,1.4-2.5,3.2 C27,6.4,27.8,7.8,29.6,7.8z M29.6,2.3c1.2,0,1.5,1.1,1.5,2.3c0,1.2-0.3,2.3-1.5,2.3c-1.2,0-1.5-1.2-1.5-2.3 C28.1,3.4,28.4,2.3,29.6,2.3z"/><path d="M35.7,7.8c1.8,0,2.5-1.4,2.5-3.2c0-1.8-0.7-3.2-2.5-3.2c-1.8,0-2.5,1.4-2.5,3.2C33.2,6.4,33.9,7.8,35.7,7.8z M35.7,2.3 c1.2,0,1.5,1.2,1.5,2.3c0,1.2-0.3,2.3-1.5,2.3c-1.2,0-1.5-1.2-1.5-2.3S34.5,2.3,35.7,2.3z"/><path d="M40.3 7.8L41.3 7.8 41.3 1.5 39 1.5 39 2.5 40.3 2.5z"/><path d="M45.2,7.8c1.8,0,2.5-1.4,2.5-3.2c0-1.8-0.7-3.2-2.5-3.2c-1.8,0-2.5,1.4-2.5,3.2C42.7,6.4,43.4,7.8,45.2,7.8z M45.2,2.3 c1.2,0,1.5,1.2,1.5,2.3c0,1.2-0.3,2.3-1.5,2.3c-1.2,0-1.5-1.2-1.5-2.3S44,2.3,45.2,2.3z"/><path d="M10.4 18.4L10.4 12.2 8.1 12.2 8.1 13.2 9.4 13.2 9.4 18.4z"/><path d="M13.6,14.1c0.1-0.5,0.4-0.9,0.9-1.1c0,0,0,0,0,0c0.2-0.2,0.4-0.4,0.6-0.6c0.1-0.1,0.2-0.2,0.4-0.3c-0.1,0-0.3,0-0.5,0 c-1.8,0-2.5,1.4-2.5,3.2c0,0.2,0,0.4,0,0.6C12.8,15.3,13.2,14.7,13.6,14.1z"/><path d="M20.2,18.4h1v-3.1c-0.3,0.2-0.7,0.5-1,0.7V18.4z"/><path d="M26.8,13.8L26.8,13.8c-0.4,0-0.8,0-1.1,0c0.2,0.4,0.3,1,0.3,1.5c0,1.2-0.3,2.3-1.5,2.3c-1.2,0-1.5-1.2-1.5-2.3 c0-0.3,0-0.6,0.1-0.8c-0.4,0.1-0.7,0.3-1.1,0.5c0,0.1,0,0.2,0,0.4c0,1.8,0.7,3.2,2.5,3.2c1.8,0,2.5-1.4,2.5-3.2 C27.1,14.7,27,14.2,26.8,13.8z"/><path d="M30.7,14.5c-0.3-0.1-0.7-0.2-1-0.3v4.3h1V14.5z"/><path d="M33.2,16c0.2,1.4,0.9,2.4,2.3,2.5c-0.4-0.6-0.8-1.2-1.4-1.7C33.8,16.5,33.5,16.2,33.2,16z"/><path d="M40.3,13.2v1.5c0.4,0.5,0.7,1.1,1,1.6v-4.1H39v0.9v0.1h0.1H40.3z"/><path d="M45.2,12.1c-1.8,0-2.5,1.4-2.5,3.2c0,1.8,0.7,3.2,2.5,3.2c1.8,0,2.5-1.4,2.5-3.2C47.7,13.5,47,12.1,45.2,12.1z M45.2,17.6 c-1.2,0-1.5-1.2-1.5-2.3S44,13,45.2,13c1.2,0,1.5,1.2,1.5,2.3S46.4,17.6,45.2,17.6z"/><path d="M9.3,29.2c0.7,0,1.2-0.2,1.6-0.6c-0.1-0.4-0.2-0.9-0.3-1.3c-0.2,0.6-0.6,1-1.3,1c-1.2,0-1.5-1.2-1.5-2.3s0.3-2.3,1.5-2.3 c0.4,0,0.8,0.2,1,0.4c0-0.4,0-0.8,0-1.1c-0.3-0.1-0.6-0.2-1-0.2c-1.8,0-2.5,1.4-2.5,3.2S7.5,29.2,9.3,29.2z"/><path d="M29.6,22.7c-1.8,0-2.5,1.4-2.5,3.2s0.7,3.2,2.5,3.2c1.8,0,2.5-1.4,2.5-3.2C32.1,24.2,31.4,22.7,29.6,22.7z M29.6,28.3 c-1.2,0-1.5-1.2-1.5-2.3s0.3-2.3,1.5-2.3c1.2,0,1.5,1.2,1.5,2.3S30.8,28.3,29.6,28.3z"/><path d="M34.6,23.8h1.3v5.3c0.5-0.8,0.8-1.7,1-2.6v-3.6h-2.3V23.8z"/><path d="M45.2,22.7c-0.9,0-1.6,0.4-2,1c0,0.6,0,2.2-0.3,3.8c0.3,1,1.1,1.7,2.3,1.7c1.8,0,2.5-1.4,2.5-3.2 C47.7,24.2,47,22.7,45.2,22.7z M45.2,28.3c-1.2,0-1.5-1.2-1.5-2.3s0.3-2.3,1.5-2.3c1.2,0,1.5,1.2,1.5,2.3S46.4,28.3,45.2,28.3z"/><path d="M15.8,13.2c-6,6-6,15.9,0,21.9c6,6,15.9,6,21.9,0c6-6,6-15.9,0-21.9C31.7,7.1,21.9,7.1,15.8,13.2z M34.8,32.1 c-4.4,4.4-11.6,4.4-16.1,0c-4.4-4.4-4.4-11.6,0-16.1c4.4-4.4,11.6-4.4,16.1,0S39.2,27.7,34.8,32.1z"/><path d="M15.1,35.8c-0.5-0.5-1-1.1-1.5-1.7l-1.1,1.1l-0.3-0.3c-0.3-0.3-0.7-0.3-0.9,0c-0.3,0.3-0.3,0.7,0,1l0.3,0.3l-0.6,0.6 l-0.3-0.3c-0.3-0.3-0.7-0.3-1,0c-0.3,0.3-0.3,0.7,0,0.9l0.3,0.3l-7,7C2,45.6,2,47.1,2.9,48c0.9,0.9,2.3,0.9,3.2,0l7-7l0.3,0.3 c0.3,0.3,0.7,0.3,1,0c0.3-0.3,0.3-0.7,0-1L14.1,40l0.6-0.6l0.3,0.3c0.3,0.3,0.7,0.3,1,0c0.3-0.3,0.3-0.7,0-1l-0.3-0.3l1.1-1.1 C16.2,36.8,15.6,36.3,15.1,35.8z"/></g></g></svg>