<?xml version="1.0" encoding="UTF-8" standalone="no"?><svg xmlns="http://www.w3.org/2000/svg" xmlns:xlink="http://www.w3.org/1999/xlink" fill="#ffffff" height="128" preserveAspectRatio="xMidYMid meet" version="1" viewBox="0.0 0.0 128.9 128.0" width="128.9" zoomAndPan="magnify"><g id="change1_1"><path d="M70,105H36c-1.1,0-2,0.9-2,2s0.9,2,2,2h35.1C70.4,107.8,70,106.4,70,105z" fill="inherit"/></g><g id="change1_2"><path d="M25.2,23.2c-0.9-0.7-2.1-0.5-2.8,0.4l-4.9,6.5l-2.2-2c-0.8-0.7-2.1-0.7-2.8,0.1c-0.7,0.8-0.7,2.1,0.1,2.8l3.8,3.5 c0.4,0.3,0.9,0.5,1.4,0.5c0.1,0,0.1,0,0.2,0c0.6-0.1,1.1-0.3,1.4-0.8l6.2-8.3C26.3,25.2,26.1,23.9,25.2,23.2z" fill="inherit"/></g><g id="change1_3"><path d="M84,19H36c-1.1,0-2,0.9-2,2s0.9,2,2,2h48c1.1,0,2-0.9,2-2S85.1,19,84,19z" fill="inherit"/></g><g id="change1_4"><path d="M84,27H36c-1.1,0-2,0.9-2,2s0.9,2,2,2h48c1.1,0,2-0.9,2-2S85.1,27,84,27z" fill="inherit"/></g><g id="change1_5"><path d="M84,35H36c-1.1,0-2,0.9-2,2s0.9,2,2,2h48c1.1,0,2-0.9,2-2S85.1,35,84,35z" fill="inherit"/></g><g id="change1_6"><path d="M86,56c0-1.1-0.9-2-2-2H36c-1.1,0-2,0.9-2,2s0.9,2,2,2h48C85.1,58,86,57.1,86,56z" fill="inherit"/></g><g id="change1_7"><path d="M25.2,58.2c-0.9-0.7-2.1-0.5-2.8,0.4l-4.9,6.5l-2.2-2c-0.8-0.7-2.1-0.7-2.8,0.1c-0.7,0.8-0.7,2.1,0.1,2.8l3.8,3.5 c0.4,0.3,0.9,0.5,1.4,0.5c0.1,0,0.1,0,0.2,0c0.6-0.1,1.1-0.3,1.4-0.8l6.2-8.3C26.3,60.2,26.1,58.9,25.2,58.2z" fill="inherit"/></g><g id="change1_8"><path d="M24.4,93.6c-0.8-0.8-2-0.8-2.8,0L19,96.2l-2.6-2.6c-0.8-0.8-2-0.8-2.8,0c-0.8,0.8-0.8,2,0,2.8l2.6,2.6l-2.6,2.6 c-0.8,0.8-0.8,2,0,2.8c0.4,0.4,0.9,0.6,1.4,0.6s1-0.2,1.4-0.6l2.6-2.6l2.6,2.6c0.4,0.4,0.9,0.6,1.4,0.6s1-0.2,1.4-0.6 c0.8-0.8,0.8-2,0-2.8L21.8,99l2.6-2.6C25.2,95.6,25.2,94.4,24.4,93.6z" fill="inherit"/></g><g id="change1_9"><path d="M34,99c0,1.1,0.9,2,2,2h34.3l0.3-4H36C34.9,97,34,97.9,34,99z" fill="inherit"/></g><g id="change1_10"><path d="M71.2,89H36c-1.1,0-2,0.9-2,2s0.9,2,2,2h34.9L71.2,89z" fill="inherit"/></g><g id="change1_11"><path d="M79.5,70H36c-1.1,0-2,0.9-2,2s0.9,2,2,2h41.4L79.5,70z" fill="inherit"/></g><g id="change1_12"><path d="M83.8,62H36c-1.1,0-2,0.9-2,2s0.9,2,2,2h45.7L83.8,62z" fill="inherit"/></g><g id="change1_13"><path d="M94,102.6V120c0,2.2-1.8,4-4,4H8c-2.2,0-4-1.8-4-4V8c0-2.2,1.8-4,4-4h82c2.2,0,4,1.8,4,4v35l4-7.5V8c0-4.4-3.6-8-8-8H8 C3.6,0,0,3.6,0,8v112c0,4.4,3.6,8,8,8h82c4.4,0,8-3.6,8-8V99.4c-0.2,0.2-0.4,0.4-0.6,0.6L94,102.6z" fill="inherit"/></g><g id="change1_14"><path d="M124.8,28.5c0,0-9-4.8-9-4.8c-3-1.6-6.7-0.4-8.2,2.5L75.7,85.7c-0.1,0.2-0.2,0.5-0.2,0.8L74,104.8c0,0,0,0.1,0,0.1 c-0.1,2.3,1.8,4.1,4,4.1c0.9,0,1.8-0.3,2.5-0.8c0,0,14.4-11.4,14.4-11.4c0.2-0.2,0.4-0.4,0.5-0.6l31.9-59.5 C128.9,33.8,127.7,30,124.8,28.5z M78,105l1.2-16.1l11.8,5.9L78,105z M93.4,91.5L80.6,85l22.2-41.4l12.9,6.4L93.4,91.5z M123.8,34.8 l-6.3,11.7l-12.9-6.4l6.4-12c0.5-1,1.8-1.4,2.8-0.9l9,4.8c0.5,0.3,0.8,0.7,1,1.2C124.1,33.8,124,34.3,123.8,34.8z" fill="inherit"/></g></svg>