<svg class="w-6" width="100%" height="100%" viewBox="0 0 24 25" fill="none" xmlns="http://www.w3.org/2000/svg"><path d="M12 2.97949C17.5242 2.97949 22 7.4553 22 12.9795C22 18.5037 17.5242 22.9795 12 22.9795C6.47581 22.9795 2 18.5037 2 12.9795C2 7.4553 6.47581 2.97949 12 2.97949ZM7.32258 14.7537H12V17.6126C12 18.044 12.5242 18.2617 12.8266 17.9553L17.4355 13.3222C17.625 13.1327 17.625 12.8303 17.4355 12.6408L12.8266 8.00369C12.5202 7.69723 12 7.91498 12 8.34643V11.2053H7.32258C7.05645 11.2053 6.83871 11.423 6.83871 11.6892V14.2698C6.83871 14.5359 7.05645 14.7537 7.32258 14.7537Z" fill="#25F2D0"></path></svg>